<svg id="Layer_1" data-name="Layer 1" xmlns="http://www.w3.org/2000/svg" viewBox="0 0 468.84 560.47"><path d="M300.53,295.71A43.41,43.41,0,1,0,270,283a43.41,43.41,0,0,0,30.53,12.72Zm0-60.82a17.42,17.42,0,1,1-15.09,8.71A17.42,17.42,0,0,1,300.53,234.89Z"/><path d="M347,385a17.28,17.28,0,0,1-6.22-19,41.53,41.53,0,0,0-39.51-54.76h-1.4a41.69,41.69,0,0,0-39.51,55.23,17.11,17.11,0,0,1-6.23,18.82,110.3,110.3,0,0,0-19.75,19.29,110.38,110.38,0,0,0-19.75-20.07,17.1,17.1,0,0,1-6.23-18.82,41.7,41.7,0,0,0-39.51-54.45h-1.24a42.16,42.16,0,0,0-39.83,55.23,16.95,16.95,0,0,1-6.06,18.82c-22.25,17.27-50.09,54-56.62,129.42h0a43.42,43.42,0,0,0,11.21,32.36,41.86,41.86,0,0,0,31.11,13.38H230.22a25.62,25.62,0,0,0,4.19-.32,24.36,24.36,0,0,0,4.83,0H362a41.85,41.85,0,0,0,41.53-45.73C397.12,439,369.28,402.26,347,385ZM229.59,534.18H106.86A15.59,15.59,0,0,1,95.5,529a16.65,16.65,0,0,1-4.35-12.44c6.07-69.69,31.11-99.56,46.67-111.22h0a42.93,42.93,0,0,0,15.56-47.6,15.55,15.55,0,0,1,15.56-20.69h1.24a15.56,15.56,0,0,1,15.56,20.69,42.91,42.91,0,0,0,15.55,47.6A97.38,97.38,0,0,1,218.86,429a144,144,0,0,1,15.56,32.36,234.58,234.58,0,0,1,10.73,55.22,15.46,15.46,0,0,1-10.74,16.65,12.61,12.61,0,0,1-4.82.93ZM373.32,529A15.57,15.57,0,0,1,362,534.18H268.63a42.64,42.64,0,0,0,3-19.76A234.52,234.52,0,0,0,250,429a97.23,97.23,0,0,1,20.85-23.64,42.94,42.94,0,0,0,15.56-47.61,15.54,15.54,0,0,1,14.78-20.68h1.39a15.74,15.74,0,0,1,14.94,20.68,43.27,43.27,0,0,0,14.77,47.76C347.81,417,373,446.91,378.92,516.6a16.61,16.61,0,0,1-5.6,12.44Z"/><path d="M168.31,295.71A43.09,43.09,0,1,0,138,283a43.44,43.44,0,0,0,30.27,12.73Zm0-60.82a7.25,7.25,0,1,0,0,.15Z"/><path d="M322.78,95.82l7.93-9.64a52,52,0,0,0,12.61-39.36,51.67,51.67,0,0,0-21.16-35.93A54.28,54.28,0,0,0,248.43,21l-14,17.27L218.87,19A52.91,52.91,0,0,0,181.38.16a51.62,51.62,0,0,0-39,13.53,54.46,54.46,0,0,0-3.27,74.36l6.38,7.62A235.19,235.19,0,0,0,0,313.44V546.77a13.22,13.22,0,0,0,13.07,13.07A13.07,13.07,0,0,0,26,546.77V313.44A209.22,209.22,0,0,1,163,117l31.11,36.86a52.57,52.57,0,0,0,80.58,0l31.11-37.18h0A209.54,209.54,0,0,1,442.87,313.13V546.47a13.06,13.06,0,0,0,12.91,13.06,13.21,13.21,0,0,0,13.06-13.06V313.13A234.89,234.89,0,0,0,322.78,95.82ZM254.33,137.2h0a27.21,27.21,0,0,1-40.44,0l-23.33-28.15L172.2,87,159.45,71.4A28,28,0,0,1,160.23,33a26.39,26.39,0,0,1,17.88-7H180a26.7,26.7,0,0,1,18.35,9.64L224,66.73h0a14,14,0,0,0,20.69,0L268.8,37.8h0a28.17,28.17,0,0,1,37.65-6.54,25.7,25.7,0,0,1,10.11,18.05,25.66,25.66,0,0,1-5.76,19.91L296.65,86.8l-18.83,22.25Z"/></svg>