<svg id="Layer_1" data-name="Layer 1" xmlns="http://www.w3.org/2000/svg" viewBox="0 0 440.08 527.7"><path d="M429.72,75.8c13.45-16,13.75-34.77,1.23-50C421.24,14,407.72,8.61,393,5.7c-7.14-1.4-14,0-20.92,1.54a57.28,57.28,0,0,0-31.81,19.19c-1.29,1.49-2,3.64-3.52,4.73-1.95,1.4-3.5-1.63-5.49-1.38-3.43.44-3.85-1.38-4.06-4.15a32.54,32.54,0,0,0-3.5-13.07C320.09,5.94,313.84,2.88,306.87,1c-7.23-1.94-14.33-.75-21.49.8-8.45,1.84-15.35,5.7-20.15,12.94-1.31,2-2.56,4.05-5,5.55h0c-4.94-8.25-12.87-12.16-21.87-14.4A12.14,12.14,0,0,1,235.55,5c-3.71-2-7.68-2.16-11.76-1.74-9.07.94-17.79,3.41-26.4,6.24-2.23.73-4.41,1.62-5.91,3.82-4.9,7.19-11.07,13.72-12.12,22.86-.34,3-1.83,3.7-4.51,2.83-4.67-1.5-9.64-1.64-14.35-1.5-9.24.26-18.7,1-25.57,8.46C130,51.26,125.84,57.1,124.2,64.29c-1.06,4.64-2,9.26-.78,14.1,1.17,4.42,1,4.68-3.68,5.94-7.61,2-12.6,6.12-12.59,14.45,0,2.66-1.7,2.7-3.65,2.65A29.63,29.63,0,0,0,88,105.65c-9,5.13-12.85,13.52-12.57,23.51.19,6.74,8.44,14.31,16.92,16.44,4.91,1.23,5,1.23,5.17,6.13q.81,19.88,1.58,39.75a22.64,22.64,0,0,1,0,3c-.46,4.26-3.35,6.67-7.78,6.51a18.86,18.86,0,0,1-8-2.36c-4.65-2.37-9.36-4.61-14.08-6.85-8.6-4.09-17.41-4.28-26.47-1.52a50.72,50.72,0,0,0-17,8.76c-6.87,5.52-14.07,11.1-17.69,19.26-7.21,16.28-9.88,33.17-6.75,51s7.76,35.11,16.82,51.12C26.27,334.8,35,348.85,46.63,360.76c7,7.11,14.62,13.6,22.17,20.15A47.37,47.37,0,0,1,82,398.41c2.37,5.69,2.07,10.88-2.56,15.32-2.73,2.62-3.74,5.82-4.7,9.37-2.26,8.46,1.06,15.27,6.19,21.31,4.82,5.68,11,9.22,19.1,7.38,1.73-.39,3.54-.48,5.23-.7,1.16,1.56.9,3.19.94,4.75.18,8.52.29,17.05.49,25.57,0,1.54-.59,4,.86,4.38,3,.8,3.91,3.75,6.65,4.75,5.41,2,10.24,5.59,14.33,9.14,8.12,7,17.3,12.5,25.68,19.07a23.58,23.58,0,0,0,10.26,4.4c12.08,2.43,24.43,2.15,36.62,3.53,15.23,1.73,30.62.77,45.92.66,6.37-.05,13-.08,19.25-1.3,9.32-1.82,18.73-2.65,28.13-3.73,10-1.15,19.81-3.21,28.72-8.2a63,63,0,0,1,8.9-3.69c5.08-1.89,10.33-3.54,15.06-6.09,6.68-3.6,12.27-8.91,19-12.52a2.94,2.94,0,0,0,1.4-1.82c1.08-3.41,4-4.84,7-6.14a48,48,0,0,0,10-5.46c.65-.49,1.54-.93.47-1.6-2.62-1.64-.53-2.5.53-3.44,1.9-1.69,4.83-2.68,5.15-5.49.39-3.33,1.79-6.51,1.36-10-1.22-9.87,2-20-1.56-29.76-.3-.81.24-1.93.44-2.89a29.4,29.4,0,0,0,1-4.63c.62-15.25,1.3-30.49,1.69-45.74.52-19.78-.08-39.57.87-59.36.63-13.26.56-26.55.51-39.83,0-3,.84-4.37,3.62-5.68,5.82-2.74,11.61-6.13,15.05-11.55,5-8,7.85-16.44,6.4-26.45-1.14-7.78-4-14-9.66-19-2-1.73-2.65-3.28-2-5.63,1.47-5.15,0-9.35-4.2-12.72a1.87,1.87,0,0,1-.57-2.51c6.31-4.39,13.61-8.33,15.78-17.26a42.79,42.79,0,0,0-.62-23.95c-2.61-8.07-6.91-14.55-15.14-17.56.57-2.06,2-2.05,3-2.43a32.85,32.85,0,0,0,17.69-15.34c5.47-9.79,4.55-20.28-3.35-28.28a2.27,2.27,0,0,1-1-2.16A55.41,55.41,0,0,0,429.72,75.8ZM214.06,17.5c1.71-1.05,3.26-.73,5.06,1a4.74,4.74,0,0,1-.86.5c-1.52.34-3.08.79-4.37-.5A1,1,0,0,1,214.06,17.5ZM92.12,244.12a7.79,7.79,0,0,0,2.57,1.51c5.23,1.09,6.33,4.55,6.31,9.25-.12,24.34,1.41,48.66.33,73-.45,10,1.06,20.16,1.66,30.24.08,1.33.05,2.67.1,5.48h0c-5.67-4.9-8.43-10.26-12.35-14.68-10.18-11.47-19.26-23.82-29-35.63-12.5-15.17-19-32.45-20.39-51.72-.59-8,.1-15.87,4.61-22.9,7.49-11.65,18.21-13.22,29.47-6.11C81.14,236.2,86.56,240.27,92.12,244.12ZM80.6,202.84A4.67,4.67,0,0,1,76,201,3.91,3.91,0,0,1,80.6,202.84ZM82,213.31c-4.31-2.51-4.55-2.9-6.41-8.87C78.49,206.78,79.67,209.67,82,213.31ZM69.36,196.92a2,2,0,0,1,1.9,1.67h0a6.93,6.93,0,0,1-.39.92,2.9,2.9,0,0,1-2-1.84C68.75,197.29,68.9,196.92,69.36,196.92Zm-5,2.85a9.19,9.19,0,0,1,3,5c-2.28-.45-2.51-3.25-4.5-3.72C63.62,200.84,62.67,198.24,64.36,199.77ZM62.51,201h0c0,.69.08,1.42.13,2.18-2-.37-2.76-2.36-4.45-3l-2.38-5C59.52,195.88,60.09,199.52,62.51,201ZM58,200.2c.76,3.19,4.71,5.08,3.84,8.94-3.89-3.07-6.54-7-8.85-12C55.64,197.43,56.26,199.79,58,200.2Zm-5.11,3.14c-4.57-1.73-4.17-5-5.5-7.32C49.87,197.48,51.21,199.7,52.9,203.34Zm-21,4c1.35,1.83,3.57,2.91,4.61,5-4.06-.4-6.88-2.91-10-5.63C28.84,205.63,30.5,205.45,31.93,207.38Zm-5.36,8.1c-3.33.32-3.33.32-4.17-3.75A7,7,0,0,1,26.57,215.48ZM15.19,297.14h0c-.86,0-1.2-.79-1.27-1.53-.05-.48.34-1.44.53-1.44a1.62,1.62,0,0,1,1.75,1.77A1.09,1.09,0,0,1,15.19,297.14Zm4.19,10.52c-1.15,0-1.63-.83-1.82-1.81-.12-.61.07-1.06.85-1.11a2.28,2.28,0,0,1,1.86,1.83A.82.82,0,0,1,19.38,307.66Zm51.05,66.58a20.27,20.27,0,0,1-6.54-6.73c-2.12-3.59-6.18-5.58-9.77-7.76a23.26,23.26,0,0,1-5.66-4.38c-.65-.73-1.91-1.58-1.29-2.44,1.7-2.35,0-2.92-1.59-3.82-2.52-1.42-4-3.74-5.73-6.35a5.65,5.65,0,0,1,5,1,9.89,9.89,0,0,1-.66-2,50.32,50.32,0,0,0-5.2-3.08c-3-1.53-5.93-3.35-7.49-6.54-.52-1.07-.88-2.43.09-3.34a1.45,1.45,0,0,1,1.53-.39,10.91,10.91,0,0,1-.19-1.89l-.21-.11c-2.94-1.35-3.36-3.07-2.5-5.5a10.86,10.86,0,0,1-.09-4.54c-1.6-2.25-2.94-4.71-5-6.56-.14-.13-.35-.4-.3-.49,2.51-4.89-3.26-6-4.37-9.28,1.29-1,2.14.87,3.76.29-2.77-3.53-3.55-7.81-5.18-12l.3,0a10.36,10.36,0,0,1-.38-3.09,5.12,5.12,0,0,0-2.42-.81c-3.6.51-4.37-1.81-5.47-4.1a26.76,26.76,0,0,1-1.84-3.72c-.43-1.42.83-1.48,1.83-1.59-1.14-1.6-2.4-3.14-3.41-4.83-1.11-1.86-2-3.86-.82-6.29,3.32,1.21,2.82,5.75,6.18,6.72-1.65-2.67-.92-5.47-.8-8.17a3.19,3.19,0,0,1,1.43-.22,10.25,10.25,0,0,1-.58-2.19c-3.12-1.13-3.78-3.62-4.62-6.69,2.81.8,1.9,3.89,4.15,4.48a1.26,1.26,0,0,0,.38,0A9.78,9.78,0,0,1,15,252.22c-.87-.62-1.73-1.26-2.6-1.89s-2-1.46-1.71-2.84,1.71-.45,2.48-1,2-.07,2.76-1.15a25.23,25.23,0,0,1-3.9-2.7,3.28,3.28,0,0,1-.61-4.34c1.14-1.54,2.52-.33,3.66.26a9,9,0,0,1,.4-1.55c-1.28-.7-2.68-1.65-1.85-3s2.15-3.18,4.27-1.35c.42-2.53.83-5.07,1.31-8l2.42.9a7.85,7.85,0,0,1,1.75-1.31A5.38,5.38,0,0,1,21,220.59c-.42-2.28-2.39-1.35-3.72-1.81A1.88,1.88,0,0,1,15.92,217c.12-1.53,1.34-.85,2.23-1s1.79-.34,2.22.31c2.88,4.25,7.37,2.69,11.29,3.22-2.76-2.79-3.23-7.07-6.37-9.7,2.76.5,4,2.71,5.54,4.55.94,1.11,1.44,3.05,3.34.52,1.48-2,2.74,1.78,4.54.83.43-1.67-1.72-1.92-1.88-3.26,3.13-2.33,4.08-2.58,6.85-.8a7.67,7.67,0,0,1,1.57-.86,11.49,11.49,0,0,1-2.61-5.31c3.23.33,4.53,3.47,7.36,3.19,1.74-.17,4.1,2.74,5.08-1.24.23-1,1.69-.45,2.62,0,1.32.7,2.48,1.81,4.12,1.78h0c1.37,2.13,2.59,4.24,5.71,2.35,1.09-.65,2.38.63,2,1.26-1.4,2.34.17,3.49,1.71,4.17,4.49,2,6.18,5.92,8,10-2.39.83-4.32-.4-6.29-1.25a25.4,25.4,0,0,0-16.53-1,8.46,8.46,0,0,1-7.44,3.86,8.81,8.81,0,0,1-1-.06A22.75,22.75,0,0,0,38.09,242q-.24,1-.45,2a10.34,10.34,0,0,1-1.53,8.3c-1.14,8.37-1,16.74,1.73,25,3.9,12,7.94,23.84,16.28,34.1,8.14,10,15.66,20.58,24.36,30.15,6.33,6.94,11.85,14.5,18.16,21.43,1,1.08,2.47,2.24,1.46,4.14-2.48.26-2.36-3.12-4.56-3.18-1,.52-.81,1.28-.47,2a101.49,101.49,0,0,1,8.32,28.76,4.44,4.44,0,0,1,.17,1.75c-.59,2.07,1,5-1,6.12S97.05,401,95.25,400c-.59-2.11-2-4.29,0-6.29.82-.81.64-1.25,0-1.79a16,16,0,0,0-2.9-2.11C84.24,385.75,78,379.16,70.43,374.24Zm18.38,21.45a1.1,1.1,0,0,1-1.32.79,2.13,2.13,0,0,1-1.57-2.12.74.74,0,0,1,1.14-.69A2.6,2.6,0,0,1,88.81,395.69Zm-6.4,35.44c4.07,2.28,5.57,5.87,7.23,9.45C84.67,437.68,83.53,436.13,82.41,431.13Zm13.7,16.13A1.74,1.74,0,0,1,94,445.75c-.11-.54.1-1.11,1-1.41h0c1-.09,1.32,1,1.79,1.75C97.17,446.69,96.74,447.17,96.11,447.26Zm-1.66-7c.2-.53.59-1.11,1.18-.72a2.16,2.16,0,0,1,.77,2.06h0c-.23.57-.68,1-1.25.65A1.59,1.59,0,0,1,94.45,440.25Zm7.07-10.18c-4.1,1.12-2.57,3.37-1.23,5.66a4.59,4.59,0,0,1,.24,1.64c-1.54,1.16-2.38-.16-3-.91-3.4-4.1-8.13-6.94-11-11.56-.73-1.18-2.09-1.93-.86-3.49s2.36.94,3.62.17c.22-2.42-2-4.23-1.81-7.34,4.18,2.22,4.23,6.81,7.16,9.22,4.28-4.31-3.87-5.94-2.32-9.69,2.55.2,2.28,4.08,5.75,3.39-1.38-6.17-3.32-12.1-6.95-17.49,1.69-.82,2.78.3,4,.42,1,2.15,3,3.54,4.76,5,.95.76,2.6,1.66,2.34,2.5-1.09,3.46,1.9,6.45,1.09,9.49-.75,2.83-.76,4.85.93,7.4S101.26,427.58,101.52,430.07Zm9.93-25.64c-5-3.85-8.34-8.92-8.76-15.39-.22-3.39.54-3.86,3.93-2.62,1.16.43,2.36,1,3.42.23s2-1.36,2.85.12,1.43,2.89.47,4.45a1.31,1.31,0,0,1-2,.27c-1-.72-.9-2.23-2.19-2.69a3.53,3.53,0,0,0-2.92.06c-1.21.65-.58,1.69-.29,2.57,1.18,3.65,1.38,7.73,6.77,8.59,1.83.3,1.8,4.68,6.07,3.41h0C115.8,406.29,112.91,405.58,111.45,404.43Zm-6.93-212.88c2.23.61,2.11,2.42,2.12,4.06a1.34,1.34,0,0,1-1.59,1.36,1.23,1.23,0,0,1-1.12-1.15,6.36,6.36,0,0,1,.59-4.27Zm12.66,1.11c-.46.51-.58.76-.73.77-1.44.18-2.87,1.86-4.31.16a1.32,1.32,0,0,1,.24-2.06C114.16,190.46,115.74,190.9,117.18,192.66Zm-3.45-7a1.74,1.74,0,0,1,1.79,1.08.86.86,0,0,1-1.12.83,2.24,2.24,0,0,1-1.36-.77C112.69,186.23,113.08,185.68,113.73,185.64ZM115.08,264c0,.61-.6.87-1.2.83a1.88,1.88,0,0,1-1.7-1.32c-.26-.72.28-1,.88-1.1h0C114.1,262.45,115,262.83,115.08,264Zm-.58-55.24c1.69-.33,2.42.74,3.11,2h0c-1.68.73-2.89.56-3.52-1.06C114,209.43,114.3,208.76,114.5,208.72Zm0,7.44a1.16,1.16,0,0,1,1.23-1h0c1,.43,2.17.88,2.22,2.25,0,.62-.69.82-1.25.75C115.47,218,114.3,217.72,114.46,216.16Zm2-10.15c-1.51-.14-3.32-.12-3.59-2.17-.14-1.06.61-1.75,1.65-2.14,1.61.31,3,1,3.23,2.78A1.24,1.24,0,0,1,116.48,206Zm0-5.75c-1,.07-2-.2-2.22-1.3-.11-.61.61-.75,1.17-.77.78,0,1.51.13,1.85,1S117,200.23,116.48,200.26ZM112.7,346.39a2.4,2.4,0,0,1-.8,2.81h0c-2,.12-2.56-.84-2.69-2.14-.12-1.11-.63-2.68.76-3.09C111.72,343.47,112.27,345.06,112.7,346.39Zm-3.44-69.27a1.11,1.11,0,0,1-1,0c-1.3-1.37-.83-2.85,0-4.6C110.69,274,110.33,275.52,109.26,277.12Zm-1.41,32c-1.56-2.71-1.14-5.46-.64-9.58C108.84,303.56,109.55,306.27,107.85,309.14ZM106.23,202a2,2,0,0,1-1.73-2c0-.65.39-1,1.36-1.17h0c.86,0,1.36.85,1.63,1.76S107,202.13,106.23,202Zm11.44,225.56c-1.94-.22-3.86-1.25-3.16-3.31s-.7-3.68-.87-6.71h0a35,35,0,0,1,5.66,8C120.07,427.14,119.08,427.75,117.67,427.59Zm1.22-133.08a1.52,1.52,0,0,1-1.56-1.45c-.14-.82.21-1.78,1.13-1.61.54.1,1,1.13,1.3,1.82S119.52,294.31,118.89,294.51ZM133,180.64c-2.51.78-3.7-.21-5.59-2C130.31,178.12,131.48,179.13,133,180.64Zm-4.61-6.5c.2-.84.91-1.09,1.73-1.14s1,.42,1.07,1.05h0a1.37,1.37,0,0,1-1.42,1.4C129.15,175.45,128.12,175.25,128.4,174.14Zm-3.4,116a2,2,0,0,1,2.34,1.42,5.46,5.46,0,0,1,0,4.56c-.21.5-1,.43-1.56.17-1.94-.81-1.75-2.35-1.4-3.9h0C123.64,291.37,123.71,290.47,125,290.15Zm-.63,8.69c.15-.8,1-1,1.85-1,1.3.14,2.23.8,2.05,2.13a1.37,1.37,0,0,1-1.79,1C125.36,300.7,124.07,300.36,124.37,298.84ZM124,284.92h0c1.79-1.54,3,.91,4.53.23.68-.92-.26-1.33-.57-2-.93-1.91-4.14-.57-4.54-3.23-.46-3.13,3.22-1.67,3.95-3.56.38-1,.49-2.7,2.16-2.27s1.7,2.1,1.73,3.45q.14,5.22,0,10.46c-.06,2.05-1.6,2.34-2.88,1.33C126.77,288.09,124.54,287.23,124,284.92Zm2.2-19.05c0,.95-.08,2.15-1.53,2-1.19-.16-1.48-1.25-1.56-2.23s-.13-2,1.21-2.29h0C125.89,263.5,126.24,264.61,126.21,265.87Zm.13,6.71h0a1.34,1.34,0,0,1-1.41,1.41c-1.16-.07-1.5-1-1.5-2s.5-1.49,1.35-1.4A1.75,1.75,0,0,1,126.34,272.58Zm5.56,23.8c.91-.49,1.45.11,1.7,1a2.22,2.22,0,0,1-1.57,2.94c-.38-.24-1.19-.46-1.25-.82A2.67,2.67,0,0,1,131.9,296.38Zm1.42-43.7c3.13-.07-.1,3.54,2.33,3.69-.21,1.21-.66,1.77-1.64,1.66-2-.23-1.79-1.84-2-3.14C131.76,253.78,132.13,252.7,133.32,252.68ZM132,246.23c.09-.94.26-2.09,1.53-1.83,1,.21,1.28,1.31,1.41,2.21-.07.94-.58,1.59-1.39,1.57A1.58,1.58,0,0,1,132,246.23Zm-1.33-15.11h0c0-1.26,4.33-4.13,4.73-3.34,1.64,3.33,7.32,2.19,7.6,6.85,0,.4,1,.77.64,1.36s-1.09.2-1.67.09a10.4,10.4,0,0,0-4.74.06C134.92,236.74,130.59,233.32,130.65,231.12Zm4.48-16.91c.46,2.49.87,5,1.27,7.31h0c-.08.76-.12,1.35-.2,1.93-.12.82-.48,1.5-1.42,1.58a1.7,1.7,0,0,1-1.89-1.12c-.77-3.21-1.33-6.46-.6-9.77a1.39,1.39,0,0,1,1.19-1.16A1.36,1.36,0,0,1,135.13,214.21ZM134.59,200a1.54,1.54,0,0,1,1.68-1.36c1.81.22,2.11,1.51,1.81,3.06a7.46,7.46,0,0,0-.1.95,5.13,5.13,0,0,0-1-.19C135.32,202.41,134.23,201.89,134.59,200Zm-1.54-1.48a2,2,0,0,1-2.33,1.57h0c-1.33-.27-1.47-1.5-1.39-2.62a1.51,1.51,0,0,1,2-1.53A2.09,2.09,0,0,1,133.05,198.51Zm-4.7-14.7c-.26-.41,0-.75.4-1,.72-.36.81-.34,4.21,2.14h0C130.69,185.57,129.3,185.29,128.35,183.81Zm-1.42,44c-1.74,0-2.41-1.23-2.61-2.67a1.61,1.61,0,0,1,1.65-2,2.61,2.61,0,0,1,2.59,2.22h0C128.74,227.1,128.05,227.8,126.93,227.82Zm1-8.73c.11.78-.21,1.59-1.22,1.55-1.74,0-3-.82-3.13-2.67,0-.7.07-1.56,1.23-1.64C126.46,216.57,127.73,217.32,128,219.09Zm-5.42-4.62c.55-2.07.4-3.79,2.16-4a2,2,0,0,1,2,1.88C126.65,214.71,124.37,213.53,122.56,214.47Zm0-28.72c.17-1.52-.8-2.62.5-3.4C123.54,183.22,123.8,184.1,122.57,185.75Zm.18-15.31a1.72,1.72,0,0,1-1.77,1.31h0c-.22-.23-.68-.53-.63-.67a2.19,2.19,0,0,1,2.13-1.66A1.4,1.4,0,0,1,122.75,170.44Zm-.6,5.54c-.24,1-.66,2-1.63,2.21-1.4.35-2.19-.52-2.29-1.85a1.53,1.53,0,0,1,1.1-1.79A2.79,2.79,0,0,1,122.15,176Zm-1.06,86.92c-.15.27-.35,1.09-.69,1.15-1.05.19-1.22-.68-1.26-1.47a1,1,0,0,1,1-1.12c.7,0,.88.59.93,1.44Zm.53-19.8c0,.57-.19,1.17-.94,1-1-.16-1.07-.92-.94-1.7a1.12,1.12,0,0,1,1.06-1.1C121.83,241.58,121.61,242.42,121.62,243.1Zm.4,7.5h0c.06-.82.79-2.18,1.53-1.79a12.34,12.34,0,0,1,4.45,3.73c.65,1-.9,1.45-1.92,1.44C123.93,254,122,253.54,122,250.6Zm1.53,5.05h0c1.84,1.39,3.41,2.45,4.82,3.68a1.93,1.93,0,0,1,.36,2.67c-1,1.22-1.57-.45-2.24-.53C122.57,261,122.16,259.1,123.55,255.65Zm-.29,72.18a1.57,1.57,0,0,1,1.56-2A2.11,2.11,0,0,1,127,327.4a1.9,1.9,0,0,1-1.69,2.05A1.73,1.73,0,0,1,123.26,327.83Zm3,8.19a6.62,6.62,0,0,1,6.62,1.75c1.08,1,2.31,4,3.27-.2.27-1.15,1.62-.54,2.56-.18,3.73,1.42,5.78,4.84,8.8,7.12,1.55,1.18-.43,1.91-.78,2.87-.44,1.19-.84,2.35-2.46,1.79s-3.33-1.33-5.65-2.26h0c.56,3.07,3.62,3.44,4.1,6.33-3-.47-6.27.35-8.46-1.34s-4.77-3.19-5.42-6.17c-.6-2.7-.19-5.73-3.73-7.13C124.32,338.28,124.66,336.48,126.28,336Zm2.71-5.44h0c1.08-.88,2.12-.34,3.07-.49a1,1,0,0,1,1.2.92,1.05,1.05,0,0,1-1.07,1.16C131,332.22,129.78,332.27,129,330.58Zm7,2.14h0a1.93,1.93,0,0,1,1.76,1.29c.26.54.15,1.21-.58,1.18A2,2,0,0,1,135.3,334,1,1,0,0,1,136,332.72Zm13.67,22.18c0,.26-.9.87-1.27.79a2.84,2.84,0,0,1-2.47-2.11c-.13-.65.28-1,1-1.06C148.15,353,149.62,353.23,149.68,354.9Zm-9.91,3.34c-2.29,1.15-5.92,1-6.87-.48a1.88,1.88,0,0,1,.07-1.6,1.45,1.45,0,0,1,2-.72C136.6,356.31,138.17,357.29,139.77,358.24ZM131,354.81a2.39,2.39,0,0,1-2.17,1.54,9.84,9.84,0,0,1-1.68-1.29,1.69,1.69,0,0,1,.25-2.52c.84-.87,1.75-.56,2.62-.1A1.79,1.79,0,0,1,131,354.81Zm3,52a1.46,1.46,0,0,1-.55,1.54,2.19,2.19,0,0,1-2.21.17c-2.17-.82-2.34-2.85-3-4.59C131.27,403.13,133.64,404.28,134,406.84Zm-4.14-12.79a29,29,0,0,1,2.44,2.16c.9.93,2.55,2.07,1.15,3.3s-3.12,0-4.13-1C127.82,397.07,128.34,395.39,129.88,394.05Zm0-.14a18.79,18.79,0,0,1-1.37-3.66c-.48-2.7,0-3,3.61-2.29.75,2.8,3.11,4.58,4.79,6.8.81,1.07,2,.73,3.14.69.14,1.75.59,3.72-2.55,2.17C134.94,396.38,132.7,394.53,129.85,393.91Zm3.44-7.16c.33-.68.44-1.65,1.38-1.54A1.6,1.6,0,0,1,135.9,387a1.26,1.26,0,0,1-1.5,1.35c-.74-.06-1.47-.23-2.2-.36A5.32,5.32,0,0,0,133.29,386.75ZM132.83,376c.25-1.9,1.22-3.08,3.25-3.11a10.5,10.5,0,0,0-.59,3.82,1.13,1.13,0,0,1-1.58,1.12A1.58,1.58,0,0,1,132.83,376Zm-.57,9.34c-.08.19-.79.32-1,.19-2.17-1.12-2.56-3.26-3-5.35a.91.91,0,0,1,.68-1.31,4.42,4.42,0,0,1,1.66.25.76.76,0,0,1,.46.34C131.91,381.32,133.22,383.12,132.26,385.34Zm-1.83-11a1,1,0,0,1-1.06,1.18c-1.29.05-2.38-.31-2.52-1.8a1.09,1.09,0,0,1,1.06-1.19,2.17,2.17,0,0,1,2.52,1.81Zm-3.28,26.42c1-.12,1,.85,1.07,1.57a8.27,8.27,0,0,1-.16,1.48c-.87-.06-1.87.06-1.88-1.3C126.16,401.76,126.31,400.86,127.15,400.77ZM127,414.9c1.59.43,2.87,1.1,2.54,2.65.22-.29.49-.55.69-.86,1-1.47,2.42-1.73,3.27-.27s1.68,3.19.24,4.79c-.26.29-1.14.26-1.63.09-1.37-.49-2-1.76-2.85-2.83l-.06,0a1,1,0,0,1-.07.15,1,1,0,0,1,0-.17l-.46-.14c-1.37-.32-2.79-.63-2.83-2.42A.9.9,0,0,1,127,414.9Zm.55,67.88a1.06,1.06,0,0,1-1.28-.91h0c-.07-.63.1-1.17.83-1.17a1.06,1.06,0,0,1,1,1.15C128.08,482.18,127.77,482.73,127.51,482.78ZM126.79,424a1.49,1.49,0,0,1,.73-2.38c1.53-.48,1.83,1,2.38,2h0a.79.79,0,0,1-.15.27C128.82,424.94,127.68,425.13,126.79,424Zm2.93,8.43c-.08-.93-.23-2.24,1.16-2.12a4.33,4.33,0,0,1,3.61,3.06c0,1.43-.81,2.1-1.79,2.05A3,3,0,0,1,129.72,432.46Zm3.58,14c-.06.65-.33,1.11-1,.91a2.61,2.61,0,0,1-1.37-.8c-.46-.66.2-1,.72-1.09a1.3,1.3,0,0,1,1.67,1Zm-.89-3.32a3.4,3.4,0,0,1-1.7-2.86,1.1,1.1,0,0,1,.48-.91c1.36-.42,2.24.45,2.94,1.36a8.3,8.3,0,0,1,.86,2.05A2.7,2.7,0,0,1,132.41,443.16Zm4.25,11.59a1.73,1.73,0,0,1-1.37-2.12,1.08,1.08,0,0,1,1.18-.94,1.91,1.91,0,0,1,1.69,1.88A1.14,1.14,0,0,1,136.66,454.75Zm-1.53-11.84c1.32.42,3.23.18,2.9,2.47a1.06,1.06,0,0,1-.87.58C135.26,445.71,134.81,444.52,135.13,442.91Zm3.17-15.46c-.18,1-.93.86-1.77.88-5.47.18-6.47-.46-6.52-4.71,2.44.16,4.38,2.15,7.08,1.6C138.07,425,138.49,426.42,138.3,427.45Zm3.57,29.95a1.09,1.09,0,0,1-1.26.83h0a1.23,1.23,0,0,1-.86-1.72c.16-.49.35-1.14,1.15-.84A1.35,1.35,0,0,1,141.87,457.4Zm.23-27.48a1.36,1.36,0,0,1,1.64-1.28c1.47.11,1.91,1.18,1.91,2.52h0c-.17.75-.43,1.54-1.41,1.54C142.35,432.7,142,431.42,142.1,429.92Zm.67,42.61c0-.26.48-.76.67-.74,2.07.31,2.62,1.76,3,3.55h0C144,475.48,142.77,474.68,142.77,472.53Zm3.54,31a1.25,1.25,0,0,1-1.6-1.14.92.92,0,0,1,.54-.72,1.55,1.55,0,0,1,1.69,1.17h0C146.73,503.09,146.55,503.5,146.31,503.54Zm.67-82.13a14.5,14.5,0,0,1-2.51-.67c-1.16-.62-2.8-.94-2.44-2.81a1.24,1.24,0,0,1,.71-.83c1.74-.43,2.39,1,3.29,2a9.16,9.16,0,0,1,.95,2.31Zm-1.3-6.17c-3.55-.37-4.56-4-7.14-5.64-1-.62.4-1.55,1-2.05,2,0,7.34,4.16,7.85,6.08C147.73,415,146.77,415.36,145.68,415.24Zm6.67,66.39a1.32,1.32,0,0,1-1-.51,1.45,1.45,0,0,1,.59-2,6.26,6.26,0,0,1,1.52-.56,4.32,4.32,0,0,1,.29,1.54C153.7,480.87,153.36,481.66,152.35,481.63Zm3.06,3.66c0-.17.53-.35.81-.52h0c.79.14,1.5.49,1.57,1.3.05.6-.63.92-1.13.8A1.56,1.56,0,0,1,155.41,485.29Zm.69,14.55c-.24-.44-.2-.79.25-1,1.78-.85,2.39.6,3.64,1.7C157.85,501.24,156.8,501.09,156.1,499.84Zm19.13-7.27a1.65,1.65,0,0,1,2.45-.89c2.17,1.1,4.62.81,6.85,1.53a2,2,0,0,1,.48,2.48c-.67,1.14-1.76.87-2.52.18-1.64-1.48-3.66-1.23-5.6-1.5C176,494.25,174.77,494,175.23,492.57Zm12.58,6.75c1.19-2.13,3.4.26,5.19.46.52,2.41-2.41,1.73-2.75,3.47.37,1.69,2.43,1.88,3.44,3.1-4.42.06-8.06-1.79-12.51-5.14C184.43,501.31,186.39,501.88,187.81,499.32Zm-1.45,12.95c2.76-1.1,5.61-1.9,8.41,1C191.61,514.28,189,513.17,186.36,512.27Zm7.72-5.78c3.46-.39,5.79,1.88,8.31,3.66C199.6,509,196.17,509.2,194.08,506.49Zm2.73-3.68a1.66,1.66,0,0,1,1.87,1c.26.72-.19,1-1.28,1h0c-.34-.23-1.17-.51-1.52-1.07C195.43,502.91,196.32,502.84,196.81,502.81Zm10.8-1.44h0c-1-.05-2.37.19-2.37-1,0-2.35,2.11-1.59,3.49-1.84,1-.16,2.14-.32,2,1.11C210.6,501.66,208.77,501,207.61,501.37Zm4,18.53c2.68-1.08,5-.68,7.7-.8C215.74,521.36,215.74,521.33,211.61,519.9Zm9.39-6.29c2.27-1.07,4.58-.82,7.51-.08A13.71,13.71,0,0,1,221,513.61Zm4.94-13.43c2.69-2.66,4.4-1.36,7.12-1.3C230.32,501.42,228.62,499.44,225.94,500.18Zm2.11,3.26c3.11-2,10.06-1.41,15.28,1.32C237.93,506,236.25,505.83,228.05,503.44Zm84.2-13.8c-.37-1.54.85-2,1.95-2.48,5-2.25,10.37-2,15.66-2.31A27.2,27.2,0,0,1,315.1,491C313.86,491.09,312.62,491.18,312.25,489.64Zm.72,6.56c4.42-2.71,10.76-4.41,17.1-4.52C325,494.65,319.37,495.33,313,496.2Zm17.28-11.45a4.34,4.34,0,0,1,3.73-.06ZM314.12,257.64c-.05.88-.07,1.76,0,2.63a137.73,137.73,0,0,1-.26,14.21c-1.41,19.22-.23,38.45-.58,57.66-.37,20.21-1.17,40.41-1.51,60.62-.19,11.47-1,23-.8,34.46s-1,22.91.28,34.35c.5-11.66,1.46-23.31,1.33-35-.25-21.61,1.32-43.17,1.94-64.76.11-3.57.26-7.14.28-10.71.12-22.19.54-44.39.15-66.57A254.72,254.72,0,0,1,316,254.89m0,0c.31-3.13,2.87-4.95,5.14-3,1.88,1.59,3.18,3.2,5.9,2.59.6-.13.92.47.42,1.1-1.4,1.78-.48,2.2,1.19,3.39,4.19,3,8.24,5.07,13.67,3.88a6.81,6.81,0,0,1,6.53,1.94c3.07,3.31,6.65,4.56,11.56,2.21,0,15.8,0,31.13.05,46.45,0,3.26-.22,6.32-3.75,8.5,4,1.31,4,4.1,3.57,6.84a122,122,0,0,0-1.24,20c.3,11.32-1.2,22.5-1.18,33.77,0,9.48-1,18.95-1.27,28.43-.1,3.31.67,6.62.91,9.93.37,5.34-.27,6.09-5.58,7-2.55.44-5.1.89-7.65,1.37-.14,0-.24.3-.47.62,3.7.67,7.3-.16,10.89-.09,1.81,0,3.06.25,3.21,2.46s-1.16,2.51-2.94,2.71a77.26,77.26,0,0,0-10,1.82c3.39.92,6.78.35,10.15.31,1.58,0,2.86.27,3,2.08s-1,2.41-2.58,2.58c-5,.51-10.06.37-16.12,2.05,5.1.79,9.09.1,13.05.19,1.48,0,2.68.05,2.82,2.11s-.66,2.79-2.63,3c-4.56.42-9.1,1-13.62,1.73,5.55,1.26,11.15-.08,17.7.67-7.13,4.27-14.81,2.74-22.58,5.88,8.67-.44,16.07-.36,23.43-1.67-7.31,3.41-14.69,6.35-22.77,7.21,5.88,1.12,11.52-.84,17.25-1.28,1.61-.12,3.18-.49,4.79-.61.78-.06,1.68.14,1.74,1.17a1.63,1.63,0,0,1-1.42,1.66c-8.68,1.5-16.93,4.86-25.71,6-3.29.41-6.79.4-9.4,3.1,11.67-2.68,23.56-3.94,35.82-6.41-1.08,4.18-3.21,6-7,6.56-9.55,1.36-18.84,4.17-28.49,5.12a13,13,0,0,0-8.24,3.18c14.58-2.95,28-4.44,42.2-6.2-1.92,2.91-4.34,3.39-6.71,3.88a90.83,90.83,0,0,1-21.08,1.42c-1.76-.06-3.41-.63-3.69,2.19-.15,1.48-2.28,1.22-3.65,1.44-9.62,1.6-9.62,1.6-10.78-8.57-.79,5-.33,8.8-.09,12.56.15,2.41-.77,3.62-3.23,4.05-10.72,1.85-21.42,3.8-32.13,5.72a6,6,0,0,1-4.1-.47c-.89-.48-2-.74-2.54.52-.65,1.42-1.91,1.17-3.09,1.18-6.39.11-7.32-.72-7.75-7.72-.24-4-.16-7.93-.22-11.74-3.74,4.18-7.84.31-11.84.18.32,1.85,1.87,1.55,3.17,1.92,2.46.7,4.83,1.69,8.13,2.88-4.36,1.93-7.81.45-11.24,0a8.54,8.54,0,0,0,7.39,4.12c1.85,0,3.09.63,3.16,2.71.07,2.36-1.64,2.41-3.26,2.49-2.2.1-4.41.09-7.81.14,4.32.74,8.16-.61,10.66,3.16-2.41,2.36-5.64.81-9.25,1.83,3.84.12,6.89.15,9.4,2.83a3.34,3.34,0,0,1-3.8.86,45,45,0,0,0-8.84-1.78c-.77-.05-2-.26-2.19-.7-1.61-4.35-5.3-2.91-8.26-2.78-8.41.37-16.81-2-25.22-.07-1.1.26-1.91-.41-2.68-1.07a5,5,0,0,0-4.56-.85c-5.84,2.3-10.64-.53-15.68-2.42-1.49-2.43-5.3-3.87-3.24-7.86.45-.89-.87-1.75-1.77-2.1q-7-2.73-14.1-5.25a1.72,1.72,0,0,0-1.55.56c-.24.38,0,1.11.13,1.66.4,1.85,2.82,1.35,3.7,3.23-2.17,1.7-4.32,2.3-6.83.53a7.07,7.07,0,0,0-4.42-1.67c-.92,0-1.64-.46-1.55-1.36s1-1,1.81-.8c1.53.37,1.77-.34,1.24-1.54-.44-1-1-2-1.52-3-1,1.12-1.37,2.6-3,2.88-1.64-1.76-2.72-3.74-2.2-6.22.72-3.38-1.34-7.3,2.06-10.15-1.21-3.59,3.17-7.13,0-10.81a1.64,1.64,0,0,1,.79-2.48c2.58-1.36,2.66-1.83.38-3.38-1-.66-2.2-1-3.18-1.68-.61-.42-1.52-1.31-1.39-1.75.47-1.75.89-3.38.11-5.17-.67-1.58-2.46-2.73-2-4.77,1.74-1.48,3.26,1.45,5,.14-.35-1.63-2.58-1.61-3-3.3-.31-1.43-1.11-3,1.45-2.5,2.13.41,2.37-.15,2-2.12s-.22-3.51-1.05-5.49c-3.36-8-3.1-8.12-9.5-13.74-1.39-1.22-3.58-1.89-3.49-4.49,4.41-.5,6.26,3.77,10.74,5.64-2.84-5.17-7.07-7.44-10.2-10.68-1.36-1.51-.09-3.91-2-5.36-1-.75-.37-1.91.42-2.55a6.29,6.29,0,0,0,1.74-2,14.15,14.15,0,0,1-1.93-3.82l-.09-.05c-1.44-.83-1.35-1.81-.66-3a1.09,1.09,0,0,1,.13-.17c0-.35-.06-.71-.06-1.07a13.53,13.53,0,0,1,.55-3.77,21,21,0,0,0-2.09-.87c-.71-1.36-1.18-3-2.25-4s-2.49-4.45-4.61-.61c-.35.65-1.49.34-2.13-.19-1.06-.89-1.37-2.18-.42-3.09,1.47-1.4,2.34-2,0-3.75-2.18-1.63-1.68-2.46,2.08-4.67.62,1.45,1.33,3.18,3,3.13,5.42-.18,9.31,3.56,14.06,5l.66-.31c-1.61-3-2.35-3.63-6.6-6.07-.39-1.82.52-2.64,2.23-1.95,3.65,1.46,7.35,3,9.5,6.88,1-4.54,3.08-9-1.72-12.63-.43-.32-1-1.16-.91-1.36,3-4.81-1.22-7.48-3.41-10.62,1.85-1.7,3,.75,4.52.36-.11-.34-.09-.79-.32-1-2.77-2.25-5.58-4.46-8.38-6.68a6.61,6.61,0,0,0-1-.71c-1.89-1.06-5.72,1.16-5.65-3.23-2.73.67-4.15-2.15-6.53-2.37a3.23,3.23,0,0,1-2.78-2c-.55-1.22-2.26-2.14-1.67-3.58.76-1.91,2.66-1.23,4.21-1.16-1-.54-2.07-1.11-3.13-1.61-1.54-.73-2.76-1.58-1.84-3.53.77-1.65,2-2.34,3.78-1.61.72.29,1.44.61,2.16.91-.09-2.33-1.56-3.22-3.64-3.91-1.42-.47-3.09-1.49-1.92-3.54.89-1.59,2-2.38,3.76-.8s4.66-1.64,6.48,1c1.4-1.63.37-3.84,1.72-6.37,4,2.9,8.49,4.81,10.37,9.73l6.43.69c-2.2-2.26-5.08-3.34-6.26-6,2-2,3.56,1.3,5.45.49.35-4.86.49-6.74,2.31-6.86,0-.44-.07-.89-.07-1.35s0-1,.09-1.54c-1.24-.63-1.89-1.92-2.25-3.76-.84-4.33-.93-4.31-6.13-4.36.38,1.26,2.2,1.92,1.45,3.86-4.45.61-7.55-2.15-10.34-4.79-1.88-1.78.57-2,1.76-2.39-2.23-2.22-1.6-6.28-5.9-7.44,2.75-2.25,4.7,1.29,6.83-.93.2-1.17-1.33-1.65-2.39-2.27-1.35-.8-2.73-2.21-4.19-5.3,3.49,1.26,6.73,2.09,9.26,4.21,1.63,1.35,5.54,2.39,1.68,5.65-.77.66,2.71,4.91,4.51,5.22.81.14,1.84-1.06,2.54.28.39.74.65,1.56,1.75.72.46-1.88-1.37-2.67-2-4,2.37-2.34,2.32-3.09-.56-3.59-1.72-.3-2.79-.63-2.61-2.33.22-2.09,2.36-.74,3.81-1.84-5.75-1.08-10.9-2.68-13.62-8.36,4.43,2.54,9.21,2.95,14.22,2.86.14-2.64-2-3.37-3.85-2.91-3.55.9-5.61-.43-7.41-3.14-.74-1.11-2.55-1.14-3.13-2.53.49-2.66,3,.15,3.86-1.38-.3-1.63-1.85-2-2.86-2.86-.73-.64-1.54-1.37-.57-2.44a1.49,1.49,0,0,1,2.15-.28c2,1.66,3.73,2.93,6.73,1.5,1.63-.78,3.52,1.91,2.32,2.69-3.38,2.18-1,2.68.73,3.5a4.37,4.37,0,0,0,1.11.19c.72-6,.74-6-4.86-8.15-1.57-.6-3.14-1.32-3.66-2.84-.74-2.16-2.52-3.39-4.4-5.07a4.44,4.44,0,0,1,5.69-.23c3.82,2.33,4-1.47,5.56-3,1.91-2,.18-2.63-1.31-3.39a2.16,2.16,0,0,1-1.31-1.83c.91-1.5,2.74.21,3.77-.92a3.41,3.41,0,0,0-.38-1.18c-1.25-1.37-3-1.95-3.4-4.45-.64-3.82-2.11-3.86-5.43-.85-1.28,1.15-3.22.78-3.11-.72.13-2-.67-3.84-.5-5.74.09-1.09,1-2.11,1.47-3.12L148.89,221c1.48-1.7,1-3.35,1-4.82,0-1.09-1.12-1.59-2.21-1.57-4.37.09-4.36.1-6.69-1.82-.59-.48-1.27-.86-1.92-1.3,2-1.7,4-1.48,6.07-.22,2.48,1.46,4.77,1.55,5.26-2,.26-1.88,3.26-3.45,2.16-4.4-1.7-1.45-3.2-3.9-6.11-3.72-.88.06-1.43-.57-1.79-1.36.46-1.29,1.5-1,2.46-.8.77.11,1.58.36,2.22-1.13-3.66-3.81-9.54-2.54-13.66-5.55.34-1.57,2.33-1.53,3.58-2.37,2.91-2,6-3.55,8.75.29.13.18.75,0,1.51,0-.92-3.56-1.36-7.15-5.61-8.27.2-2,1.8-2.34,3-2.73,1.83-.61,4.76-2.09,3.15,2.24,3,1.91,2.1,5.09,2.83,8.76.61-1.76,2-2,1.55-3.78-1.08-3.76,2.23-3.39,4.29-4.13a1.84,1.84,0,0,1,1.07.25c-.59,5.14,3.4,1.47,5.36,2.67-4.35,2.45-2.17,5.95-1.59,9.19-2.06,1.62-4.45-1.55-6.22.68,2.52,1.48,6.08,1.4,7.39,4.71,2-.2,4-.86,5.94.05,1.6.73,2.4.47,2.93-1.34.24-.82,2-1.63,2.53-1,2.79,2.87,7.19,2.25,10.25,4.61-1.4,1.45-2.7.44-4,.23s-2.7-.79-4.72.1l12.27,5.93c-3,1.11-5.45-.27-7.81,1.1,2,3.56,6.55,3.23,9.26,5.61-1.06,1.29-2.24,1-3.39.85,4,2,8.05,3.38,12.58,2.83-1.67-3.5-5.86-3.71-8.52-6,.7-2,2.05-.55,3-.74,1.26-.25,2.63.36,3.06-1.86.52-2.74,3.14-2,5-1.63,2.3.42.82,1.88.79,3.13,0,1.65.91,3.31,1.72,5.1.26-3.32,1.49-5.51,5.23-5.37-.87-.1-1.73-.19-2.6-.31-1.1-.14-1.95-.68-2-1.83s.9-1.6,1.88-2c.44-.2,1.66.41,1.24-.73-.16-.41-1.58.05-1.91-1.09,4.55-4.48,10.63-4.73,16.48-5.62,2.72-.41,5.52-.44,8.13-1.45,1.67-.66,3-1.07,3,1.66,0,1.23,1.55,1,2.31.2,2.11-2.13,4.73-2.61,7.79-2.87-1.46,3-4.45,3.06-6.51,4.47-1.31.89-2.33,2.27.22,2.74s1.21,1.21.43,2a1.52,1.52,0,0,0-.32,2.11,2.11,2.11,0,0,0,2.79.12c1.89-1.43,3.45-3.33,6.06-3.61.74-.09,1.44-.84,2.26-.14.11,1.92-2.27,1.27-2.76,2.54-1,2.61-5.27,1.61-5.49,3.84-.15,1.64,3.55,3.81,3.22,5.23-.6,2.57,0,2.55,2,2.24,1-.15,2-.31,2.67.93-.09,2.29-3,1.55-3.79,3.15,2.64,1.38,4.87-1.46,7.82-.58-1.29,2.14-4.32,1.85-5.42,4,3.14.74,5.56-2.33,8.72-1.6-.54,2.63-3.37,1.64-5,3.39.81,1,1.5,2.75,2.64,3.09,4.56,1.38,5.3,4.36,4.91,8.51a167.28,167.28,0,0,0,.44,32c1,10.43-.69,20.95-.26,31.45.21,5.13-.2,10.3.23,15.44.78,9.51-.1,19-.23,28.52-.22,16.82-.53,33.65-.61,50.47-.06,15.05-1.18,30.08-1.78,45.12a69.85,69.85,0,0,0,.29,8.3c1.88-11.57,1.69-23.26,2.34-34.89,1.48-26.73,1.36-53.49,1.64-80.23.28-27.52.84-55-1.19-82.53-.42-5.67.44-11.46,1-17.17.43-4.51.61-4.49,5.68-6,1.64.55-2.15,3.44,1.35,3.09,4.76-.48,9.76-.36,14-2.88,4.69-2.82,9.65-2,13.66,0,3.17,1.59,5.18.77,7.74-.07,2.34-.76,4.52-2.49,7.87-1.27-2.92,3.11-7.12,3.32-10.1,6.07,3,.48,5-1.22,7.26-1.88,1.31-.39,3.12-1.19,3.72.35.47,1.21,2.38,2.56.71,4.24-.56.56-1.16,1.24-.67,2.05,3.39,5.62,1.78,11.66,1.44,17.55m-171.5,34.05c-.31,1.3-1.44.94-2.45.68a2.24,2.24,0,0,0-1-.09,15,15,0,0,1-3.06.46,2.14,2.14,0,0,1-1.38-.95,1.14,1.14,0,0,1,.45-1.53c1.66-1.12,3.34-2.12,5.5-1.09C141.78,289.72,142.94,290.31,142.62,291.69Zm4.35,8.24c-5.12,1.31-6.87.47-11.65-5.26h0a3.36,3.36,0,0,1,3.35.39Zm.94-22.79c.54-1,1.34-.54,1.84,0a3.2,3.2,0,0,1,.42,1.37,7.41,7.41,0,0,1-1.5-.14C148.09,278.24,147.63,277.67,147.91,277.14Zm-9.7-74.38a16.13,16.13,0,0,1,3.55-1.3,1.77,1.77,0,0,1,2,1.74c0,1.36-1.2,1.3-2.15,1.39A3.62,3.62,0,0,1,138.21,202.76ZM173,186.39c0,1-.85,1.13-1.56,1.29s-1.75.18-1.82-.66.73-1.67,1.9-1.77h0C172.1,185.39,173,185.35,173,186.39Zm7.9,7.64c.24-.32,1-.37,1.5-.4.16,0,.33.5.5.77a1.18,1.18,0,0,1-1.31.76C180.93,195.05,180.5,194.51,180.85,194Zm13.89,7.67c-1.26-.31-2.91-.27-2.69-2.17a2,2,0,0,1,2.8-1.47C198.31,199.24,194.79,200.46,194.74,201.7Zm9.2-1.3a7.1,7.1,0,0,1,.33,4.8,2.67,2.67,0,0,1-1.64,1.56,5,5,0,0,1-3.94-1.16c-1.45-1-4-1-3.77-3.67C197.94,202.19,200.51,199.91,203.94,200.4Zm114.38,38c1-.32,2.46-1.16,2.8.53.26,1.26-1.28,1.09-2.14,1.25a7.28,7.28,0,0,1-1.83-.15h0C317.17,238.75,317.81,238.56,318.32,238.4Zm-.14-7.08c3.05-.55,5-2,8.17-1.77A11.82,11.82,0,0,1,318.18,231.32Zm0,12.38h0c.94.58,1,.91.63,1.28-.9.9.31,2.88-1.69,3.21-.17,0-.47-.07-.51-.18A3.21,3.21,0,0,1,318.16,243.7Zm43.67,220.06c-1.44-.16-1.35-1.68-1.36-2.83s0-2.57,1.68-2.5c2,.07,1.1,2.14,1.89,3.09C363.91,462.86,363.05,463.9,361.83,463.76Zm-1.16-19.29h0c1.44.66,4-.09,3.68,2.54-.16,1.3-1.81,2.64-3.09,2C359.31,448.12,360,446.2,360.67,444.47Zm2.05,11.6c-.91.07-2.11.29-2.22-1.13-.09-1.17.79-1.69,1.78-1.94a2.31,2.31,0,0,1,2.26.81C364.55,455.45,363.75,456,362.72,456.07Zm-.16-15.85c-1.18.58-2.23.52-2.51-1.21-.6-3.65.19-4.73,5.45-6.49h0C365.47,435.94,365.59,438.72,362.56,440.22Zm-2-8.19c-1.46-5.71-.31-7.3,7.07-9.65C368.7,428.52,364.78,430.29,360.59,432Zm1.43-9.67c-.65.29-1.51.7-2.15-.09a2.14,2.14,0,0,1-.09-2.7c2.61-3.69,6.34-5.42,11-6.19C369.73,418.55,366,420.62,362,422.36Zm7.21,7.57c2.24,1.18,1,2.35,1.81,3.9C368.79,432.45,370.1,431.26,369.23,429.93Zm-.69-18.57c-2.5,1.22-4.87,2.72-7.39,3.9-1.44.68-2.34-.12-2.14-1.65.18-1.36.6-2.84,1.93-3.52,3.31-1.68,6.09-4.39,9.9-5.27C372.05,407.85,371.44,410,368.54,411.36Zm6-17.93c-2,1.35-4.11,2.5-6.2,3.69-1.49.85-3.51,1-4.22,3.27,2.94-.13,5.07-2.4,7.88-2.35a1.63,1.63,0,0,1-.16,2.58,64.36,64.36,0,0,1-10.44,7.05c-2.22,1.22-3,.16-2.94-1.88.2-5.54.19-11.12.89-16.6a79.25,79.25,0,0,0,.52-15.38c-.26-3.78.59-6.82,3.51-9.22,0,0,0,0,0,.05h0c4.47-1.15,7.82-4.79,12.52-5.56,1.87,6.53,1.82,6.48-3.57,10-3.21,2.12-7.06,3.29-9.78,6.24,6-2,11.54-5.21,17.89-6.53,1.35,4.71-3.33,5.95-6,8.29-2.23,1.93-5.62,2.17-8,4.79,3.06.22,5.2-1.5,7.61-2.17,1-.26,1.85-1,2.81-1s2.53-1.08,3.07.62c.3.91-.38,1.68-1.08,2.51-3.47,4.08-8.23,6.13-12.85,8.45-1.7.86-3.88,1.05-5,3.84,4.11-1.68,7.7-3.18,11.32-4.6,1.08-.42,2.5-1.13,3.26.19A2.75,2.75,0,0,1,374.55,393.43Zm-10.36-115.2c-.88.16-1.44-.1-1.57-.69-.28-1.35-.34-2.69,1.21-3.5h0C364.88,275.44,364.52,276.86,364.19,278.23Zm.81,18.51c.54.11,1,.52.88.87h0c-.25,1.25-.91,1.46-1.72,1.44-.61,0-1.17-.33-1.12-.91A1.48,1.48,0,0,1,365,296.74Zm3.43,2.38c1,6.49.67,7.27-3.11,8.3-.9.25-1.93.8-2.7-.23a2.35,2.35,0,0,1-.17-2.76C364.26,302.53,364.89,299.21,368.43,299.12Zm.31,12.55h0c0,3-1.13,3.9-4.38,4-1.75.06-2-.86-1.94-2.1a4.52,4.52,0,0,1,4.6-4.33C368.64,309.34,368.87,310.38,368.74,311.67Zm-2.21,6.56c.49-.19,1.55-.11,1.68.17,2.72,5.53,2.33-1.56,3.91-.73,1.82,3.3,1.82,3.3-4,6.62.92,1.57,3.12-.47,3.93,1.43a23.62,23.62,0,0,1-3.86,1.59c-1.62.35-4.46,2.36-4.63.72-.25-2.35-2.85-3.89-1.74-6.6C362.76,319.15,364.72,318.9,366.53,318.23Zm-3.32,16.28a28.09,28.09,0,0,1,8.41-2.91c1.16-.24,1.87.52,2,1.62.23,1.43.07,2.74-1.5,3.47-2.42,1.12-5.2,1.56-7.2,3.52-1.25-.12-3,.58-3.21-1.51C361.58,337.13,361.56,335.48,363.21,334.51ZM361.6,332c3.12-3.18,6.57-2.31,9.31-3.57C367.16,331.48,367,331.54,361.6,332Zm.15,11.63c1-1.17,2.06-2.22,3.1-3.3,2.07.35,3.83-.87,5.77-1.14,1.12-.16,2.52-.64,3.12.75s-.37,2.25-1.52,2.76c-2.73,1.19-5.49,2.32-8.26,3.41a1.76,1.76,0,0,1-2.19-.31A1.68,1.68,0,0,1,361.75,343.65Zm1.53,4.58c2.78-1.15,5.66-2.07,8.51-3.05a12.18,12.18,0,0,1,2.91-.78c1.15-.1,1.84.61,2.07,2h0c.21,1.41-.81,2.27-2.16,2.93-3.07,1.48-6.11,3-9.23,4.41-1.3.57-3.16,2.27-4.05.07C360.53,351.83,360.65,349.31,363.28,348.23Zm-1,9c3.91-2.4,8.37-3.63,12.66-5.18a1.06,1.06,0,0,1,1.44.63,3.73,3.73,0,0,1,0,2.29c-.63,1.29-2.2,1.58-3.29,2.41-3.16,2.4-7.5,3.25-9.64,7-1-.35-2.77.33-2.86-1.25C360.52,361.12,360.18,358.6,362.32,357.28Zm16.26-60.8c.76.33.79,1.17.58,1.9-.15.5-.33,1.11-1.26.79h0a1.55,1.55,0,0,1-.51-1.82C377.56,296.79,378,296.24,378.58,296.48Zm-1-5.58c.09-.75.27-1.62,1.28-1.58.65,0,1,.53.89,1.23h0c-.11.76-.18,1.79-1,1.93S377.52,291.74,377.62,290.9Zm1.48,129.83c-1.83-.11-2.5-.9-2.43-2.35a2.54,2.54,0,0,1,2.24-2.46c1.89-.3,1.51,1.37,1.63,2.4.14,1.26,0,2.44-1.44,2.41Zm-.39-12.25c.9-.32,1.45.27,1.52,1.22a2.28,2.28,0,0,1-1.64,2.78,1.24,1.24,0,0,1-1.64-1.21A2.57,2.57,0,0,1,378.71,408.48Zm-.27-8.22a.89.89,0,0,1,1.44.27,3.63,3.63,0,0,1-1.41,4.75c-.46-.5-.66-.62-.71-.79C377.32,403,377.12,401.45,378.44,400.26Zm.13,36.94c-1.36.41-1.95-.33-2-1.4-.09-1.81-.07-3.7,1.55-4h0c1.86-.46,2.29.12,2.36,1C380.61,434.61,381,436.48,378.57,437.2ZM377,429c-.91-3.41.07-5.36,3.36-6.42C381,425.57,381.33,428.14,377,429Zm3.11-64.77c-1.75-2.7-1.25-4.69-.23-7.51A9.88,9.88,0,0,1,380.13,364.18ZM381.2,352c-.1.87-.7,1.64-1.46,1.39s-.65-1.29-.54-2.06c.09-.59.34-1.2,1.05-1.09C381.25,350.41,381.24,351.23,381.2,352Zm-.89-6c-1-.13-1.13-.9-1-1.65s.34-1.57,1.33-1.49.87,1,.94,1.71h0C381.32,345.23,381.46,346.2,380.31,346.05Zm.2-7.09h0c-.64-.13-1.1-.53-.88-1.15a1.92,1.92,0,0,1,1.08-1.07,1,1,0,0,1,1.19.83C382,338.45,381.35,338.86,380.51,339Zm.78-6a1.12,1.12,0,0,1-1.72-.85c-.21-1.33-.2-2.68,1.23-3.47h0c.66,0,1.24.18,1.33.79C382.31,330.72,382.84,332.18,381.29,333Zm3,37.57q.57-9.31,1.13-18.65C387.05,359.56,386.69,367.32,384.33,370.56Zm1.16-39.21c-.24,0-.42-1-.44-1.47a1,1,0,0,1,1-1.13c.66.17.8.68.78,1.24C386.77,330.81,386.42,331.52,385.49,331.35Zm-4.44-237c0,.26.53.6.86.66a2.23,2.23,0,0,0,2.83-1.52,2.85,2.85,0,0,1,2.18-1.94c1.63.24,1.78,1.91,2.71,2.84,1.55,1.55,2.95,3.66,3.22-.92.13-2.29,6-3.51,6.84-1.47,1.46,3.54,3.37,1.47,4.53.79,6-3.47,5.62-3,11.33.26,4.95,2.85,5.59,6.77,5.58,11.46,0,8.07-3,14.67-10.06,19.14s-14.47,7.69-23.31,6c-2.5-.49-4.06-2.57-6.44-2.83-1.38.51-.86,1.67-1.08,2.54-.37,1.45-1.88,3.9-.21,4.16,2.37.36,3.18,4.14,6.54,2.2,2.42-1.39,5.54-.31,8.28.13,3.78.61,3.91,1.15,1.88,4.87,1.13,1.17,2.17.29,3.19-.17,2.38-1.07,4.18-.27,6,1.37,2.25,2-.34,3-.72,4.46a7.35,7.35,0,0,0,0,2.1c6.37-1.29,6.63-1.29,8.36,5C416,162.27,416,171,410.29,179c-1,1.45-1.42,2.29-3.42.71s-3.47.87-5.09,1.77c.13,1.78,1.41,1,2.21,1.22,1.76.41,1.76,1.44.72,2.5a7.62,7.62,0,0,1-5.41,2.3c-4,.11-8.05.23-12.07.43-2.22.12-3.76-1.11-5.44-2.22s-2.74-2.93-5.19-2.83c-.53,4.68,3.88,7.79,3.71,12.28,0,1.11,1.51,1.35,2.43,1,4-1.6,8.15.32,12.32-.84,3.61-1,6.72,2.15,7.44,6.15.46,2.51-1.59,5.47-4.52,6.83a3.32,3.32,0,0,1-2.86-.05c-1.51-.57-3-1.09-4.51-1.7a2,2,0,0,0-2.63.63,2.24,2.24,0,0,0,.1,2.78,5.15,5.15,0,0,0,1.75,1.61c4.22,1.73,5.92,5.46,7.66,9.17.58,1.25,1.17,3,2.88,2.06s2.24-2.69.38-4.36c-.7-.62-1.7-1.11-1.65-2.51,3.15-2.07,5.57-.5,7.73,1.75,10.63,11,10.43,30.68-1.14,40.82a32.43,32.43,0,0,1-18.62,7.79c-3.78.29-7.48-1.53-10.32-4.3-2.64-2.59-3.81-6-5.08-9.35-1.46-3.86,0-6.85,2.11-10,1.77-2.64,1.18-4.38-1.19-5.22-1.6-.57-4.33,1.07-4.64,3.39a14.24,14.24,0,0,1-3.27,7.5c-1.14,1.37-2.3,2.73-4.18,3.13-1.24,1.76-3.13,2-5.13,2.08-5.69.33-11.37-1.1-15.12-4.79-4.11-4-7.27-9.5-6.55-15.85.69-6.08,5.39-7.67,10.51-3.91,1.13.82,2.12,1.77,3.17,2.62,2-1.84-.47-3.7.08-5.57.2-.68-.44-1.34-1-1.08-2.94,1.36-2.6-.25-1.71-1.88a3.41,3.41,0,0,0,.22-3.72c-3,2.07-3.18,7.87-8.78,6.18-.91-1-.2-2.28.24-3.6a12.33,12.33,0,0,0-1.06-10.24c-1.54-2.87-3.85-3.11-6.54-3-.79,0-1.66.19-1.72,1.23-.35,5.48-5.8,5.4-8.94,7.74-2.5,1.85-5.84,1-8.84.83-2.43-.11-4-1.63-5.14-3.63-1.39-2.38,1.27-3.36,1.61-4.82.86-3.79,4.53-4.15,6.38-6.49.66-.83,2.21-1.49,1.47-2.92-.65-1.26-2.07-1.28-3.19-.94-2.07.62-3.91,1.8-6.32.92-1.4-.51-1.72,1.25-2.45,2.12-4.63,5.53-9.57,10.69-16.85,12.87l.16-.17c-6.71,5.35-13.18,5-19.16-.76s-8.1-11.95-6.44-20c1.59-7.72-.51-11.4-6.85-14.58a8.54,8.54,0,0,0-5.8-.72c-6.31,1.27-12.51,2.78-18,6.23l.11-.12c-2.34,2.4-5.53,3.07-8.54,4.18-2.3.85-3.91.86-4.29-2-.31-2.28-2-2.29-3.63-2-6.49,1.3-13.24.63-19.62,2.61A10.5,10.5,0,0,1,184,187c-3.95-2.67-8.29-5-11.1-9.24-5.82-8.74-10.35-10.83-21-8.19-6.42,1.59-10.57.15-14.2-4.51-4.24-5.46-9.35-7.68-16.33-5.51a14.35,14.35,0,0,1-11.17-.59c-2.3-1.18-3.19-2.77-2.56-5.31a12.16,12.16,0,0,1,4.38-6.85c2.13-1.71,4-3.26,7-1.69a2.42,2.42,0,0,0,3.11-1.09c1-1.62-.58-2.64-1.6-3.31a9.82,9.82,0,0,0-9.23-.94c-7.16,2.86-14.3,1.73-21.37.13-3.81-.86-6.72-3.31-7.67-8.2a40.64,40.64,0,0,0,9.49.4c-.56-2.18-2.48-1.07-3.79-1.35-5.2-1.1-6.23-2.75-5.29-7.89,1.61-8.8,7.47-13.75,15.57-16.41a14.35,14.35,0,0,1,13.12,2.29c2.71,1.93,5.39,3.44,8.84,2.33.93-2-2.22-2.83-1.23-4.91,3.21-.66,5.24,3.74,8.94,2.1-.53-2.54-3.08-1.14-4.22-2.2-1.34-1.25-5.18-1.09-2.53-4.65.3-.41-1.87-1.76-1.57-3.32-2.24,0-2.32,1.72-2.73,3.24-.31,1.19-.86,2.48-2.41,1.67s-2.93-2-1.25-3.67A12.59,12.59,0,0,0,116,94.19c1.54-4.44,9.38-7.14,13.73-5,.83.42,3.74,6.33,3.24,6.85a5,5,0,0,1-2.46,1.55c-1.45.26-1.48-.93-1.35-1.94.36-2.76-1.33-1.49-2.5-1.26.08,4.79.67,5.47,4.89,4.55,3.05-.67,6.69-.39,7.33-5.19.31-2.41,3.65-1.72,5.77-2,1.44-.2,3.35.32,2.25-2.6-.59-1.6,2.43-.29,3.09-1.7-1.68-1.58-3.56-1.45-5.51-.6-5.18,2.26-10.77.79-13.74-3.76-3.77-5.77-3.14-22.25,3.89-27.7,1.31-1,2.49-2.33,4-.54s-.16,2.87-1.28,3.85c-1.36,1.17-3,2-4.36,3.19s-2.66,2.61-.29,5a17.13,17.13,0,0,1,4.3-5.79c2.14-1.92,4.11-3.06,7.5-2.49,2.73.46,6.16-1.85,7.42-4.07s2.9-2.6,5.3-2.56c-3.36-4.12-4.45-4.37-5.55-1.2s-3.17,3.2-5.63,2.74c-2.08-.38-4.11-1.09-6.31-1.68,8.74-9.34,24.57-13.31,36.66-7,6.05,3.16,9.53,8.35,9.24,15.48-.06,1.42-1.2,3.63,1.11,4,2.13.32,2.76-1.75,3.36-3.52.79-2.32,1.57-4.46-.5-6.58-4.64-4.77-4.09-11-4-16.73,0-5.95,2.92-10.91,7.47-15.06,5.83-5.32,12.14-9.59,20-11.74.18,3.41.24,6.08-3.11,7.63-1.5.7-.15.71.64,2.84,1.3,3.51,2.53,2.64,4.77,1.45,1.19-.63,2.2.62,3.29,1.05.76.3,1.93.3,2-.6.46-4.61,3.37-2.7,5.55-2,1.79.61,2.87,1.12,4.47-.75,2.52-3,5.95-4.79,10.71-3.65-3.92-4.08-3.92-4.08-7.26-1.41-4.83,3.87-8.43,4.18-13.27.43-1.36-1-3.55-.67-4.59-3.16,3.95-.44,7.53-1.89,10.8,1.34a1.26,1.26,0,0,0,2-.46c.45-.86-.2-1.34-1-1.77-3.38-1.91-7.14-.39-11.27-1.27,5.57-2.83,11-1.95,16.31-1.78,4.69.14,9,1.93,13.2,4,7.73,3.77,10.88,10.18,10.38,18.47-.07,1.39-.38,2.78.36,4.07,1.18,2.07,2.18,4.48,4.44,5.48,2.05.91,3.78-1.44,6-1-3.58-2.9-3.48-2.93-3.93-7.67a17.73,17.73,0,0,1,2.11-9.74c.7-1.4,1.23-3.33,4-2.19,1.68.69,3.16-2,5.45-1.64,1.09.18,1.44-1.29,1.19-2.29-.34-1.44-1.43-.92-2.36-.62a1.44,1.44,0,0,1-1.87-.54c9.82-6.7,19.88-11.8,32.51-9.55,6.21,1.1,11.46,4,13.87,9.19,3.08,6.61,3.48,13.92-2.59,19.89-.57.56-1.13,1.13-1.66,1.73-.38.44-.7.92-1,1.35.26.4.38.82.65,1,5.41,2.81,5.42,2.82,10-1.5.72-.68,1.17-1.67,1.93-2.27,2.26-1.81,6.36-1.65,7.7.2,1.8,2.49.76,6.7-2.14,8.19a7.61,7.61,0,0,1-4.59,1.18,7.67,7.67,0,0,0-5.75,1.3c5.93,3.14,12.37,2.07,15.46-3,5.34-8.8,12.49-15.93,20.3-22.53a18.74,18.74,0,0,1,2.93-2.08c13.92-7.76,28.34-9.64,43.44-3.62a15.81,15.81,0,0,1,7.23,5.3c-4.41.19-8.62-.62-12.36,1.28,1.74,2.31,3.48,2.93,6.37,1.18s6.69,0,10-.95c.46-.13,1.36.76,1.81,1.36.17.22-.31,1.36-.62,1.41-2.68.48-2.52,3.34-4.16,4.64h-.11c2.63.87,3.6-2.08,5.77-2.45,1.33-.22,3.35-1.55,3.81-.25,1.31,3.68,5.77,4,7.25,7.32S432.55,39,433,42.66a46.81,46.81,0,0,1,.06,13.63c-.6,3.49-3.05,6-4.87,8.75-3.52,5.31-7.6,10.25-11.31,15.44-1.54,2.16-3.59,2.24-5.86,2.09-6-.37-12.08-.55-17.86,1.81-.72.29-2.05.26-2.18.67-1.26,3.94-5,4.75-8,6.54C382,92.2,380.85,92.89,381.05,94.33Z"/><polygon points="137.96 202.86 137.96 202.86 137.96 202.86 137.96 202.86"/><polygon points="129.66 393.86 129.66 393.86 129.67 393.86 129.66 393.86"/><path d="M211.27,428.26c-2.21,1.27-4.81-.56-7.18,1,.57,3.06,4.7.7,5.4,3.5-.94,2.17-4-.52-5,2.29,4.64,2.51,9.71.68,14.52,1.39-5.71.15-11.49-.41-16.8,2.35-1.62.83-3.16.15-4.55-.71A1.63,1.63,0,0,1,197,436c.24-.61.85-.73,1.47-.72.2,0,.4,0,.6.06,1.45.12,3.4,1.5,4-.92.48-1.95-1.24-2.69-2.84-3.19-1.89-.6-2.62-1.27-.63-2.86.45-.36-.74-1.18-1.37-1.63-1.23-.88-3-1-3.76-2.79,2.42-1,4.67,1.14,7.43.07-.19-3.15-1.56-5.27-4.75-6.29a44.72,44.72,0,0,1-10-4.7c5.15-.59,8.53,2.76,13.61,2.47-5.11-3.62-10.46-4.41-15.28-6.72,2.94-.15,5.46.86,8.06,1.56,1.73.46,3.47,1,5.24,1.26s3.4,0,4-1.74c.57-1.63,0-2.94-1.75-3.91-2.61-1.47-5-3.35-7.85-4.37s-5.51-2.25-9-3.71c4.57-1.89,8.11,1.74,12.29.34-2.13-3.41-6.43-2.93-9.36-5.74,5.08.47,8.48,3.43,12.46,4.88,2.4.88,4.71,1.45,4.25,5-.34,2.6,2.45,2.53,4.36,3.17a15.26,15.26,0,0,0-3.22,1.81c-1.31,1.22-1.85,3.14.26,3.71,2.57.68.22,2.94,1.75,3.75.47.26.77,1-.12,1.21-4.47.89-4.33,2.24-.51,4.13.59.29.8,1.06-.11,1.2-2.31.35-3.21,1.86-2.68,3.76s2.83,1.9,4.48,2.45c1.06.36,2.4-.43,3.28.77Z"/><path d="M203.19,309.62a18.88,18.88,0,0,1,10,1.14c3.05,1.3,6.4-.25,9.56.63-4.52-.11-9,1-13.57-.31-1.61-.47-3.24-.32-4.09,1.52a3.83,3.83,0,0,0,.73,4.4c1.46,1.73,3,3,5.6,2.82,4.36-.34,8.64,1,13,.92a19.78,19.78,0,0,1-9.49-.26,15.37,15.37,0,0,0-7.2-.26c-.77.17-1.66.32-1.92,1.21-.4,1.38.69,1.52,1.64,1.87s1.58,1,.16,1.44c-.93.3-2.24,0-1.7,1.55.28.8,1.32.82,2.13.79,1.76-.07,3.61-.77,5.48,1.31-2.06,0-3.76,0-5.46.11-1.15.09-2.53,0-2.95,1.49a2.5,2.5,0,0,0,1.45,3c2.24,1.31,1,1.31-.42,2.28-2.33,1.66-1.73,4.85-.23,6.19,3.24,2.9-1.5,3.91-1,6,.13.53-.65.05-1.12-.11-5.64-1.85-11.18-3.86-17.06-8.46,6.87.35,10.83,5.12,16.25,5.36,1.18-3.93,1.18-3.93-3.15-7.18.46-1.92,3.73.65,3.7-2.23,0-2.3-.34-2.69-6.46-5,.64-1.31,2.2,0,2.61-.77.75-.62.65-.83.15-1.15-7.43-4.73-15.76-6.81-24.4-8-4.71-.67-9.39-1.54-14.21-1.86,3.82,3.64,8,6.37,13.41,6.72,2.85.19,5.88-.49,6.76,3.77.22,1.08,3.34,1.59,6.21,2.83-4.44.55-7.21-1.16-10.12-2-5.76-1.64-11.29-4.15-17.4-4.48l.2.18c-1-1.49-4.52-2.37-3.66-3.31,3.38-3.72-1.9-2.9-2.24-5,4.09-.67,8.21-.37,12.2-1.25,2-.43,2.66-3.12,5.14-2.13s5.15.51,7.2,3.32,6.22,3.54,9.8,4c4.32.61,8.71.64,11.41,4.9a2.08,2.08,0,0,0,2.8.58s.32-.16.32-.29c0-7.24,0-7.25-7.27-9.68-1.62-.54-3.44-.59-4.74-2.11,2.25-.78,4.21,1.78,6.64.26-3-3.77-7.61-4.22-11.65-5.52-2.27-.72-2.91-1.79-3-4.06-.05-1.15-.45-1.33.93-1.71,4.74-1.31,4.71-1.4,8.39-.25,2.11.66,4.23,1.28,6.34,1.91,4,1.18,4.49.88,4.34-3.4-.12-3.16,1.3-6.7-.28-9.35s-5.62-2.5-8.44-3.95a49.66,49.66,0,0,0-7.3-2.77,1.63,1.63,0,0,0-2.34,1.16,1.77,1.77,0,0,0,1.44,2.21c1.93.57,3.91,1,5.8,1.65s4.34.89,5.56,3c-.72,1.53-2.09,1-3.17,1.21l.21.14c-1.94-1.27-3.77-2.82-6.36-2.41l.23.17c-4.8-4.3-11.38-4.62-16.91-7.33-3.19-1.57-6.61-2.71-9.8-4.47,13.81.18,27.34,1.76,40.27,6.62,1.87-5.52,1.87-5.52-3.54-8.75l-.11.09a52,52,0,0,1,14.9-.08,28,28,0,0,0-3.55.08c-4.26.55-5.79,2.07-5.61,5.43.2,3.88,1.38,4.7,6.64,4.65,9.65-.1,19.19.63,28.51,3.25a8.48,8.48,0,0,1,2.67,1.3c-7.51-1-14.82-3.11-22.38-3.6-3.61-.23-7.23-.38-10.84-.37-1.85,0-3.75.51-4.2,2.66s-1.58,5.25.9,6.52c3.22,1.64.34,1.56-.2,2.48-1.64,2.77-1.2,6-2,9-5.47.3-9.8-4.12-15.53-3.77.58,2.41,2.53,2.37,4.09,3,2.75,1.11,5.67,1.91,8,3.93,1.07.93.93,3.75,3.11,2.71,1.58-.76.54-2.85.47-4.36a8.57,8.57,0,0,0-.32-1.75Z"/><path d="M190.87,376.19a25.2,25.2,0,0,0,9.76,2.78c1,.09,2.11.34,2.58-.84a2.57,2.57,0,0,0-.46-2.79c-1.83-1.82-3.61-3.83-6.1-4.75-4.51-1.67-8.87-3.83-13.65-4.64-3.32-.56-4.93-2.21-4.88-5.49,7.95,3.64,15.72,7.8,25.68,9.14-2.21-4.23-6.45-4.36-8.05-7.33l-.17.09c2.49-.18,4.2,2.18,6.68,2,1.63-1,.44-3,1.37-4.24,1.25-.43,5.73,2,6.85,3.75h0c-1.89-.68-3.88-1.58-5.53.22-1.35,1.48-.79,5.9.9,7.62,1.06,1.09,2.74,1.28.07,3-2.46,1.54-1.39,4,1.63,4.27a73.25,73.25,0,0,0,7.84,0c6.41-.2,12.82-.33,19.81,1.15-1.88,1.14-3.36.69-4.74.63a33.67,33.67,0,0,1-4.8-.5c-5.81-1-11.65-.44-17.48-.27-1.62,0-3.42.17-3.42,2.39,0,2.47,1.92,2.79,3.8,2.74a75.55,75.55,0,0,0,9-.61c7.58-1.18,15.1-1.43,23.14.53a10.43,10.43,0,0,1-2.15.18c-8.08-1.33-16-.12-23.92,1.35a30.33,30.33,0,0,1-5.4.16c-4.18,0-4.79.64-4.56,4.9.21,3.83.21,3.83-3.22,2.65-.76-.26-1.89-.35-2.19-.88-2.62-4.62-8-3.07-11.68-5.24-3.86-2.27-8.3-2.95-12.37-4.61a4.44,4.44,0,0,0-3.52-.35c-3.73,1.78-5.78-.62-9.35-3.33,8.45-1.08,14.74,2.86,21.63,3.22,6.74.36,12.65,4.53,18.83,7.39,1.28-3.16.53-5.15-2.47-7.36s-7.59-2.95-9.53-6.83Z"/><path d="M227,269.59c-7.37,1.51-15.26-3.42-22.61,1.65-.46-2.62-2.24-4.36-5.63-5.2a44.21,44.21,0,0,1-13.67-5.77c5.21.88,10.63,1.05,15.11,4.33.8.59,1.35,1.5,2.51,1.09.89-.31,1.05-1.07,1-1.91-.08-1.47-1.16-2-2.33-2.34-2.3-.71-4.66-1.22-6.91-2.07A39.13,39.13,0,0,1,188,256c2.93.11,5.72,1.66,8.68-.68,1.77-1.39,3.67,2.72,5.89,1.57,1.68-.87,1-3.74,3.09-4.77a7.82,7.82,0,0,1,3.54-.44c3.61-.08,7.23-.13,10.87.12A84.22,84.22,0,0,0,208.27,253c-2.18.45-3.65,1.24-3.65,3.81,0,2.94,2.19,2.85,4.1,3.27,1.28.28,2.66-.55,4.17.41a22.78,22.78,0,0,0-4.83.67c-1.93.71-3.54,1.94-3.13,4.43s2.27,2.75,4.06,2.67c6-.3,12,.84,18,1.37Z"/><path d="M203.64,239.47c-.9,3.1,1.39,5.84,0,8.95-2,0-2.85-1.43-3.92-2.5-.83-.84-1.61-2-3-1.63-2.82.82-5-.57-7.4-1.58-1.56-.66-3.31-1.77-3.93,1.3-.23,1.11-1.79.77-2.08-.36a23.62,23.62,0,0,1-.14-4.61c5.36,2.47,11.71.17,16.64,4.42,1.25,1.08,2,.15,2.66-1.05.48-.92-1.85-2.2,1.13-2.94Z"/><path d="M210.77,235.25c-2.77.36-5.09.84-7.89-.82-2.4-1.42-5.69-4.13-9.38-1.8-.69.44-1.59,0-2.23-.51-2.72-2-6.19-2.94-9.1-6.17,3.94-.13,6.76,1.55,9.74,2.5,3.25,1,6.46,2.73,9.75,2.9,3.75.19,5.16,4.78,9.11,3.9Z"/><path d="M254.84,66.1c-.57,2.49-3.33,4.36-2.12,7.34-2.55-1.66-5-3.62-8.66-2,.92,2.09-.65,6,4.29,5,.16,0,.64.51.64.79-.07,4.39,1.75,1.49,2,.37.4-1.51,1.08-2.88,1.56-4.34,2.45,3.51,2.45,3.51-.87,7.07,2.3,2.43,7,.8,8.39,4.63l.14-.17c-2.77.69-4.84-1.66-7.45-1.66-1.1,0-2.9-.7-3.08.77-.6,4.62-3,2.12-4.74,1.25-5.89-3-8.26-13.09-6-18.33,1.56-3.61,3.51-7.15,1.37-11.27-.49-1,.52-2,1.61-2,2.68-.11.32,1.53.71,2.27a13.58,13.58,0,0,1,.64,2.25c2.33-4.13,7.32-5.11,8.75-9.53.21-.66.88-.66,1.49-.46,4.57,1.51,8.7-.72,13-1.56,7.3-1.44,13.37,1.22,17.32,7.52,2.38,3.81,4,7.7,3.94,12.23a7.9,7.9,0,0,1-2,5.44,2.66,2.66,0,0,1-3.23.83c-1.47-.63-1.25-1.92-.79-3,2.36-5.77-.23-9.44-5.19-12.16l.12.21c-.67-1.18-1.31-2.39-2.05-3.54-.41-.65-1.28-1.51-1.83-.76-1.69,2.27-3.26.3-4.78,0A17.89,17.89,0,0,0,248,64c2.49.33,5.2.11,7,2.21Z"/><path d="M184.51,117.82c5.33,7.25,13.08,6.35,20.46,6.38,1.5,0,2.36-1.17,2.75-2.72.82-3.37,3.16-2.69,5.51-2.09.09,2-2.57.56-2.35,2.25s1.66,1.3,2.8,1.28l11.51-.19c-.13,2.66-1.79,2.55-2.94,2-3.58-1.63-6.51-.34-9.47,1.5a20.8,20.8,0,0,1-16.61,2.56c-4.95-1.23-9.33-3.8-13.46-6.52-6.9-4.52-8.15-14.34-3.49-21.11,6.37-9.24,15.88-11.19,26-10.12,4.31.45,8,4.1,10.89,7.79-3.92,3.58-3.9,3.54-7.83.35a9.11,9.11,0,0,0-3.59-2.11c-1.92-.38-4.53-2.84-5.77-.12-.85,1.89,2.47,1.88,3.72,3,.86.74,2.27,1,2.13,2.53-.64.77-1.59.93-2.12.34a7.51,7.51,0,0,0-7.46-2.73c-.38.07-.91.14-1.15,0-1.36-1.09-2.38-2.56-4.64-1.76s-2.83,2.76-4.09,4.19c-3.87,4.38-4.15,7.62-1.4,12.46,2.43-2.09,2.92-4.61,1.63-7.22-.86-1.73-.47-2.88,1.07-3.21,1.84-.39,3.75-2,5.71-.48,1.24,1,.36,2.17.05,3.27-.77,2.73-5.82,3.25-3.93,7.57.26.55-2.91.88-3.92,3Z"/><path d="M307,172.33c.49-1.38-1.9-1.2-1-2.43a1.35,1.35,0,0,1,2.1,0c2.89,3.74,6.5,3.77,10.69,2.6,1.41-.4,3.14.3,4.72.5a24.62,24.62,0,0,0,16.73-3.55c2.77-1.74,5.24-3.63,4.63-7.49-.46-3,.81-6.36-3.19-8.17-2.8-1.26-.36-3.29-.52-5.05a17.76,17.76,0,0,1,6.16,1.37,7.54,7.54,0,0,1,5,6.17c.7,5.63-1.09,14.71-9.44,18.18-4.59,1.9-9.68,2.31-13.95,5-.9.55-1.32.09-1.86-.61a2,2,0,0,0-1.49-.76c-6.4,1.22-12.48-2.29-18.9-1.12-4.33.8-8.32-.83-12.18-2.54-3.14-1.4-5.22-3.55-5.05-7.3.14-3.08-1.21-5.33-4.41-6.22a1.41,1.41,0,0,1-1-2.22,1.59,1.59,0,0,1,2.42-.86c2.87,1.47,5.34,3.11,6.79,6.33,2.6,5.76,7.42,8.44,13.8,8.24Z"/><path d="M341.33,96.63c1.83.3,2.81-.85,3.64-2.23,1-1.64,2.07-.81,2.88,0,1.19,1.24.37,1.77-.91,2.51-3.22,1.84-6.24,3.69-9.87.83-2.28-1.78-4.27.06-6.05,1.08-3.3,1.89-6.23,1.44-9.37-.21.82-1.62,1.79-1.29,2.73-1,1.23.43,2.48.75,2.58-1.08.08-1.26-.5-2.49-2-2.42-3.4.18-6.07-2.75-9.59-2-.32.07-1.05-.63-1.2-1.1a1.37,1.37,0,0,1,1.22-1.67c9.51-1.16,18.56-5.47,28.41-4.22a21.46,21.46,0,0,1,6.39,1.57c4.1,1.93,9,3.52,9.12,9.13a16.2,16.2,0,0,1-6.91,14.39,28.84,28.84,0,0,1-2.61,1.48c-2.75,1.58-4.79,3.59-4.64,7,0,1.12.31,2.53-1.73,2.21-1.67-.26-1.55-1.44-1.6-2.65a14.06,14.06,0,0,1,4.55-11.2c1.44-1.37,2.83-2.8,4.27-4.17,2.46-2.36.14-5.4,1.15-8.09.36-1-1.74-2.47-3.14-3.29-2.61-1.52-3.82-1.16-5.61,1.54-.66,1-1.36,1.94-2,2.93,0,.07.15.29.29.56Zm-10.08-.22c2-.16,3.43-2.22,5.66-1.5,1.54.49,2.86.36,3.25-1.47.24-1.16.42-2.66-1-3.08s-3.49-1.22-4.2.66c-1.3,3.46-2.34,2.07-4,.34-.89-.94-2.49-.46-3.22.47-.87,1.11,1.93,4.69,3.47,4.58Z"/><path d="M150.29,142.13c-.53,1.47.69,1.61,1.55,1.89,8.14,2.6,15.63,7.45,25,6.38-1.21,2.69-3.26,1.77-4.71,2-12.2,1.7-22.94-2.05-31-10.72-9.05-9.69-7.94-17.8,6.7-24.94,5.78-2.82,12.27-1.62,18.13,1,3.71,1.64,3.76,2.36,2.15,6.3-.3.71-.25,1.58-1.14,1.94-1.64-.12-1.62-1.47-1.94-2.56a4.55,4.55,0,0,0-2.69-3c-7.32-3.07-15.75.78-18.85,8.65,3,.65,2.38-3,4.21-3.69a1.59,1.59,0,0,1,.13,2.63c-3.77,2.25-2.63,6.24-3.1,9.33s2.8,4.33,5.69,4.92Z"/><path d="M273.26,156.62l4.91-2.12c2.06,5.46,1.54,6.53-3.25,8.47-7.95,3.23-16.26,2.83-24.39,1.75-9.17-1.21-12.53-7.54-9.75-16.68,1.72-5.7,5.68-8.55,11.16-8.32a5.42,5.42,0,0,1,5.16,3.44c.88,2.1-1,3.14-2.36,4.28a15.86,15.86,0,0,0-4.88,6.45c-1.92-.77-1.2-3-2.42-4.08-2.85,3.92-2.71,6.22.32,8.6,4.65,3.64,18.76,4.27,23.8,1a4.31,4.31,0,0,0,1.89-2.94Zm-22.73-8.52c.21-.28.78-.67.81-1.12.06-.64-.59-.75-1.16-.66a1.15,1.15,0,0,0-1,1.16c0,.67.54.8,1.38.62Z"/><path d="M358.61,191.62c6.33-1.16,10.42,1.82,13.48,6.86a12.73,12.73,0,0,1-8.26,19.13,26.2,26.2,0,0,1-17.59-2.56,10.23,10.23,0,0,1-4.52-4.65c-.55-1.13-1.06-2.38.61-2.87,1.09-.31,2.27-1.87,3.55.16,3.67,5.78,9.35,6.15,15.42,5.16,3.85-.62,5.87-2.78,6.38-6.71.58-4.42.35-5.63-3.77-7.4-3.7-1.6-7.09-4.4-11.63-3.35-.72.17-1.64.07-1.85-1a1.69,1.69,0,0,1,1.58-2.09c2.18-.35,4.4-.49,6.6-.72Z"/><path d="M380.47,66.49a15.26,15.26,0,0,1-3.67,10.45c-1.87,2-5.57,2.49-8.5,3.56-.59.21-1.1-.32-1.33-.92a1.22,1.22,0,0,1,.54-1.53c1.2-.72,2.51-1.25,3.7-2,3.53-2.15,4.73-5.59,3-8.51s-4.37-3.6-8.33-2a8.79,8.79,0,0,0-6,7.53c-.12.92-.63,2-1.95,1.82a2.17,2.17,0,0,1-1.71-1.51c-2.59-6.08-2.44-7.71,3.67-10.77,4-2,8.27-4.14,13.22-3.39,4.38.67,7.22,3.35,7.31,7.27Z"/><path d="M270.91,114.78c-.52-2.17,2-2.46,1.37-4.28-1.9-1.23-3.34,1.9-5.28.78,3.65-3.77,3.83-3.79,7.87-1.87a3.61,3.61,0,0,0,2.28.3c5.29-1.34,9.42,1.92,14,3.32.68.21,1.17.7.75,1.15-1.93,2-.26,4.55-1,6.73-1.16,3.3-3,6-6.47,7.34a31.55,31.55,0,0,1-14.16,2.06,7,7,0,0,1-2.89-.67c-1-.58-2-1.52-1.5-2.9s1.66-1.6,2.91-1.49a7.88,7.88,0,0,1,1.71.54c6.63,2.15,10.07,1,14.13-4,1.91-2.38,1.18-3.93-.79-5.46-2.49-2-5.45-2.35-8.52-2.11-1.38.11-2.74.36-4.4.58Z"/><path d="M298.83,75.19c-2.05-.8-.11-4.87-3.9-3.28-1.43.6-1.39-.89-1.13-1.82A7.64,7.64,0,0,1,297.05,66a33.09,33.09,0,0,1,8.53-4.32c7.93-2.6,14.8,2.81,13.77,10.92a33.54,33.54,0,0,1-1,4.63c-1.17,4.25-2.77,5.42-7.2,5.36-.8,0-1.6-.07-2.39,0-1.61.11-3.85.43-4-1.46-.23-2.53,2.29-1.33,3.59-1.48a9.12,9.12,0,0,0,5.37-2.39,5.94,5.94,0,0,0,.48-8.5c-2.55-2.71-7.08-3-9.52-.41-2,2.13-3.8,4.49-5.83,6.89Z"/><path d="M211.48,142.6c-6.56,4.15-12.7,3.84-18.8,2.65-3.17-.62-5.52-4.58-5.4-7.77.1-2.87,2.14-5.06,5.66-6.07,3.82-1.09,5.22-.43,8.26,4-1.51,1.24-3.34.73-5,.9-1.29.13-2.41.64-2.64,1.95s.72,2.22,1.78,2.84a13.28,13.28,0,0,0,8.06,1.79c2.37-.21,4.69-1.16,8.09-.32Z"/><path d="M351.58,139.56c2.9-.21,5.1-.21,7.24-.59,1.3-.23,3-.61,3.24-2.24.24-1.47-.85-2.56-1.88-3.5a7.68,7.68,0,0,0-5.5-2l-5.35.08c1.11-4.09,2.15-4.85,6.6-5,4.23-.13,9.43,2.59,10.6,5.55,1,2.62-.34,6.49-3.06,8.35-2.2,1.5-4.81,2-7.37,2.4-1.78.29-2.76-1.18-4.52-3.08Z"/></svg>