<svg xmlns="http://www.w3.org/2000/svg" width="157.106" height="11.151" viewBox="0 0 157.106 11.151">
  <g id="Group_255" data-name="Group 255" transform="translate(-265.217 -353.43)">
    <g id="Group_175" data-name="Group 175" transform="translate(357.548 353.68)" opacity="0.59">
      <g id="Group_169" data-name="Group 169" transform="translate(6.425 5.201)">
        <path id="Path_1101" data-name="Path 1101" d="M407.451,359.131a.249.249,0,0,1-.25.25h-57.85a.25.25,0,1,1,0-.5H407.2A.249.249,0,0,1,407.451,359.131Z" transform="translate(-349.101 -358.881)" fill="rgba(74,42,8,0.81)"/>
      </g>
      <g id="Group_170" data-name="Group 170" transform="translate(11.064)">
        <path id="Path_1102" data-name="Path 1102" d="M360.176,359.129c.211.027.37-.26.187-.369-1.213-.721-2.665-1.084-2.95-2.971-.4-2.613-3.951-2.95-3.655-.148C353.967,357.617,357.554,358.8,360.176,359.129Z" transform="translate(-353.741 -353.68)" fill="rgba(74,42,8,0.81)"/>
      </g>
      <g id="Group_171" data-name="Group 171" transform="translate(11.064 5.451)">
        <path id="Path_1103" data-name="Path 1103" d="M360.176,359.133c.211-.027.37.26.187.369-1.213.721-2.665,1.084-2.95,2.971-.4,2.613-3.951,2.95-3.655.148C353.967,360.645,357.554,359.462,360.176,359.133Z" transform="translate(-353.741 -359.131)" fill="rgba(74,42,8,0.81)"/>
      </g>
      <g id="Group_172" data-name="Group 172" transform="translate(21.678)">
        <path id="Path_1104" data-name="Path 1104" d="M370.79,359.129c.211.027.37-.26.187-.369-1.213-.721-2.665-1.084-2.95-2.971-.4-2.613-3.951-2.95-3.655-.148C364.581,357.617,368.168,358.8,370.79,359.129Z" transform="translate(-364.355 -353.68)" fill="rgba(74,42,8,0.81)"/>
      </g>
      <g id="Group_173" data-name="Group 173" transform="translate(21.678 5.451)">
        <path id="Path_1105" data-name="Path 1105" d="M370.79,359.133c.211-.027.37.26.187.369-1.213.721-2.665,1.084-2.95,2.971-.4,2.613-3.951,2.95-3.655.148C364.581,360.645,368.168,359.462,370.79,359.133Z" transform="translate(-364.355 -359.131)" fill="rgba(74,42,8,0.81)"/>
      </g>
      <g id="Group_174" data-name="Group 174" transform="translate(0 1.636)">
        <path id="Path_1106" data-name="Path 1106" d="M348.431,356.793c.186,1.26,1.122,1.548,1.944,2.01a.261.261,0,0,1,.09.048c.012.006.018.012.03.018a.126.126,0,0,1,.048.066.347.347,0,0,1,.06.192.383.383,0,0,1-.06.2.126.126,0,0,1-.048.066.126.126,0,0,0-.036.024.367.367,0,0,1-.084.042c-.822.462-1.758.75-1.944,2.016-.276,1.824-2.766,2.064-2.562.1a1.725,1.725,0,0,1,.762-1.152c-1.974.462-3.99.486-3.954-1.368-.036-1.782,1.812-1.836,3.708-1.422a1.564,1.564,0,0,1-.516-.948C345.665,354.729,348.155,354.963,348.431,356.793Z" transform="translate(-342.676 -355.316)" fill="rgba(74,42,8,0.81)"/>
      </g>
    </g>
    <g id="Group_182" data-name="Group 182" transform="translate(265.217 353.43)" opacity="0.59">
      <g id="Group_176" data-name="Group 176" transform="translate(0 5.201)">
        <path id="Path_1107" data-name="Path 1107" d="M318.615,358.881a.249.249,0,0,1-.25.25h-57.85a.25.25,0,0,1,0-.5h57.85A.249.249,0,0,1,318.615,358.881Z" transform="translate(-260.265 -358.631)" fill="rgba(74,42,8,0.81)"/>
      </g>
      <g id="Group_177" data-name="Group 177" transform="translate(47.009)">
        <path id="Path_1108" data-name="Path 1108" d="M307.541,358.88c-.211.026-.37-.261-.187-.37,1.213-.721,2.665-1.084,2.95-2.971.4-2.613,3.951-2.95,3.655-.148C313.75,357.367,310.163,358.55,307.541,358.88Z" transform="translate(-307.274 -353.43)" fill="rgba(74,42,8,0.81)"/>
      </g>
      <g id="Group_178" data-name="Group 178" transform="translate(47.009 5.451)">
        <path id="Path_1109" data-name="Path 1109" d="M307.541,358.883c-.211-.027-.37.26-.187.369,1.213.721,2.665,1.084,2.95,2.971.4,2.614,3.951,2.95,3.655.148C313.75,360.395,310.163,359.212,307.541,358.883Z" transform="translate(-307.274 -358.881)" fill="rgba(74,42,8,0.81)"/>
      </g>
      <g id="Group_179" data-name="Group 179" transform="translate(36.395)">
        <path id="Path_1110" data-name="Path 1110" d="M296.927,358.88c-.211.026-.37-.261-.187-.37,1.213-.721,2.665-1.084,2.95-2.971.4-2.613,3.951-2.95,3.655-.148C303.136,357.367,299.549,358.55,296.927,358.88Z" transform="translate(-296.66 -353.43)" fill="rgba(74,42,8,0.81)"/>
      </g>
      <g id="Group_180" data-name="Group 180" transform="translate(36.395 5.451)">
        <path id="Path_1111" data-name="Path 1111" d="M296.927,358.883c-.211-.027-.37.26-.187.369,1.213.721,2.665,1.084,2.95,2.971.4,2.614,3.951,2.95,3.655.148C303.136,360.395,299.549,359.212,296.927,358.883Z" transform="translate(-296.66 -358.881)" fill="rgba(74,42,8,0.81)"/>
      </g>
      <g id="Group_181" data-name="Group 181" transform="translate(56.849 1.636)">
        <path id="Path_1112" data-name="Path 1112" d="M319.286,356.543c-.186,1.26-1.122,1.548-1.944,2.01a.261.261,0,0,0-.09.048c-.012.006-.018.012-.03.018a.126.126,0,0,0-.048.066.347.347,0,0,0-.06.192.383.383,0,0,0,.06.2.126.126,0,0,0,.048.066.126.126,0,0,1,.036.024.367.367,0,0,0,.084.042c.822.462,1.758.75,1.944,2.016.276,1.824,2.766,2.064,2.562.1a1.725,1.725,0,0,0-.762-1.152c1.974.462,3.99.486,3.954-1.368.036-1.782-1.812-1.836-3.708-1.422a1.564,1.564,0,0,0,.516-.948C322.052,354.479,319.562,354.713,319.286,356.543Z" transform="translate(-317.114 -355.066)" fill="rgba(74,42,8,0.81)"/>
      </g>
    </g>
    <circle id="Ellipse_32" data-name="Ellipse 32" cx="2.449" cy="2.449" r="2.449" transform="translate(341.995 356.432)" fill="rgba(74,42,8,0.81)" opacity="0.59"/>
    <circle id="Ellipse_33" data-name="Ellipse 33" cx="0.636" cy="0.636" r="0.636" transform="translate(338.712 358.246)" fill="rgba(74,42,8,0.81)" opacity="0.59"/>
    <circle id="Ellipse_34" data-name="Ellipse 34" cx="0.636" cy="0.636" r="0.636" transform="translate(349.452 358.246)" fill="rgba(74,42,8,0.81)" opacity="0.59"/>
  </g>
</svg>
