<svg xmlns="http://www.w3.org/2000/svg" width="15.624" height="20.145" viewBox="0 0 15.624 20.145">
  <g id="Group_256" data-name="Group 256" transform="translate(-231.904 -383.97)">
    <g id="Group_159" data-name="Group 159" transform="translate(240.569 383.97)" opacity="0.59">
      <path id="Path_1091" data-name="Path 1091" d="M247.092,392.851c.249.12.564-.168.383-.378-1.2-1.39-2.837-2.437-2.409-4.882.592-3.384-3.651-5.268-4.443-1.692C240.063,388.421,244,391.361,247.092,392.851Z" transform="translate(-240.569 -383.97)" fill="rgba(74,42,8,0.81)"/>
    </g>
    <g id="Group_160" data-name="Group 160" transform="translate(240.569 395.207)" opacity="0.59">
      <path id="Path_1092" data-name="Path 1092" d="M247.092,395.235c.249-.12.564.168.383.377-1.2,1.391-2.837,2.438-2.409,4.882.592,3.384-3.651,5.269-4.443,1.693C240.063,399.665,244,396.724,247.092,395.235Z" transform="translate(-240.569 -395.207)" fill="rgba(74,42,8,0.81)"/>
    </g>
    <g id="Group_161" data-name="Group 161" transform="translate(231.904 388.697)" opacity="0.59">
      <path id="Path_1093" data-name="Path 1093" d="M240.423,397.6c.324-1.8,1.733-2.182,2.977-2.815a.387.387,0,0,0,.137-.066c.018-.008.027-.016.045-.024a.181.181,0,0,0,.074-.093.488.488,0,0,0,.1-.274.541.541,0,0,0-.083-.287.183.183,0,0,0-.069-.1.171.171,0,0,1-.053-.036.578.578,0,0,0-.124-.064c-1.212-.694-2.6-1.143-2.832-2.969-.346-2.631-4.058-3.069-3.824-.242a2.472,2.472,0,0,0,1.1,1.683c-2.933-.737-5.944-.848-5.957,1.817-.118,2.559,2.641,2.706,5.489,2.182a2.222,2.222,0,0,0-.805,1.343C236.216,400.458,239.945,400.216,240.423,397.6Z" transform="translate(-231.904 -388.697)" fill="rgba(74,42,8,0.81)"/>
    </g>
  </g>
</svg>
