<svg xmlns="http://www.w3.org/2000/svg" viewBox="0 0 71.74 170.1"><defs><style>.cls-1,.cls-2{fill:none;}.cls-1{stroke:#e5007e;stroke-width:5.67px;opacity:0.4;}.cls-2{stroke:#1c1b1a;stroke-dasharray:2.01 2.01;}.cls-2,.cls-6,.cls-7{stroke-width:0.5px;}.cls-3,.cls-6{fill:#e6c5c7;}.cls-4,.cls-7,.cls-8{fill:#a1ad85;}.cls-5{fill:#1e1e1e;}.cls-6{stroke:#e6c5c7;}.cls-6,.cls-7,.cls-8{stroke-linecap:round;stroke-linejoin:round;}.cls-7,.cls-8{stroke:#828a56;}.cls-8{stroke-width:0.25px;}.cls-9{fill:#504e4e;}</style></defs><g id="Your_Design" data-name="Your Design"><g id="Bleed_Area" data-name="Bleed Area"><rect class="cls-1" x="-115.27" y="-134.2" width="303.31" height="425.2"/></g><g id="Safe_Area" data-name="Safe Area"><rect class="cls-2" x="-168.46" y="-64.52" width="409.68" height="285.84" transform="translate(114.78 42.02) rotate(90)"/></g></g><g id="Layer_3" data-name="Layer 3"><path class="cls-3" d="M35.91,12.27a12.11,12.11,0,0,0,3.42-3.78,9.38,9.38,0,0,0,1.43-5c0-.64-1-.64-1,0A8.49,8.49,0,0,1,38.4,8.11a11.48,11.48,0,0,1-3.2,3.46c-.5.4.21,1.1.71.7Z"/><path class="cls-3" d="M31.42,14.15c-.31-.22-.62-.44-1-.65a4.62,4.62,0,0,1-.08-.65.16.16,0,1,0-.31,0c0,.14,0,.28,0,.42a20.31,20.31,0,0,1-2.35-1.66,7.74,7.74,0,0,1-2-4C25.64,7.19,25.32,5.16,25,5a14.85,14.85,0,0,1,4.14,3.34c.14.16.26.33.39.5s.18.29.28.43a13.51,13.51,0,0,1,1.47,3.58.19.19,0,0,0-.1.22C31.23,13.37,31.31,13.76,31.42,14.15Z"/><path class="cls-3" d="M32.55,12.2a4.28,4.28,0,0,0-.76-1.32.24.24,0,0,0-.4.17,2.66,2.66,0,0,0,0,.28,10.68,10.68,0,0,0-2.05-3.46,9.22,9.22,0,0,1-.76-3,9.94,9.94,0,0,1,.19-2.55c.27-1.58.44-1.61,1.55-.17C32.67,5.21,33,8.57,32.55,12.2Z"/><path class="cls-3" d="M34,11.82l0-.16a.31.31,0,0,0-.6,0c-.17.73-.31,1.47-.44,2.21a9.46,9.46,0,0,0-.33-1.42.21.21,0,0,0,.28-.11,10.35,10.35,0,0,0-.15-6.6,16.62,16.62,0,0,1,.36-2.81c0-.1,1.94-3.18,2.08-1.92a12.69,12.69,0,0,0,.33,1.58C36.35,6.08,35.25,8.8,34,11.82Z"/><path class="cls-3" d="M44.62,6.57c-.38.66-.75,1.33-1.17,2C41.79,11,38.7,11.88,36,13h0l-.05,0a.31.31,0,0,0-.38-.18c0-.05,0-.1,0-.14A11.15,11.15,0,0,0,40.36,7C41.47,5.82,43,5.77,44.5,5.83,45.26,5.86,45,6,44.62,6.57Z"/><path class="cls-3" d="M39.57,4a9.46,9.46,0,0,1-2.11,5.34A21.54,21.54,0,0,1,35,11.8h0l-.8.77a19,19,0,0,0,2.18-5.94,7.54,7.54,0,0,0,0-2C37.1,3.5,37.67,2.34,39,1.79,40.59,1.12,39.63,3.53,39.57,4Z"/><path class="cls-3" d="M45.63,12.65a6.78,6.78,0,0,0-1.68.1c-2.6.34-4.68,1.27-7.2.46a18.63,18.63,0,0,0,5-2.35.13.13,0,0,0,.14.08,8.12,8.12,0,0,1,2.4.32C44.46,11.31,46.75,12.79,45.63,12.65Z"/><path class="cls-4" d="M45.41,16.58C41.83,24.08,35,30.31,31.79,38a30,30,0,0,1,4-11.18C38.31,22.83,42.25,20,45.41,16.58Z"/><path class="cls-3" d="M19.86,29.94a8.83,8.83,0,0,1-2.21,2.27,11.67,11.67,0,0,1-2.76,1.47,6.76,6.76,0,0,0,.11-.89c1.76-1.75,2.31-4.86,5.17-5.08C21.24,27.63,20.12,29.5,19.86,29.94Z"/><path class="cls-3" d="M17.62,25.45a7.21,7.21,0,0,1-.89,3.72,11.14,11.14,0,0,1-2,2.65.3.3,0,0,0-.3.12V31.3a8.25,8.25,0,0,0,.61-3.65.13.13,0,0,0,.17,0C15.6,27,17.48,23.81,17.62,25.45Z"/><path class="cls-3" d="M14.19,30.69a.3.3,0,0,0-.3.14,6.33,6.33,0,0,0-.59,1.85l-.08-.15a3.83,3.83,0,0,0,.09-1.21.09.09,0,0,0,0-.11s0,0,0,0a7.36,7.36,0,0,0-1.18-3A7,7,0,0,1,12.65,24c1-2.19,2,2.55,2,3.35A7.81,7.81,0,0,1,14.19,30.69Z"/><path class="cls-3" d="M12.73,32.06a.3.3,0,0,0-.26.23,2.41,2.41,0,0,0,0,1.1.78.78,0,0,0,0,.14L12,33.28a4.78,4.78,0,0,0-.26-.42.14.14,0,0,0-.07-.2l-.13-.06A6.87,6.87,0,0,0,9.65,31a7.91,7.91,0,0,1-1.12-2,6.12,6.12,0,0,1-.39-2.12c0-.53.34-2.86,1.07-1.86a37.88,37.88,0,0,1,2.63,3.66,7.6,7.6,0,0,0,.78,1.91A4.73,4.73,0,0,1,12.73,32.06Z"/><path class="cls-3" d="M12.26,35.07c-3-.58-6-2-7-5a9.27,9.27,0,0,1,5.82,3,.29.29,0,0,0-.06.36A8.39,8.39,0,0,0,12.26,35.07Z"/><path class="cls-3" d="M69,57.86c-3.22-.22-5.63-2.79-7.36-5.4l.3,0a7.48,7.48,0,0,0,4.55,1.82A13.55,13.55,0,0,1,69,57.86Z"/><path class="cls-3" d="M66.21,53.59a9.52,9.52,0,0,1-3.65-1.35.44.44,0,0,0,0-.2,15,15,0,0,0,2.71-.86c2.27-.25,4.87,0,5.94,1.66C71.64,53.54,66.61,53.65,66.21,53.59Z"/><path class="cls-3" d="M69.34,48.7c-1.83,1.33-4,1.8-6.13,2.45a.3.3,0,0,0-.29-.15l-1,.12a3.51,3.51,0,0,0,1.28-1.26.33.33,0,0,0-.23-.48,7.17,7.17,0,0,1,.58-.52l.38-.29a16.35,16.35,0,0,1,2.42-1.41,4.82,4.82,0,0,1,3.15-.56C71,47,70,48.2,69.34,48.7Z"/><path class="cls-3" d="M67.31,42.91c-.71,3.24-3.18,4.82-5.57,6.65a33.75,33.75,0,0,1,1.66-3.74,8.18,8.18,0,0,1,1.51-2C65.12,43.57,67.44,42.29,67.31,42.91Z"/><path class="cls-3" d="M59.7,50.87h0a.34.34,0,0,0-.2,0A6.08,6.08,0,0,1,58,46.62a12.11,12.11,0,0,1,.22-2.48c0-.26.11-.51.18-.76a1.25,1.25,0,0,0,0-.44s0,.05,0,.06a5.1,5.1,0,0,0,.48.89,2.86,2.86,0,0,0,.69.74C59.43,46.69,59.6,48.79,59.7,50.87Z"/><path class="cls-3" d="M61.78,47.51a.23.23,0,0,0-.29.05,6.09,6.09,0,0,0-1.37,2.6l-.11.08a45.49,45.49,0,0,1,.2-8.17s.7-2.74,1.11-2.16a10.35,10.35,0,0,1,1.36,2.77C63.25,44.42,62.57,46,61.78,47.51Z"/><path class="cls-3" d="M49.15,37.12a8,8,0,0,1-.83,3.33,7.51,7.51,0,0,1-2.63,3,9.22,9.22,0,0,0,1.46-4.54c.16-.26.31-.52.48-.77C47.64,38.09,49.15,36.54,49.15,37.12Z"/><path class="cls-3" d="M46.8,35.61c0,1,0,1.93-.09,2.9a8.19,8.19,0,0,1-2.2,5.21v-.28a5.69,5.69,0,0,0-.1-4.87l.06-.34a.1.1,0,0,0,0-.12c.16-.3.36-.69.43-.79l.24-.41A2.52,2.52,0,0,1,46.8,35.61Z"/><path class="cls-3" d="M44.27,42.64a.29.29,0,0,0-.31.19,14.73,14.73,0,0,0-.63,2l0,0a.14.14,0,0,0,0,.18,2.68,2.68,0,0,0-.07.27l-.15-.4a.12.12,0,0,0-.07-.19v0c1.66-2.44-.57-5.36-1.35-7.93a.1.1,0,0,0,.07-.08c.41-1.31,2.48,2.44,2.57,2.7A5,5,0,0,1,44.27,42.64Z"/><path class="cls-3" d="M42.82,44.19a6.51,6.51,0,0,0-.33-.71c-.13-.23-.53-.07-.43.18s.25.63.37.94c-2.55-.94-3-6.38-1.4-8.4A12.71,12.71,0,0,0,42,39,8.16,8.16,0,0,1,42.82,44.19Z"/><path class="cls-4" d="M39.86,63.38c-.16.43-.3.85-.47,1.27a21.82,21.82,0,0,0-1.31-12.38c0-.12-.22,0-.19.08a47,47,0,0,1,1.33,7.44c.12,2.05-.25,4.06-.33,6.1-.25.59-.52,1.16-.79,1.73a15.92,15.92,0,0,0-.52-6.22c-1.07-4.23-1.16-8.13-1.49-12.43a3.3,3.3,0,0,0-.41-1.6A12.82,12.82,0,0,0,37.92,50c3.54,3.68,3.09,8.73,1.87,13.28A.11.11,0,0,0,39.86,63.38Z"/><path class="cls-3" d="M47.58,88.45A6.4,6.4,0,0,1,43,84.32c-.27-.9-.1-1.07.8-.9a4.16,4.16,0,0,1,1.65.9,6.22,6.22,0,0,1,1,1,9.3,9.3,0,0,0,.91,1.63A13,13,0,0,0,47.58,88.45Z"/><path class="cls-3" d="M57.38,81.65a16.79,16.79,0,0,1-3.24,3.8c-.72.64-1.52,1.18-2.3,1.76l-1,.41c-.16.06-.16.32,0,.32-.18.15-.34.27-.5.42a2.14,2.14,0,0,1-.34-.09,4.85,4.85,0,0,0,.31-.65,9.14,9.14,0,0,0,2.32-3.21A6.62,6.62,0,0,1,57.38,81.65Z"/><path class="cls-3" d="M53,80.73a7.4,7.4,0,0,1-.78,3.32,9.16,9.16,0,0,1-1.62,2.42,2.11,2.11,0,0,0,0-.35.32.32,0,0,0-.55-.23c-.06.07-.11.14-.17.2a4.85,4.85,0,0,0,0-.66.27.27,0,0,0-.09-.2,9.87,9.87,0,0,0,0-2.24,10.67,10.67,0,0,1,2.41-4.56C52.58,78.05,52.94,80.52,53,80.73Z"/><path class="cls-3" d="M49.31,83.22a12.35,12.35,0,0,0-.26,2.63,4.22,4.22,0,0,0-.18.45A6.75,6.75,0,0,0,48.45,85a.24.24,0,0,0-.45.12,22.73,22.73,0,0,0,.49,2.43,9.72,9.72,0,0,1-.66-.76s0,0,0,0a5,5,0,0,0-1.37-2.32,14.75,14.75,0,0,1-1-3.88c-.06-.51-.1-2.51,1.15-1.88A5,5,0,0,1,49,81.53,6.86,6.86,0,0,1,49.31,83.22Z"/><path class="cls-4" d="M43,114.37c-.24,1.22-.45,2.44-.67,3.66a24.94,24.94,0,0,1,1.93-3.87c2.35-3.68,4.9-7.21,7.19-10.94a.15.15,0,0,1,.25.15c-1.91,3.95-4.9,7.2-7.14,11A37.35,37.35,0,0,0,42,119.92c-.15.92-.3,1.85-.44,2.78,2.93-3.74,5.59-7.65,8.37-11.51a81.25,81.25,0,0,0,4.68-7c.32-.56,2.38-5.25,2.51-5.55C50.18,101.1,45.47,107.44,43,114.37Zm7.71-7.55c-.86,1.64-2.21,3-3.19,4.56a.11.11,0,0,1-.2-.11,21.28,21.28,0,0,1,3.2-4.6C50.61,106.57,50.76,106.7,50.7,106.82Z"/><path class="cls-4" d="M32.74,109.55c0,4.88-.34,9.73-.57,14.6-.07-.18-.13-.37-.2-.55-.18-3.86-.86-7.69-.53-11.58,0-.12-.18-.12-.19,0a43.44,43.44,0,0,0,.13,10c-.36-1-.7-2-1-3a.16.16,0,0,0,0-.14,25.53,25.53,0,0,1-.32-11.4c.48-2.14,1.24-4.19,1.85-6.28C32.07,104,32.76,106.88,32.74,109.55Z"/><path class="cls-4" d="M25.21,87.5a38,38,0,0,0,.91,8.76l0,0a.81.81,0,0,1,0,.16,37.31,37.31,0,0,1-1.24-17s.85,2.65.86,2.71a22.57,22.57,0,0,1,.8,5.78,60.59,60.59,0,0,1-.33,7.37,57.35,57.35,0,0,1-.67-7.86C25.57,87.28,25.22,87.28,25.21,87.5Z"/><path class="cls-4" d="M31.66,125a35.88,35.88,0,0,0-7.38-9.41c-1.9-1.66-4.23-3.69-6.77-4.33-3.18-.79-1.24.47-.27,1.81,2.78,3.8,5.16,6.74,9.34,9.08,1,.55,2,1.12,3,1.77-.9-1.15-1.82-2.29-2.82-3.38-1.6-1.75-3.69-2.93-5.2-4.77-.11-.14.08-.33.19-.19,1.75,2,4.09,3.24,5.85,5.21A40.38,40.38,0,0,1,31,125a8.63,8.63,0,0,1,1.08,1.1ZM23,116.11c-.92-.74-1.75-1.58-2.64-2.35-.11-.09.05-.25.16-.16A19.69,19.69,0,0,1,23.11,116,.11.11,0,0,1,23,116.11Z"/><path class="cls-3" d="M16.76,102.67a3.74,3.74,0,0,0-1.35-.16.23.23,0,0,0-.19.13,9,9,0,0,0-1.79-.42c-.49-.19-1-.4-1.42-.61a7,7,0,0,1-1.61-1A1,1,0,0,1,11,98.68c1.32-.17,2.83,1.1,3.76,1.88.08.06.15.14.23.21a3.44,3.44,0,0,0,1.42,1.41l.24.26C16.66,102.51,16.7,102.6,16.76,102.67Z"/><path class="cls-3" d="M20.06,101.86l-.15-1.2a.21.21,0,0,0-.32-.16c.12-.72.18-1.45.23-2.19,0,0,0,0,0,0a4.67,4.67,0,0,0,1.26-2C21.5,98.09,20.71,100.05,20.06,101.86Z"/><path class="cls-3" d="M19.4,95c0,.85-.07,1.71-.12,2.56-.05,1-.19,2.05-.32,3.07a.1.1,0,0,1,0,0,.26.26,0,0,0-.43.18.22.22,0,0,0,0,.08A7.94,7.94,0,0,0,17.71,99a6,6,0,0,1,.61-3.82C18.72,94.47,19.45,93.73,19.4,95Z"/><path class="cls-3" d="M17.78,100.75l-.11-.12a.25.25,0,0,0-.42.17,5.1,5.1,0,0,0,0,1.1,6.79,6.79,0,0,0-.76-.52A9.83,9.83,0,0,0,14.94,100c-.2-.38-.36-.73-.48-1a10.19,10.19,0,0,1-1.17-3.67,10.29,10.29,0,0,1,3.35,2.91,6.9,6.9,0,0,1,.67,1.17A6.29,6.29,0,0,0,17.78,100.75Z"/><path class="cls-5" d="M50.7,106.82c-.86,1.64-2.21,3-3.19,4.56a.11.11,0,0,1-.2-.11,21.28,21.28,0,0,1,3.2-4.6C50.61,106.57,50.76,106.7,50.7,106.82Z"/><path class="cls-5" d="M23,116.11c-.92-.74-1.75-1.58-2.64-2.35-.11-.09.05-.25.16-.16A19.69,19.69,0,0,1,23.11,116,.11.11,0,0,1,23,116.11Z"/><path class="cls-5" d="M30.67,91.94c.19,1.69.95,4,2.66,4.78a2,2,0,0,0,.14.16c.07.07.24,0,.22-.1a.08.08,0,0,0,0,0,.15.15,0,0,0,0-.24h0a13.31,13.31,0,0,0-.88-2.3,6.34,6.34,0,0,0-1.64-2.43C31,91.63,30.64,91.69,30.67,91.94Zm1.67,2.72c.14.36.27.77.44,1.17a6.39,6.39,0,0,1-1.47-3.1A7.94,7.94,0,0,1,32.34,94.66Z"/><path class="cls-5" d="M11.05,47.55a22.39,22.39,0,0,0-3.59-2.14.15.15,0,1,0-.15.25c1.17.73,2.43,1.34,3.63,2C11,47.75,11.13,47.62,11.05,47.55Z"/><path class="cls-5" d="M35.11,15.83a3,3,0,0,1-1.41.68.22.22,0,0,0,0,.43,2.58,2.58,0,0,0,1.5-.39c.37-.22.93-.58,1-1a.18.18,0,0,0-.18-.23C35.67,15.3,35.4,15.61,35.11,15.83Z"/><path class="cls-5" d="M12.49,36.52a.18.18,0,0,0-.12-.3c-.3,0-.59,0-.9,0a2.36,2.36,0,0,1-.93-.48.16.16,0,0,0-.23.23C10.79,36.48,11.84,37.19,12.49,36.52Z"/><path class="cls-5" d="M60.67,53.21a2,2,0,0,1-.78-.84c-.08-.18-.4,0-.33.14a2.43,2.43,0,0,0,.7,1.05c.3.25.78.58,1.18.45a.18.18,0,0,0,.11-.25C61.35,53.47,61,53.39,60.67,53.21Z"/><path class="cls-5" d="M15.38,41a.12.12,0,0,1-.22-.06,20.22,20.22,0,0,0,.38-3.37,3,3,0,0,0-.37,2.5c.06.18-.24.31-.32.13a2.18,2.18,0,0,1-.09-.23,1,1,0,0,1-.06-.25,3.31,3.31,0,0,1,.85-2.8.2.2,0,0,1,.34.09A5.8,5.8,0,0,1,15.38,41Z"/><path class="cls-5" d="M31.78,22.13a.12.12,0,0,0,.23,0c0-.22.06-.52.08-.85a.14.14,0,0,0,0-.22l0,0c0-1.36-.19-3.13-1.59-3-.09,0-.19.08-.19.19A4.48,4.48,0,0,0,31.73,21C31.75,21.49,31.75,21.89,31.78,22.13Zm-1.06-3.69c.72.09.92,1.14,1,2.13A4.19,4.19,0,0,1,30.72,18.44Z"/><path class="cls-3" d="M19.39,32.5a5.51,5.51,0,0,1-1.83,1,13.57,13.57,0,0,1-2.84.79,12.28,12.28,0,0,0,3.45-2A10.48,10.48,0,0,0,19.43,31a.07.07,0,0,0,0,.05s0,.06.06.09C19.69,31.72,19.92,32,19.39,32.5Z"/><path class="cls-6" d="M41.64,44.5a6.29,6.29,0,0,1-2.8-1.62,3.41,3.41,0,0,1-.94-2,3.21,3.21,0,0,1,.64-2,.25.25,0,0,0,.11,0,14.57,14.57,0,0,0,1.14-1.22,3.11,3.11,0,0,0,.23-.28C39.3,39.73,39.81,43.24,41.64,44.5Z"/><path class="cls-7" d="M45.26,19c-.22.86-.49,1.71-.79,2.55a34.74,34.74,0,0,1-3.45,7c-2.26,3.64-5.64,6.38-8.26,9.73a.17.17,0,0,0-.13.09,9.5,9.5,0,0,1-1,1.2A50.31,50.31,0,0,1,37.35,28.8c2.69-4.05,6.36-7.34,8.17-11.9A4.11,4.11,0,0,1,45.26,19Z"/><path class="cls-4" d="M17.22,53.69c-1.95-2.06-4.74-3.06-7.23-4.3C6.09,47.46,3.2,44.24.17,41.23a.13.13,0,0,0-.1,0,0,0,0,0,1,0,0l0,0,0,0,0,0L.41,41s0,0,.06,0c4,.87,7.33,1.81,10.49,4.57a28.22,28.22,0,0,1,4.65,5.62c-4-4.68-8.61-8.76-14.94-10a.1.1,0,0,0-.06.2c4.76,1.81,8.6,3.8,12.27,7.39a54.77,54.77,0,0,1,4.3,4.82A.43.43,0,0,1,17.22,53.69Z"/><path class="cls-8" d="M62,62.26c-4.22,2.56-7.88,3.31-12.74,3.41a17.33,17.33,0,0,0-8.85,2.13l-.63.46c.54-.55,1.08-1.1,1.65-1.63a39.22,39.22,0,0,1,4.78-2,41.82,41.82,0,0,1,11.3-2.82c.17,0,.18-.27,0-.27-4.32-.16-8.23,1.43-12.17,3-1,.38-2,.74-2.94,1.17l0,0c2.18-1,4.14-2.42,6.26-3.58a16.77,16.77,0,0,1,8.2-1.6C58.34,60.52,65.31,60.26,62,62.26Z"/><path class="cls-3" d="M52.14,88a.18.18,0,0,0-.09-.25c1.58-.31,3.16-.86,4.72-1.33a10.35,10.35,0,0,1-4.88,2C52,88.31,52.06,88.16,52.14,88Z"/><path class="cls-3" d="M45.53,45.4q.26-.49.48-1a1.09,1.09,0,0,0,.16-.36.19.19,0,0,0,0-.13A8.25,8.25,0,0,0,49.57,38a4.51,4.51,0,0,1,.48,1.16h0C50.59,41.92,48,44.13,45.53,45.4Z"/><path class="cls-3" d="M18.09,104.65l-.12,0-.14.06c-2.3-.87-6.08-1-7.91.88-.28-.75-.71-1.78-.08-2.41s1.8-.52,2.58-.46c1.71.14,3,1,4.6,1.49a.17.17,0,0,0,.1,0C17.44,104.35,17.77,104.51,18.09,104.65Z"/><path class="cls-9" d="M71.71,52.9c-.85-1.83-3.15-2.3-5.38-2.17l.83-.36c1.18-.49,3.57-1.36,3.66-2.94.11-1.89-3-1.32-3.91-1a12.84,12.84,0,0,0-1.32.57,9.62,9.62,0,0,0,2.26-4.45.24.24,0,0,0-.22-.29c-2.12,0-3.49,1.37-4.46,3.07a8.31,8.31,0,0,0-2-6.42c-.09-.13-.32-.18-.4,0a14.67,14.67,0,0,0-1.21,4.94c-.22-.41-.45-.82-.65-1.25a.29.29,0,0,0-.28-.15.19.19,0,0,0-.15-.06h-.14a.27.27,0,0,0-.23.18c-.87,2.69-1.13,6.48,1.16,8.55a.43.43,0,0,0,0,.29,32.14,32.14,0,0,0-4.24,2.43,1,1,0,0,0-.4.14.17.17,0,0,0-.07.19c-1.12.77-2.21,1.6-3.28,2.48a3.55,3.55,0,0,0,.43-3.46.22.22,0,0,0-.34,0,4.18,4.18,0,0,0-1,3.87,4,4,0,0,0-.23.53.14.14,0,0,0,0,.11c-3.11,2.67-6,5.63-8.84,8.32a1.11,1.11,0,0,1-.19.09.11.11,0,0,0,0,.15l-1,1a6.65,6.65,0,0,0-1.19,1.18c-.27.27-.56.54-.82.82a36.46,36.46,0,0,0,3.06-8.31c.42-1.56.87-3.16,1.3-4.79A3.94,3.94,0,0,0,44,54.78a2.6,2.6,0,0,0,.71-1.9.24.24,0,0,0-.36-.21,4.83,4.83,0,0,0-1.53,1.52,40.32,40.32,0,0,0,1.09-6.73.32.32,0,0,0,.41-.1l.35-.53c.13-.21.25-.42.37-.64,3.14-.84,6.32-4.42,5.12-7.62-.07-.19-.37-.12-.31.08,1,3-1.79,5.43-4.38,6.78q.26-.49.48-1a1.34,1.34,0,0,0,.16-.36.19.19,0,0,0,0-.13,8.16,8.16,0,0,0,3.42-7.28.2.2,0,0,0-.25-.19,3.46,3.46,0,0,0-2.08,1.61,26,26,0,0,0,0-2.94c0-.12-.13-.25-.26-.2a4.51,4.51,0,0,0-2.75,3.16c-.38-.69-2.06-3.07-2.64-1.68a3.76,3.76,0,0,1-.14-.73.24.24,0,0,0-.4-.16c-2,1.69-1.86,7.26.54,8.92a6.31,6.31,0,0,1-2.79-1.62,3.36,3.36,0,0,1-.95-2,4.18,4.18,0,0,1,.83-2.34c0-.09,0-.22-.15-.15a3,3,0,0,0-.67,4A5.16,5.16,0,0,0,42,44.82a.08.08,0,0,0,.1-.07,3.31,3.31,0,0,0,.41.14,11.28,11.28,0,0,1,.34,1.75.27.27,0,0,0,.52.07v0a.21.21,0,0,0,.14-.07,68.62,68.62,0,0,1-2.46,13.11A16.67,16.67,0,0,0,41,54.79c-.57-3.77-3.84-5.36-5.49-8.51a.18.18,0,0,0-.32.13c.91,3.58.47,7.29.92,10.93.47,3.86,2.36,6.93,1.68,11-.46.94-.94,1.86-1.45,2.74A41.07,41.07,0,0,0,32,77.36q-.51-4.26-.91-8.52a5.68,5.68,0,0,0,1-4.25.24.24,0,0,0-.39-.1,3.9,3.9,0,0,0-.91,1.17c-.29-3.43-.53-6.86-.66-10.31,0-.85-.06-1.69-.07-2.54a6.32,6.32,0,0,0,1.75-4.64.22.22,0,0,0-.38-.16,5.31,5.31,0,0,0-1.37,2.19c0-1.12.06-2.24.11-3.36a.11.11,0,0,0,0-.06c.34-6.54,3.62-12.54,7.19-17.91,2.68-4.05,6.36-7.34,8.17-11.9a4.11,4.11,0,0,1-.26,2.13c-.23.86-.49,1.71-.79,2.55a34.78,34.78,0,0,1-3.46,7c-2.31,3.75-5.82,6.52-8.47,10-.1.13.11.28.23.17,6.64-6.4,12.87-13.92,13.56-23.51a.23.23,0,0,0-.39-.16c-3.07,3.66-6.91,6.54-9.83,10.33A26.68,26.68,0,0,0,31.3,38.75a.15.15,0,0,0,.12.16,23,23,0,0,0-.89,2.85C31,36,31.77,30.17,32.46,24.37a7.26,7.26,0,0,0,1.87-3.76c0-.18-.2-.26-.33-.19a3.14,3.14,0,0,0-1.22,1.18q.24-2.22.45-4.44a.19.19,0,0,0,.1-.21l-.06-.23,0-.41a4,4,0,0,0,2.6-2.84l.24-.07c2.85,2.19,6.85-.48,10-.15a.26.26,0,0,0,.26-.33c-.38-2-2.49-2.45-4.26-2.34,1.68-1.24,2.51-3,3.53-4.8a.26.26,0,0,0-.22-.39c-1.73-.12-3.58-.17-4.91,1a7.21,7.21,0,0,0,.22-3.52.17.17,0,0,0-.25-.1l-.25.19v0c.13-.65.48-.76.44-1.26a.22.22,0,0,0-.18-.23c-2-.5-3.36.86-4.2,2.53-.2-1.25-.56-2.48-.75-3.75a.25.25,0,0,0-.3-.17c-2.26.61-2.8,2.8-2.85,4.9A15.41,15.41,0,0,0,29.29.22a.24.24,0,0,0-.39.1,10.41,10.41,0,0,0-.22,6.82,14.15,14.15,0,0,0-4-2.76.18.18,0,0,0-.24.25c1.13,2.22,1.14,4.71,2.61,6.8a9.35,9.35,0,0,0,3.18,2.43,3.65,3.65,0,0,0,.75,1.66,2.52,2.52,0,0,0,1.88,1v0c-.55,4.12-1.14,8.23-1.69,12.34a18.77,18.77,0,0,1-.79-3.12c.3.79.32,1.64.6,2.48a.13.13,0,0,0,.25,0,5.36,5.36,0,0,0-.92-3.43.21.21,0,0,0-.39.11,9.13,9.13,0,0,0,1.17,4.64c-.57,4.27-1.07,8.54-1.37,12.82a1.52,1.52,0,0,0-1.11-.67.25.25,0,0,0-.24.25,9.54,9.54,0,0,0,.87,3.16,2.85,2.85,0,0,0,.28.59c-.1,2.14-.15,4.28-.13,6.43,0,2,.09,3.92.18,5.89a6.1,6.1,0,0,0-1.34-2.12c-.14-.13-.44,0-.41.17a13.26,13.26,0,0,0,1.87,5.37s.05,0,.07,0c.37,5.69,1,11.38,1.68,17l-.39.77c-1.09-5.13-3.61-10-6.17-14.57a.17.17,0,0,0,0-.14A5.68,5.68,0,0,0,25,62.42a3.28,3.28,0,0,0-.83-2.25.26.26,0,0,0-.43.12,5.63,5.63,0,0,0-.14,2.2L23,61.3c-1.24-2.28-2.35-4.58-3.35-6.91l.06,0c1-.89.95-3,.82-4.25,0-.18-.25-.34-.39-.17a5.09,5.09,0,0,0-1,3.34,103.11,103.11,0,0,1-5.29-17h0c.09-.16.19-.32.27-.49a2,2,0,0,0,.7-1.07,12.53,12.53,0,0,0,4-1.2c.68-.34,2.43-1.84,1-2.49-.11,0-.25,0-.21.16.2.6.46.85-.1,1.4a5.42,5.42,0,0,1-1.83,1,13.31,13.31,0,0,1-2.83.79,12.18,12.18,0,0,0,3.45-2,7.36,7.36,0,0,0,2.91-4.79c0-.13-.11-.21-.22-.22A3.91,3.91,0,0,0,17.22,29a8.36,8.36,0,0,0,.58-4.86.18.18,0,0,0-.3-.08,17,17,0,0,0-2.43,3.29,10.89,10.89,0,0,0-1.56-4.65.21.21,0,0,0-.32,0,5.92,5.92,0,0,0-1.56,4.76c-.85-1.21-1.84-2.35-2.53-3.35a.23.23,0,0,0-.36,0c-1.56,1.87-1.24,4.56.08,6.54A12.66,12.66,0,0,0,4.89,29.5a.25.25,0,0,0-.24.31c1,3.65,4.5,5.23,8,5.62,0,0,.08,0,.11,0l.13,0c.13,0,.26-.14.14-.25a4.8,4.8,0,0,1-.63-.75l0-.14a7.1,7.1,0,0,1,.75.8l0,0v0a.3.3,0,0,0,.29.31c0,.09,0,.18.05.27l-.08.17,0,0h0v0a.29.29,0,0,0,.25.42c.58,2.76,1.23,5.49,2,8.19l0,0a2.17,2.17,0,0,1-2.16-2,5.09,5.09,0,0,1,.9.77,7.55,7.55,0,0,0,.9,1c.12.09.27-.06.24-.18a3.27,3.27,0,0,0-.81-1.2,5,5,0,0,0-1.31-1,.23.23,0,0,0-.33.13,2.37,2.37,0,0,0,2.57,2.7.15.15,0,0,0,.11-.08,75.19,75.19,0,0,0,4.49,12.09c-.93-1.21-1.88-2.43-2.85-3.64C13.68,46.93,8.41,41,.59,40.83c-.15,0-.19.24,0,.27,4,.87,7.34,1.81,10.49,4.57A27.71,27.71,0,0,1,15.7,51.3c-4-4.69-8.61-8.77-14.94-10a.1.1,0,0,0-.06.2A33.24,33.24,0,0,1,13,48.87a56.42,56.42,0,0,1,4.3,4.82.43.43,0,0,1,0,.07c-1.95-2-4.74-3.06-7.24-4.3C6.17,47.53,3.29,44.32.26,41.3c-.11-.11-.27.05-.17.17a46.68,46.68,0,0,0,7.19,6.79c3.19,2.33,7,3.5,10.12,6a.14.14,0,0,0,.2,0l.07.12a.1.1,0,0,0,.13,0L20.67,58c2.35,4.68,4.85,9.13,6.92,13.79a4.59,4.59,0,0,0-3-1.68.26.26,0,0,0-.22.39,4.16,4.16,0,0,0,3.41,2.25.15.15,0,0,0,.15-.18h0a58.24,58.24,0,0,1,2.71,7.58A43,43,0,0,0,29,84.34a3.65,3.65,0,0,0-.9-3.38.25.25,0,0,0-.41.11,4.4,4.4,0,0,0,.92,3.77l0,.2a.1.1,0,0,0,.08.08,47.65,47.65,0,0,0-1.39,5.38c-.13.65-.24,1.3-.34,2q.16-2.22.15-4.47c0-3.52-1.26-6.56-1.87-10a.26.26,0,0,0-.5,0c-1.65,6.83-.67,13.78,1.73,20.3a64.12,64.12,0,0,0,2,16.77,51,51,0,0,0-8.07-10.24c-.07-.76-.17-1.52-.26-2.28.82-2.27,2.14-4.75,1.16-7.09a.22.22,0,0,0-.42,0c-.29.7-.67,1.34-1,2,.05-1.27.05-2.54.1-3.74,0-.15-.17-.31-.32-.25a4.53,4.53,0,0,0-2.53,4.59,11.35,11.35,0,0,0-3.94-3.28.22.22,0,0,0-.33.18,9.84,9.84,0,0,0,1.37,4.49L14,99.35c-.93-.66-2.93-1.85-4-.83-1.59,1.45.11,2.76,2.09,3.59-.31,0-.6,0-.85,0-2.21.2-2.4,2.06-1.59,3.78.08.19.35.15.45,0,1.51-2.16,5.59-1.35,7.77-1a.12.12,0,0,0,.07-.22c-2.13-.9-6.18-1.29-8,.58a1.91,1.91,0,0,1,.13-2.13c.58-.59,1.72-.5,2.46-.44,1.62.13,2.87.94,4.35,1.42a.16.16,0,0,0,.1,0,5.75,5.75,0,0,0,2.28.81l0,.09a.28.28,0,0,0,.47.11.29.29,0,0,0,.21.09c0,.11,0,.23.07.34s.45.19.42-.06a.49.49,0,0,0,0-.12c1.51,1.7,3,3.46,4.33,5.26,1.67,2.21,2.88,4.67,4.36,7l.15.55c.31,1.08.66,2.14,1,3.19-3.61-5.58-9.5-11.14-15.46-11a.27.27,0,0,0-.19.46c2.65,2.82,4.43,6.74,7.54,9.14,2.56,2,5.82,3.12,8.33,5.15.47.6.94,1.2,1.42,1.79.08.09.2,0,.16-.12l-.19-.33a8.17,8.17,0,0,1,.71.91c1,2.32,2,4.63,2.91,6.95L35,134A13.14,13.14,0,0,0,33.38,132a4.83,4.83,0,0,0-2.24-1.65c-.19-.05-.44.15-.36.36a7.73,7.73,0,0,0,5,4.22A54.39,54.39,0,0,1,39.08,146c0,.66-.07,1.31-.11,2-.39-1.64-1.18-3.27-2.5-3.83a.3.3,0,0,0-.43.33c.31,2.09.83,4.88,2.73,6.15a111.87,111.87,0,0,1-3.46,19.21c-.06.24.28.32.37.1a61.38,61.38,0,0,0,3.8-14.34c2-1.65,4-4.78,3.62-7.32,0-.18-.21-.36-.4-.23-1.58,1.09-2.08,2.82-2.84,4.43a93.29,93.29,0,0,0,.35-12.75c1.45-1.68,1.94-4.1,2.32-6.2,0-.21-.17-.43-.38-.3a11.92,11.92,0,0,0-2.1,3.32c0-.31,0-.62,0-.93q.53-6,1.4-11.89a106.72,106.72,0,0,0,7.49-10.19c3.49-5,6.88-9.84,9.42-15.4a.28.28,0,0,0-.31-.4c-6.93,2-11.81,7.73-14.57,14.31.58-2.9,1.23-5.79,1.92-8.68a.13.13,0,0,0,0,.06.11.11,0,0,0,.22,0,7.56,7.56,0,0,0,.16-1.74c.41-1.68.85-3.35,1.29-5a7.81,7.81,0,0,0,3.51-3.52.26.26,0,0,0-.29-.37,4.94,4.94,0,0,0-2.6,1.63c.32-1.17.64-2.35,1-3.52h0A21.05,21.05,0,0,0,51,89c-.08.12-.16.23-.23.35s.06.23.16.17a2.71,2.71,0,0,0,.62-.6c2.29.1,5.1-1.76,6.56-2.93a.25.25,0,0,0-.18-.42,15,15,0,0,0-4.27.92,18.25,18.25,0,0,0,4.33-5,.23.23,0,0,0-.19-.34A6.23,6.23,0,0,0,53,83.44a7.17,7.17,0,0,0-.39-5.61.25.25,0,0,0-.38,0A9.39,9.39,0,0,0,49.62,82a6.64,6.64,0,0,0-1.12-2.39c-.41-.54-2.57-2.52-3.18-1.21-.8,1.72-.16,3.74.45,5.43A3.92,3.92,0,0,0,42.49,83a.28.28,0,0,0-.2.25,6.11,6.11,0,0,0,5.42,5.7c.16.52.34,1,.54,1.54,0,0,0,0,.06.07v.06a.31.31,0,0,0,0,.16c-.51,1.6-1,3.21-1.51,4.84l0,0a.2.2,0,0,0,0,.11c-.06.2-.12.41-.19.62s-.43.31-.64.48,0,.31.15.27l.31-.11c-.29,1-.58,1.92-.86,2.88a6.33,6.33,0,0,0-1.27-2.66.22.22,0,0,0-.36.09,7.61,7.61,0,0,0,1,4.74q-.75,2.7-1.42,5.43a7,7,0,0,0-1.14-3.71c-.08-.12-.3-.16-.37,0-.73,1.55,0,3.91,1.1,5.22,0,0,0,.07,0,.1-1.11,4.64-2,9.32-2.72,14a23.71,23.71,0,0,1-1.27,2.58.18.18,0,0,0,.31.17l.27-.52a.17.17,0,0,0,.26,0l.12-.12c-.21,1.65-.39,3.31-.53,5-.62-5.93-1.54-11.87-2.49-17.71h0a.22.22,0,0,0,0-.08c1.24-1.76,2.08-4.43,1.31-6.37-.07-.16-.31-.29-.45-.12a7.59,7.59,0,0,0-1.49,3.1c-.69-4.24-1.37-8.42-1.92-12.5-.31-2.25-.61-4.51-.91-6.76a7.35,7.35,0,0,0,1.59-4.84c0-.21-.29-.38-.46-.19a7.81,7.81,0,0,0-1.47,2.57c-.37-2.85-.74-5.7-1.09-8.55a43.17,43.17,0,0,1,3.52-5.61.19.19,0,0,0,.18,0,3.65,3.65,0,0,1,2.48-.5,3.79,3.79,0,0,1-1,.91,4.19,4.19,0,0,1-1.87.39c-.17,0-.29.26-.1.36,1.35.65,2.94-.65,3.63-1.71a.25.25,0,0,0-.15-.36,4.14,4.14,0,0,0-2.73.33,44.33,44.33,0,0,1,3.23-3.77c.67-.7,1.36-1.36,2.06-2a39.08,39.08,0,0,1,4.77-2,42.35,42.35,0,0,1,11.31-2.82c.17,0,.18-.27,0-.27-4.32-.15-8.23,1.43-12.17,3-1,.38-2,.74-2.94,1.17l0,0c2.17-1,4.13-2.42,6.25-3.58,2.51-1.38,5.41-1.59,8.21-1.59,1.43,0,8.39-.27,5.09,1.73-4.21,2.56-7.87,3.31-12.74,3.41a17.29,17.29,0,0,0-8.84,2.13c-.12.07,0,.28.09.23,4.67-1.84,9.2-1.67,14.1-2.09,3.67-.31,6.86-2.88,10-4.58a.28.28,0,0,0-.06-.51c-4.09-.67-8.08-1.19-12.2-.5-3.21.54-5.89,2.57-8.66,4.26,1.76-1.58,3.55-3.15,5.27-4.77s3.39-3.09,5.18-4.49a5.06,5.06,0,0,0,2.33.42c.44-.07,1.21-.47,1.11-1s-.72-.67-1.11-.79l-.35-.09c1-.74,2.13-1.44,3.26-2.09a.32.32,0,0,0,.25.12h.25a3.33,3.33,0,0,0,.92.47.2.2,0,0,0,.23-.07l.12,0,.15,0c1.73,3,4.43,6,8.16,6a.26.26,0,0,0,.22-.39,9.09,9.09,0,0,0-2.49-3.65,7.29,7.29,0,0,0,4.51-1.18A.23.23,0,0,0,71.71,52.9ZM43,54.78a2.39,2.39,0,0,1,.13-.21,6.33,6.33,0,0,1,.47-.56,5.45,5.45,0,0,1,.64-.63,2.62,2.62,0,0,1-.66,1.19,2.49,2.49,0,0,1-.45.41.14.14,0,0,0-.14-.17h0Zm4.17-15.89q.23-.41.48-.78s1.52-1.57,1.51-1a8,8,0,0,1-.82,3.33,7.51,7.51,0,0,1-2.63,3A9.32,9.32,0,0,0,47.15,38.89Zm-2.73-.78c.23-.43.54-1,.4-.73l.27-.47a2.5,2.5,0,0,1,1.7-1.3,28.18,28.18,0,0,1-.09,2.9,8.08,8.08,0,0,1-2.2,5.21c0-.09,0-.18,0-.28a5.73,5.73,0,0,0-.1-4.87l.06-.34A.12.12,0,0,0,44.42,38.11Zm-1.61,6.08a5.05,5.05,0,0,0-.33-.71c-.12-.23-.52-.07-.42.18l.37.94c-2.56-.94-3-6.38-1.4-8.4A12.54,12.54,0,0,0,42,39,8.15,8.15,0,0,1,42.81,44.19Zm.52.66,0,0a.14.14,0,0,0,0,.18,2.68,2.68,0,0,1-.07.27c-.05-.13-.09-.27-.15-.4a.11.11,0,0,0-.06-.19s0,0,0,0c1.67-2.44-.56-5.36-1.34-7.93a.1.1,0,0,0,.07-.07c.41-1.32,2.47,2.43,2.57,2.69a5,5,0,0,1,0,3.24.29.29,0,0,0-.31.19A13.47,13.47,0,0,0,43.33,44.85ZM31.38,48.74a6,6,0,0,1-.51,2,10,10,0,0,1-.69,1.19A5.46,5.46,0,0,1,31.38,48.74Zm4.45-21.93c2.48-4,6.41-6.82,9.57-10.23C41.83,24.08,35,30.31,31.78,38A30.16,30.16,0,0,1,35.83,26.81Zm-1-13.35A4.86,4.86,0,0,0,34,14.72a8.55,8.55,0,0,1,.8-1.67l.13-.05C34.89,13.15,34.87,13.31,34.83,13.46Zm9.44-2.2c.19.05,2.47,1.53,1.35,1.39a6.7,6.7,0,0,0-1.67.1c-2.61.34-4.68,1.27-7.2.46a18.91,18.91,0,0,0,5-2.34.13.13,0,0,0,.14.07A8.12,8.12,0,0,1,44.27,11.26Zm.22-5.43c.77,0,.47.15.13.74s-.75,1.33-1.18,2C41.79,11,38.69,11.88,36,13h0l-.05,0a.32.32,0,0,0-.39-.18.65.65,0,0,0,0-.14A11.2,11.2,0,0,0,40.36,7C41.46,5.82,43,5.77,44.49,5.83Zm-4.27-2.5c.52-.23.07,2.27,0,2.46a10.47,10.47,0,0,1-1.41,3A11.24,11.24,0,0,1,35.61,12a16.37,16.37,0,0,0,3.54-4.07A6.13,6.13,0,0,0,40,5.34C40.06,4.67,40.12,4,40.22,3.33Zm-3.85,3.3a7.15,7.15,0,0,0,.05-2C37.09,3.5,37.67,2.34,39,1.79c1.62-.67.66,1.74.59,2.25a9.37,9.37,0,0,1-2.1,5.34A21.63,21.63,0,0,1,35,11.8h0c-.28.24-.54.5-.8.76A19,19,0,0,0,36.37,6.63ZM28.61,4.91a10.4,10.4,0,0,1,.18-2.55c.27-1.58.45-1.61,1.56-.17,2.31,3,2.6,6.38,2.2,10a4.43,4.43,0,0,0-.77-1.32.24.24,0,0,0-.4.17c0,.09,0,.19,0,.28a10.68,10.68,0,0,0-2.05-3.46A8.73,8.73,0,0,1,28.61,4.91Zm1.78,7.94a.16.16,0,0,0-.32,0c0,.14,0,.28,0,.42a20.31,20.31,0,0,1-2.35-1.66,7.68,7.68,0,0,1-2-4C25.64,7.19,25.32,5.16,25,5A14.67,14.67,0,0,1,29.1,8.31a6.12,6.12,0,0,1,.39.5l.29.43a13.85,13.85,0,0,1,1.47,3.58.22.22,0,0,0-.11.22c.09.33.17.72.28,1.12-.31-.23-.63-.45-1-.66A4.62,4.62,0,0,1,30.39,12.85Zm2.16,3.09-.23-.07a2.58,2.58,0,0,1-1-.71,3.29,3.29,0,0,1-.64-1l.93.54a2.11,2.11,0,0,0,1,1.26Zm.08-3.49a.2.2,0,0,0,.28-.11,10.28,10.28,0,0,0-.16-6.6,17.88,17.88,0,0,1,.37-2.81c0-.1,1.94-3.18,2.07-1.92a14.85,14.85,0,0,0,.34,1.58c.81,3.49-.28,6.21-1.51,9.24,0-.06,0-.12,0-.17a.32.32,0,0,0-.61,0c-.16.73-.3,1.47-.43,2.21A9.76,9.76,0,0,0,32.63,12.45Zm0,10a5.1,5.1,0,0,1,1.11-1.37,10,10,0,0,1-1.22,2.33C32.61,23.09,32.64,22.77,32.68,22.45Zm-4.3,34.43a9,9,0,0,1,1.06,3.2A14.48,14.48,0,0,1,28.38,56.88Zm1.15-12.23-.18-.51a10.14,10.14,0,0,1-.51-1.89c.49.16.68.64.76,1.19S29.55,44.25,29.53,44.65Zm1.37,22a4.52,4.52,0,0,1,.83-1.5A5.42,5.42,0,0,1,31,68C31,67.52,30.94,67.08,30.9,66.64ZM20.17,27.71c1.07-.08-.05,1.79-.32,2.23a8.67,8.67,0,0,1-2.21,2.27,11.6,11.6,0,0,1-2.75,1.47,6.76,6.76,0,0,0,.11-.89C16.75,31,17.31,27.93,20.17,27.71Zm-5.09-.06a.14.14,0,0,0,.18,0c.33-.56,2.22-3.79,2.36-2.15a7.21,7.21,0,0,1-.89,3.72,11.17,11.17,0,0,1-2,2.65.33.33,0,0,0-.3.12c0-.21,0-.43,0-.64A8.1,8.1,0,0,0,15.08,27.65ZM5.24,30a9.27,9.27,0,0,1,5.83,3,.29.29,0,0,0-.07.36,8.79,8.79,0,0,0,1.25,1.71C9.29,34.49,6.28,33,5.24,30Zm7.22,2.25a2.41,2.41,0,0,0,0,1.1.78.78,0,0,1,0,.14c-.11-.08-.23-.17-.36-.25a4.64,4.64,0,0,0-.25-.42.14.14,0,0,0-.07-.2l-.14-.06A6.69,6.69,0,0,0,9.65,31a8.26,8.26,0,0,1-1.13-2,6.63,6.63,0,0,1-.39-2.12c0-.53.35-2.86,1.08-1.86a39.68,39.68,0,0,1,2.63,3.66,7.6,7.6,0,0,0,.78,1.91,5.06,5.06,0,0,1,.11,1.46A.33.33,0,0,0,12.46,32.29Zm.83.39-.07-.15a4.14,4.14,0,0,0,.08-1.21.09.09,0,0,0,0-.11s0,0,0,0a7.39,7.39,0,0,0-1.19-3A7.08,7.08,0,0,1,12.64,24c1.06-2.19,2,2.55,2,3.35a7.81,7.81,0,0,1-.5,3.33.3.3,0,0,0-.3.14A6.36,6.36,0,0,0,13.29,32.68ZM20,50.88A9.81,9.81,0,0,1,20,52.31a7.65,7.65,0,0,1-.36,1.24A5.86,5.86,0,0,1,20,50.88Zm4.34,12.66A5.29,5.29,0,0,1,24.14,61,4.13,4.13,0,0,1,24.38,63.54Zm.7,7.13a8,8,0,0,1,2.27,1.57A4.84,4.84,0,0,1,25.08,70.67Zm3,11a3.88,3.88,0,0,1,.44,2.18A4.45,4.45,0,0,1,28.05,81.69ZM26.23,95.36a57.34,57.34,0,0,1-.67-7.85c0-.23-.34-.23-.35,0a37.38,37.38,0,0,0,.91,8.75s0,0,0,0,0,.11,0,.16a37.17,37.17,0,0,1-1.24-17s.84,2.65.86,2.71A22.13,22.13,0,0,1,26.55,88,58.63,58.63,0,0,1,26.23,95.36Zm-7.91-.18c.39-.71,1.13-1.45,1.08-.14,0,.85-.07,1.71-.12,2.56-.06,1-.2,2.05-.33,3.07l0,0c-.15-.17-.41,0-.43.18a.22.22,0,0,1,0,.08A7.91,7.91,0,0,0,17.71,99,6,6,0,0,1,18.32,95.18Zm.14,7.71a.14.14,0,0,0-.11.06c-.14-.17-.29-.34-.45-.5a4,4,0,0,1-.18-1,4.73,4.73,0,0,1,.49.71C18.29,102.38,18.37,102.63,18.46,102.89Zm-5.17-7.52a10.32,10.32,0,0,1,3.35,2.92,7.11,7.11,0,0,1,.67,1.16,6.26,6.26,0,0,0,.46,1.3l-.11-.12a.25.25,0,0,0-.42.17,4.54,4.54,0,0,0,0,1.1,6.92,6.92,0,0,0-.77-.52A9.77,9.77,0,0,0,14.94,100c-.2-.38-.36-.73-.48-1A10,10,0,0,1,13.29,95.37Zm1.92,7.27a8.87,8.87,0,0,0-1.78-.42c-.49-.19-1-.4-1.43-.61a6.86,6.86,0,0,1-1.6-1,1,1,0,0,1,.54-1.92c1.33-.17,2.83,1.1,3.76,1.88l.24.21a3.46,3.46,0,0,0,1.42,1.42l.24.25c0,.07.1.16.16.23a3.77,3.77,0,0,0-1.35-.16A.27.27,0,0,0,15.21,102.64Zm.94.38a4.5,4.5,0,0,1,1.45.52,3.7,3.7,0,0,0,1,.65.25.25,0,0,0,.19,0,.28.28,0,0,0,.2,0c0,.13.09.27.13.41A9.61,9.61,0,0,1,16.15,103Zm3.41,1q-.09-.3-.21-.6c-.09-.32-.17-.64-.23-1,0-.11.07-.22.11-.34a5.64,5.64,0,0,1,.35,1.28s0,0,0,0a.13.13,0,0,0,.05.14,5.14,5.14,0,0,1,.06.55Zm.35-3.31a.22.22,0,0,0-.33-.15,20.25,20.25,0,0,0,.23-2.2h0a4.58,4.58,0,0,0,1.26-2c.41,1.81-.39,3.77-1,5.58C20,101.46,20,101.06,19.91,100.66Zm11.75,30.48a6.72,6.72,0,0,1,1.83,1.92A6.1,6.1,0,0,1,31.66,131.14Zm5,13.86c1.37,1,1.42,3.2,1.88,4.89A9.75,9.75,0,0,1,36.7,145Zm5-10.39a20.89,20.89,0,0,1-1.57,4.21c0-.33,0-.67,0-1A21.88,21.88,0,0,1,41.74,134.61Zm15-48.18a10.27,10.27,0,0,1-4.87,2l.25-.44a.2.2,0,0,0-.09-.26C53.63,87.45,55.21,86.9,56.76,86.43Zm.61-4.78a16.74,16.74,0,0,1-3.23,3.8c-.73.64-1.53,1.19-2.3,1.76l-1,.41c-.15.06-.15.33,0,.33l-.51.41a2,2,0,0,1-.33-.09,6.49,6.49,0,0,0,.31-.65,9,9,0,0,0,2.31-3.21A6.64,6.64,0,0,1,57.37,81.65Zm-5.15-3.22C52.61,78,53,81,53,80.72a7.27,7.27,0,0,1-.77,3.33,9.16,9.16,0,0,1-1.62,2.42c0-.12,0-.23,0-.35a.33.33,0,0,0-.55-.23l-.17.21c0-.23,0-.45,0-.67a.31.31,0,0,0-.09-.2,10.48,10.48,0,0,0,0-2.24A10.62,10.62,0,0,1,52.22,78.43ZM43,84.32c-.28-.9-.1-1.07.8-.89a4.09,4.09,0,0,1,1.65.89,6.7,6.7,0,0,1,1,1,9.25,9.25,0,0,0,.9,1.63,13,13,0,0,0,.33,1.53A6.38,6.38,0,0,1,43,84.32Zm3.52.13a14,14,0,0,1-1-3.87c-.07-.52-.1-2.52,1.14-1.89A5,5,0,0,1,49,81.53a6.52,6.52,0,0,1,.35,1.69,12.33,12.33,0,0,0-.25,2.63c-.07.15-.13.3-.19.45A5.56,5.56,0,0,0,48.44,85a.24.24,0,0,0-.44.12c.1.82.3,1.62.48,2.43a7.89,7.89,0,0,1-.65-.76s0,0,0,0A5,5,0,0,0,46.47,84.45ZM48,88.91h.21l0,0c.1.33.19.65.3,1l-.12.37C48.3,89.79,48.16,89.35,48,88.91Zm-.75,6.84.08,0a.18.18,0,0,0,0-.27,6.63,6.63,0,0,1,2.39-2,8.41,8.41,0,0,1-2.53,2.37S47.27,95.78,47.28,95.75Zm-3,2.22a6.4,6.4,0,0,1,.8,2.82A8.12,8.12,0,0,1,44.25,98Zm-2,6.4a8.5,8.5,0,0,1,.8,3.78A5.71,5.71,0,0,1,42.2,104.37ZM42,119.92a36.81,36.81,0,0,1,2.54-5.58c2.23-3.77,5.22-7,7.14-11a.15.15,0,0,0-.25-.15c-2.29,3.73-4.84,7.26-7.19,10.94A23.37,23.37,0,0,0,42.32,118c.21-1.23.43-2.45.66-3.67,2.48-6.93,7.2-13.28,14.15-15.79,0,0-2.18,5-2.52,5.56a78.91,78.91,0,0,1-4.67,7c-2.79,3.86-5.44,7.78-8.38,11.51C41.7,121.77,41.86,120.84,42,119.92Zm-2.28,33.8c.91-1.62,1.32-3.76,2.81-4.88-.22,2.24-1.61,3.95-2.92,5.7C39.66,154.27,39.69,154,39.73,153.72Zm-12.36-52a21,21,0,0,1,1.44-3.49c0,1.29-.84,2.46-1.43,3.66A1,1,0,0,0,27.37,101.75ZM31,125a40.38,40.38,0,0,0-3.45-4.26c-1.77-2-4.11-3.25-5.85-5.21-.12-.13-.3.06-.19.19,1.5,1.85,3.6,3,5.2,4.77,1,1.09,1.91,2.23,2.82,3.38-1-.65-2-1.22-3-1.77-4.17-2.34-6.55-5.28-9.33-9.08-1-1.34-2.91-2.6.27-1.81,2.54.64,4.87,2.67,6.77,4.34a35.67,35.67,0,0,1,7.38,9.4c.15.39.3.77.46,1.15A9.35,9.35,0,0,0,31,125Zm.93-1.4c-.19-3.86-.87-7.69-.53-11.58,0-.12-.18-.12-.2,0a44.59,44.59,0,0,0,.13,10c-.35-1-.69-2-1-3a.16.16,0,0,0,0-.15,25.63,25.63,0,0,1-.31-11.39c.48-2.15,1.24-4.2,1.84-6.29.14,2.77.83,5.66.81,8.34,0,4.88-.34,9.72-.57,14.59C32.1,124,32,123.78,32,123.6ZM38,106.66c.4,1.69-.48,3.16-1.18,4.67A6.69,6.69,0,0,1,38,106.66Zm-3.41-21a7.09,7.09,0,0,1-.44,1.73,15.91,15.91,0,0,1-.68,1.45l0-.18A6.51,6.51,0,0,1,34.62,85.66ZM33,90.28c1,7.51,2.23,15,3.34,22.49a0,0,0,0,1,0,0,.23.23,0,0,0,0,.16q.65,4.31,1.22,8.62a5.43,5.43,0,0,0-2.67-2.48.26.26,0,0,0-.33.26,4.23,4.23,0,0,0,3.22,4c.31,2.37.59,4.73.84,7.11a107.91,107.91,0,0,1,.58,11c-1.45-5.87-4.7-11.55-6.87-16.93h0a.14.14,0,0,0,.15-.1c.83-3.4.73-6.93.77-10.41,0-3.88.27-7.77-.39-11.62a5,5,0,0,0-.5-2.65c.15-.62.29-1.24.38-1.88,0-.34-.44-.5-.52-.15a9.48,9.48,0,0,0-.22,1.4h0c-.19.93-.42,1.85-.7,2.77-.64,2.32-1.45,4.56-2,6.92a17.77,17.77,0,0,0,0,6.3,67.42,67.42,0,0,1-1.83-11.89,16.33,16.33,0,0,0,1.36-2.79,4.52,4.52,0,0,0,.46-3,.28.28,0,0,0-.51-.06,10.56,10.56,0,0,0-1.41,2.83c0-1.36,0-2.72.07-4.08a42.3,42.3,0,0,1,3.54-14.81c.09.38.18.76.26,1.14a.14.14,0,0,0,.28,0c-.05-.6-.13-1.19-.23-1.77.11-.24.21-.47.32-.7C32,83.38,32.48,86.83,33,90.28Zm4.58,32.62a4.09,4.09,0,0,1-2.4-3.08A6.85,6.85,0,0,1,37.53,122.9Zm0-61.5c-1.06-4.23-1.15-8.13-1.49-12.43a3.09,3.09,0,0,0-.41-1.6A12.87,12.87,0,0,0,37.92,50c3.54,3.68,3.09,8.73,1.86,13.28a.12.12,0,0,0,.07.15c-.15.43-.3.85-.46,1.27a21.83,21.83,0,0,0-1.31-12.38c0-.12-.22,0-.2.08a44.8,44.8,0,0,1,1.33,7.44,59.05,59.05,0,0,1-.32,6.1c-.25.59-.52,1.16-.79,1.73A15.75,15.75,0,0,0,37.57,61.4ZM51.5,53.7c.34,1-.3,1.94-.85,2.83A3.9,3.9,0,0,1,51.5,53.7ZM57,54.88c.09.08-.08.15-.21.22a1.44,1.44,0,0,1-.85.23,9.71,9.71,0,0,1-1.42-.2l1-.72.37.05A2.5,2.5,0,0,1,57,54.88Zm2.73-4a.33.33,0,0,0-.2,0A6,6,0,0,1,58,46.62a11.45,11.45,0,0,1,.22-2.48c0-.26.11-.51.18-.76a1.25,1.25,0,0,0,0-.44s0,.05,0,.06a5.81,5.81,0,0,0,.47.89,3.25,3.25,0,0,0,.69.74c-.09,2.06.08,4.16.18,6.24Zm6.67-3.71a4.82,4.82,0,0,1,3.15-.56c1.52.37.53,1.6-.17,2.1-1.84,1.33-4,1.8-6.13,2.46a.29.29,0,0,0-.29-.16c-.33,0-.67.08-1,.12a3.44,3.44,0,0,0,1.28-1.26.33.33,0,0,0-.22-.48,7.37,7.37,0,0,1,.58-.52l.38-.29A15.86,15.86,0,0,1,66.36,47.16Zm-3-1.34a8.44,8.44,0,0,1,1.51-2c.22-.21,2.54-1.49,2.41-.87-.72,3.24-3.18,4.82-5.57,6.66A35.82,35.82,0,0,1,63.39,45.82ZM60,50.24a47.42,47.42,0,0,1,.2-8.17s.71-2.74,1.12-2.16a10.17,10.17,0,0,1,1.35,2.77c.57,1.74-.1,3.33-.9,4.83a.23.23,0,0,0-.29.05,6,6,0,0,0-1.36,2.6Zm.56.77a.12.12,0,0,0-.12-.08.8.8,0,0,1,0-.15,10,10,0,0,0,1.3-.34A4.63,4.63,0,0,1,60.56,51ZM69,57.86c-3.22-.22-5.62-2.79-7.35-5.39l.29,0a7.51,7.51,0,0,0,4.55,1.82A13.26,13.26,0,0,1,69,57.86ZM66.2,53.6a9.77,9.77,0,0,1-3.65-1.36.34.34,0,0,0,0-.2,15.2,15.2,0,0,0,2.71-.86c2.27-.25,4.87,0,5.94,1.66C71.64,53.54,66.6,53.65,66.2,53.6Z"/><path class="cls-9" d="M50.51,106.67a21.18,21.18,0,0,0-3.2,4.6.11.11,0,1,0,.19.11c1-1.56,2.34-2.92,3.2-4.56C50.76,106.7,50.61,106.57,50.51,106.67Z"/><path class="cls-9" d="M20.48,113.6c-.11-.09-.27.07-.16.16.89.77,1.72,1.61,2.64,2.35.1.09.23,0,.14-.15A20.24,20.24,0,0,0,20.48,113.6Z"/><path class="cls-9" d="M30.67,91.94c.19,1.69.95,4,2.66,4.78a1.83,1.83,0,0,0,.13.16.14.14,0,0,0,.23-.1s0,0,0,0a.16.16,0,0,0,0-.24h0a12.58,12.58,0,0,0-.89-2.3,6.32,6.32,0,0,0-1.63-2.43C31,91.63,30.64,91.69,30.67,91.94Zm1.67,2.72c.14.36.27.77.43,1.17a6.38,6.38,0,0,1-1.46-3.1A8.3,8.3,0,0,1,32.34,94.66Z"/><path class="cls-9" d="M11,47.55a22,22,0,0,0-3.59-2.14.15.15,0,0,0-.15.25c1.18.73,2.43,1.34,3.63,2C11,47.75,11.13,47.62,11,47.55Z"/><path class="cls-9" d="M35.11,15.83a3,3,0,0,1-1.41.68.22.22,0,0,0,0,.43,2.58,2.58,0,0,0,1.5-.39c.36-.22.93-.58,1-1a.18.18,0,0,0-.17-.23C35.66,15.3,35.39,15.61,35.11,15.83Z"/><path class="cls-9" d="M12.49,36.52a.18.18,0,0,0-.13-.3c-.3,0-.59,0-.89,0a2.3,2.3,0,0,1-.93-.48.16.16,0,0,0-.23.23C10.78,36.48,11.83,37.19,12.49,36.52Z"/><path class="cls-9" d="M60.67,53.21a2,2,0,0,1-.78-.84c-.09-.18-.4,0-.33.14a2.35,2.35,0,0,0,.7,1.05c.3.25.78.58,1.18.45a.17.17,0,0,0,.1-.25C61.35,53.47,61,53.39,60.67,53.21Z"/><path class="cls-9" d="M15.16,41c0,.12.16.15.21.05a5.75,5.75,0,0,0,.52-4,.22.22,0,0,0-.35-.09,3.19,3.19,0,0,0-.69,3.28c.08.18.38.05.31-.13a3,3,0,0,1,.38-2.5A20.46,20.46,0,0,1,15.16,41Z"/><path class="cls-9" d="M31.78,22.13a.12.12,0,0,0,.23,0,8.3,8.3,0,0,0,.07-.85.13.13,0,0,0,.05-.22l0,0c0-1.36-.18-3.13-1.58-3-.1,0-.2.08-.19.19A4.48,4.48,0,0,0,31.73,21C31.75,21.49,31.75,21.89,31.78,22.13Zm-1.06-3.69c.71.09.92,1.14,1,2.13A4.26,4.26,0,0,1,30.72,18.44Z"/></g></svg>