<svg id="Layer_1" data-name="Layer 1" xmlns="http://www.w3.org/2000/svg" viewBox="0 0 38.35 39.14"><defs><style>.cls-1{opacity:0.8;}</style></defs><g class="cls-1"><path d="M37.51,9H24.6A10.71,10.71,0,0,0,30.37,4.8c.88-1.41,1.06-2.76.49-3.7A2.51,2.51,0,0,0,28.32,0c-4.07.33-7.66,5-9.15,7.19C17.69,5,14.09.37,10,0A2.54,2.54,0,0,0,7.48,1.1C6.91,2,7.09,3.39,8,4.8A10.68,10.68,0,0,0,13.74,9H.83A.84.84,0,0,0,0,9.86v7.25a.83.83,0,0,0,.83.83h.71V38.31a.84.84,0,0,0,.84.83H36a.84.84,0,0,0,.84-.83V18h.7a.85.85,0,0,0,.84-.84V9.86A.84.84,0,0,0,37.52,9ZM21.89,10.69v5.59H16.46V10.69Zm14.79,5.59H23.55V10.69H36.68ZM28.45,1.71h.21c.28,0,.64,0,.78.26s.1,1-.48,2A10,10,0,0,1,20.67,8C22.07,6,25.21,2,28.45,1.71ZM9.39,3.91C8.81,3,8.73,2.26,8.91,2s.5-.27.77-.27H9.9C13.13,2,16.27,6,17.68,8A9.94,9.94,0,0,1,9.39,3.91ZM1.67,10.69H14.79v5.59H1.67Zm1.54,7.48H14.8v19.3H3.21ZM16.47,37.48V16.28h5.43V37.47Zm18.67,0H23.55V18.17H35.14Z"/></g></svg>