<svg id="Layer_1" data-name="Layer 1" xmlns="http://www.w3.org/2000/svg" viewBox="0 0 48.94 44.78"><defs><style>.cls-1{opacity:0.8;}</style></defs><g class="cls-1"><path d="M.3,44.6a.55.55,0,0,0,.41.12A.45.45,0,0,0,1,44.66L12.59,41l11.64,3.68h.36L36.35,41,48,44.72c.06,0,.12.06.23.06a.87.87,0,0,0,.42-.12.73.73,0,0,0,.3-.59V17.82a.75.75,0,0,0-.54-.72l-6.11-1.9c1.6-3,2.43-5.34,2.43-6.83a8.55,8.55,0,0,0-2.43-5.94A8.29,8.29,0,0,0,36.35,0a8.51,8.51,0,0,0-5.94,2.43A8.26,8.26,0,0,0,28,8.37c0,1.49.83,3.8,2.44,6.83L24.47,17,12.83,13.36h-.42L.53,17.1a.78.78,0,0,0-.53.72V44A.81.81,0,0,0,.3,44.6ZM47.45,18.35V43L37.06,39.73V23.58c.47-.66,2.14-3,3.74-5.76.3-.48.54-.89.77-1.31ZM29.4,8.31a7,7,0,0,1,13.9,0c0,1.43-1.07,3.86-2.44,6.42-.24.41-.47.89-.71,1.31-1,1.78-2.14,3.56-3.09,5a8.62,8.62,0,0,1-.71,1.07c-.18-.29-.48-.65-.72-1.07C34.92,20,34,18.59,33.14,17.1c-.24-.35-.42-.71-.59-1-.24-.47-.48-.89-.72-1.3C29.81,11.11,29.4,9.26,29.4,8.31Zm-4.22,10,5.88-1.84c.24.42.48.89.77,1.31,1.61,2.73,3.27,5.1,3.74,5.76V39.73L25.18,43ZM13.36,15.09l10.4,3.26V43l-10.4-3.27ZM1.48,18.35l10.4-3.26V39.73L1.48,43Z"/><path d="M36.35,12a3.63,3.63,0,1,0-3.63-3.63A3.65,3.65,0,0,0,36.35,12Zm0-5.82a2.19,2.19,0,0,1,2.19,2.19,2.14,2.14,0,0,1-2.19,2.14,2.19,2.19,0,0,1-2.2-2.2A2.14,2.14,0,0,1,36.35,6.18Z"/></g></svg>