<svg xmlns="http://www.w3.org/2000/svg" xmlns:xlink="http://www.w3.org/1999/xlink" width="263.937" height="113" viewBox="0 0 263.937 113">
  <defs>
    <filter id="Path_927" x="0" y="0" width="263.937" height="113" filterUnits="userSpaceOnUse">
      <feOffset dx="3" dy="3" input="SourceAlpha"/>
      <feGaussianBlur stdDeviation="1.5" result="blur"/>
      <feFlood flood-opacity="0.4"/>
      <feComposite operator="in" in2="blur"/>
      <feComposite in="SourceGraphic"/>
    </filter>
  </defs>
  <g id="Group_254" data-name="Group 254" transform="translate(-10.563 -619.5)">
    <g id="Group_197" data-name="Group 197" transform="translate(-207.122 276.356)">
      <g transform="matrix(1, 0, 0, 1, 217.69, 343.14)" filter="url(#Path_927)">
        <path id="Path_927-2" data-name="Path 927" d="M474.122,396.384a20.22,20.22,0,0,0-8.98,14.54c-1.348,10.21-11.132,10.52-11.132,10.52v3.04c0,6.54-5.773,11.91-12.861,11.99-1.1,6.88-7.545,12.17-15.329,12.17H267.476c-8.469,0-15.351-6.25-15.481-14.01-7.012-.16-12.7-5.5-12.7-11.99v-3.03s-9.784-.31-11.122-10.52a20.285,20.285,0,0,0-8.991-14.55A20.251,20.251,0,0,0,228.176,380c1.337-10.22,11.122-10.52,11.122-10.52v-.84c0-6.55,5.784-11.92,12.883-12,1.174-6.8,7.577-12,15.3-12H425.82c8.4,0,15.253,6.17,15.481,13.85,7.023.16,12.709,5.49,12.709,11.99v.83s9.784.31,11.132,10.52A20.254,20.254,0,0,0,474.122,396.384Z" transform="translate(-217.69 -343.14)" fill="#fffefa"/>
      </g>
      <g id="Group_159" data-name="Group 159" transform="translate(240.569 383.97)" opacity="0.59">
        <path id="Path_1091" data-name="Path 1091" d="M247.092,392.851c.249.12.564-.168.383-.378-1.2-1.39-2.837-2.437-2.409-4.882.592-3.384-3.651-5.268-4.443-1.692C240.063,388.421,244,391.361,247.092,392.851Z" transform="translate(-240.569 -383.97)" fill="rgba(74,42,8,0.81)"/>
      </g>
      <g id="Group_160" data-name="Group 160" transform="translate(240.569 395.207)" opacity="0.59">
        <path id="Path_1092" data-name="Path 1092" d="M247.092,395.235c.249-.12.564.168.383.377-1.2,1.391-2.837,2.438-2.409,4.882.592,3.384-3.651,5.269-4.443,1.693C240.063,399.665,244,396.724,247.092,395.235Z" transform="translate(-240.569 -395.207)" fill="rgba(74,42,8,0.81)"/>
      </g>
      <g id="Group_161" data-name="Group 161" transform="translate(231.904 388.697)" opacity="0.59">
        <path id="Path_1093" data-name="Path 1093" d="M240.423,397.6c.324-1.8,1.733-2.182,2.977-2.815a.387.387,0,0,0,.137-.066c.018-.008.027-.016.045-.024a.181.181,0,0,0,.074-.093.488.488,0,0,0,.1-.274.541.541,0,0,0-.083-.287.183.183,0,0,0-.069-.1.171.171,0,0,1-.053-.036.578.578,0,0,0-.124-.064c-1.212-.694-2.6-1.143-2.832-2.969-.346-2.631-4.058-3.069-3.824-.242a2.472,2.472,0,0,0,1.1,1.683c-2.933-.737-5.944-.848-5.957,1.817-.118,2.559,2.641,2.706,5.489,2.182a2.222,2.222,0,0,0-.805,1.343C236.216,400.458,239.945,400.216,240.423,397.6Z" transform="translate(-231.904 -388.697)" fill="rgba(74,42,8,0.81)"/>
      </g>
      <g id="Group_162" data-name="Group 162" transform="translate(247.073 386.769)" opacity="0.59">
        <path id="Path_1094" data-name="Path 1094" d="M248.231,392.495a.153.153,0,0,0,.278-.092c-.1-1-.49-1.949.424-3.067,1.266-1.549.006-3.58-1.4-1.987C246.536,388.473,247.346,390.955,248.231,392.495Z" transform="translate(-247.073 -386.769)" fill="rgba(74,42,8,0.81)"/>
      </g>
      <g id="Group_163" data-name="Group 163" transform="translate(246.574 395.519)" opacity="0.59">
        <path id="Path_1095" data-name="Path 1095" d="M248.206,395.57a.153.153,0,0,1,.264.125c-.222.985-.727,1.874.042,3.1,1.065,1.693-.436,3.553-1.638,1.8C246.026,399.352,247.138,396.988,248.206,395.57Z" transform="translate(-246.574 -395.519)" fill="rgba(74,42,8,0.81)"/>
      </g>
      <g id="Group_164" data-name="Group 164" transform="translate(446.873 386.571)" opacity="0.59">
        <path id="Path_1096" data-name="Path 1096" d="M426.873,395.452c-.25.12-.564-.168-.384-.377,1.2-1.391,2.837-2.438,2.409-4.882-.592-3.385,3.651-5.269,4.444-1.693C433.9,391.022,429.969,393.963,426.873,395.452Z" transform="translate(-426.436 -386.571)" fill="rgba(74,42,8,0.81)"/>
      </g>
      <g id="Group_165" data-name="Group 165" transform="translate(446.873 397.808)" opacity="0.59">
        <path id="Path_1097" data-name="Path 1097" d="M426.873,397.836c-.25-.12-.564.168-.384.378,1.2,1.39,2.837,2.437,2.409,4.882-.592,3.384,3.651,5.268,4.444,1.692C433.9,402.266,429.969,399.326,426.873,397.836Z" transform="translate(-426.436 -397.808)" fill="rgba(74,42,8,0.81)"/>
      </g>
      <g id="Group_166" data-name="Group 166" transform="translate(450.649 391.299)" opacity="0.59">
        <path id="Path_1098" data-name="Path 1098" d="M433.541,400.2c-.323-1.8-1.732-2.181-2.977-2.814a.409.409,0,0,1-.136-.066c-.018-.008-.028-.017-.046-.025a.186.186,0,0,1-.074-.093.484.484,0,0,1-.1-.273.538.538,0,0,1,.082-.287.179.179,0,0,1,.07-.1.2.2,0,0,0,.052-.035.559.559,0,0,1,.124-.064c1.212-.7,2.6-1.143,2.832-2.969.347-2.631,4.058-3.069,3.824-.243a2.474,2.474,0,0,1-1.1,1.684c2.932-.738,5.943-.848,5.956,1.817.118,2.559-2.641,2.706-5.488,2.182a2.226,2.226,0,0,1,.8,1.342C437.748,403.06,434.019,402.817,433.541,400.2Z" transform="translate(-430.212 -391.299)" fill="rgba(74,42,8,0.81)"/>
      </g>
      <g id="Group_167" data-name="Group 167" transform="translate(444.946 389.371)" opacity="0.59">
        <path id="Path_1099" data-name="Path 1099" d="M425.733,395.1a.153.153,0,0,1-.278-.092c.1-1,.491-1.95-.424-3.068-1.266-1.548-.006-3.58,1.4-1.986C427.429,391.074,426.618,393.557,425.733,395.1Z" transform="translate(-424.509 -389.371)" fill="rgba(74,42,8,0.81)"/>
      </g>
      <g id="Group_168" data-name="Group 168" transform="translate(445.526 398.12)" opacity="0.59">
        <path id="Path_1100" data-name="Path 1100" d="M425.758,398.172a.152.152,0,0,0-.264.125c.222.984.727,1.874-.042,3.1-1.065,1.693.437,3.553,1.638,1.8C427.938,401.953,426.827,399.59,425.758,398.172Z" transform="translate(-425.089 -398.12)" fill="rgba(74,42,8,0.81)"/>
      </g>
      <g id="Group_175" data-name="Group 175" transform="translate(357.548 353.68)" opacity="0.59">
        <g id="Group_169" data-name="Group 169" transform="translate(6.425 5.201)">
          <path id="Path_1101" data-name="Path 1101" d="M407.451,359.131a.249.249,0,0,1-.25.25h-57.85a.25.25,0,1,1,0-.5H407.2A.249.249,0,0,1,407.451,359.131Z" transform="translate(-349.101 -358.881)" fill="rgba(74,42,8,0.81)"/>
        </g>
        <g id="Group_170" data-name="Group 170" transform="translate(11.064)">
          <path id="Path_1102" data-name="Path 1102" d="M360.176,359.129c.211.027.37-.26.187-.369-1.213-.721-2.665-1.084-2.95-2.971-.4-2.613-3.951-2.95-3.655-.148C353.967,357.617,357.554,358.8,360.176,359.129Z" transform="translate(-353.741 -353.68)" fill="rgba(74,42,8,0.81)"/>
        </g>
        <g id="Group_171" data-name="Group 171" transform="translate(11.064 5.451)">
          <path id="Path_1103" data-name="Path 1103" d="M360.176,359.133c.211-.027.37.26.187.369-1.213.721-2.665,1.084-2.95,2.971-.4,2.613-3.951,2.95-3.655.148C353.967,360.645,357.554,359.462,360.176,359.133Z" transform="translate(-353.741 -359.131)" fill="rgba(74,42,8,0.81)"/>
        </g>
        <g id="Group_172" data-name="Group 172" transform="translate(21.678)">
          <path id="Path_1104" data-name="Path 1104" d="M370.79,359.129c.211.027.37-.26.187-.369-1.213-.721-2.665-1.084-2.95-2.971-.4-2.613-3.951-2.95-3.655-.148C364.581,357.617,368.168,358.8,370.79,359.129Z" transform="translate(-364.355 -353.68)" fill="rgba(74,42,8,0.81)"/>
        </g>
        <g id="Group_173" data-name="Group 173" transform="translate(21.678 5.451)">
          <path id="Path_1105" data-name="Path 1105" d="M370.79,359.133c.211-.027.37.26.187.369-1.213.721-2.665,1.084-2.95,2.971-.4,2.613-3.951,2.95-3.655.148C364.581,360.645,368.168,359.462,370.79,359.133Z" transform="translate(-364.355 -359.131)" fill="rgba(74,42,8,0.81)"/>
        </g>
        <g id="Group_174" data-name="Group 174" transform="translate(0 1.636)">
          <path id="Path_1106" data-name="Path 1106" d="M348.431,356.793c.186,1.26,1.122,1.548,1.944,2.01a.261.261,0,0,1,.09.048c.012.006.018.012.03.018a.126.126,0,0,1,.048.066.347.347,0,0,1,.06.192.383.383,0,0,1-.06.2.126.126,0,0,1-.048.066.126.126,0,0,0-.036.024.367.367,0,0,1-.084.042c-.822.462-1.758.75-1.944,2.016-.276,1.824-2.766,2.064-2.562.1a1.725,1.725,0,0,1,.762-1.152c-1.974.462-3.99.486-3.954-1.368-.036-1.782,1.812-1.836,3.708-1.422a1.564,1.564,0,0,1-.516-.948C345.665,354.729,348.155,354.963,348.431,356.793Z" transform="translate(-342.676 -355.316)" fill="rgba(74,42,8,0.81)"/>
        </g>
      </g>
      <g id="Group_182" data-name="Group 182" transform="translate(265.217 353.43)" opacity="0.59">
        <g id="Group_176" data-name="Group 176" transform="translate(0 5.201)">
          <path id="Path_1107" data-name="Path 1107" d="M318.615,358.881a.249.249,0,0,1-.25.25h-57.85a.25.25,0,0,1,0-.5h57.85A.249.249,0,0,1,318.615,358.881Z" transform="translate(-260.265 -358.631)" fill="rgba(74,42,8,0.81)"/>
        </g>
        <g id="Group_177" data-name="Group 177" transform="translate(47.009)">
          <path id="Path_1108" data-name="Path 1108" d="M307.541,358.88c-.211.026-.37-.261-.187-.37,1.213-.721,2.665-1.084,2.95-2.971.4-2.613,3.951-2.95,3.655-.148C313.75,357.367,310.163,358.55,307.541,358.88Z" transform="translate(-307.274 -353.43)" fill="rgba(74,42,8,0.81)"/>
        </g>
        <g id="Group_178" data-name="Group 178" transform="translate(47.009 5.451)">
          <path id="Path_1109" data-name="Path 1109" d="M307.541,358.883c-.211-.027-.37.26-.187.369,1.213.721,2.665,1.084,2.95,2.971.4,2.614,3.951,2.95,3.655.148C313.75,360.395,310.163,359.212,307.541,358.883Z" transform="translate(-307.274 -358.881)" fill="rgba(74,42,8,0.81)"/>
        </g>
        <g id="Group_179" data-name="Group 179" transform="translate(36.395)">
          <path id="Path_1110" data-name="Path 1110" d="M296.927,358.88c-.211.026-.37-.261-.187-.37,1.213-.721,2.665-1.084,2.95-2.971.4-2.613,3.951-2.95,3.655-.148C303.136,357.367,299.549,358.55,296.927,358.88Z" transform="translate(-296.66 -353.43)" fill="rgba(74,42,8,0.81)"/>
        </g>
        <g id="Group_180" data-name="Group 180" transform="translate(36.395 5.451)">
          <path id="Path_1111" data-name="Path 1111" d="M296.927,358.883c-.211-.027-.37.26-.187.369,1.213.721,2.665,1.084,2.95,2.971.4,2.614,3.951,2.95,3.655.148C303.136,360.395,299.549,359.212,296.927,358.883Z" transform="translate(-296.66 -358.881)" fill="rgba(74,42,8,0.81)"/>
        </g>
        <g id="Group_181" data-name="Group 181" transform="translate(56.849 1.636)">
          <path id="Path_1112" data-name="Path 1112" d="M319.286,356.543c-.186,1.26-1.122,1.548-1.944,2.01a.261.261,0,0,0-.09.048c-.012.006-.018.012-.03.018a.126.126,0,0,0-.048.066.347.347,0,0,0-.06.192.383.383,0,0,0,.06.2.126.126,0,0,0,.048.066.126.126,0,0,1,.036.024.367.367,0,0,0,.084.042c.822.462,1.758.75,1.944,2.016.276,1.824,2.766,2.064,2.562.1a1.725,1.725,0,0,0-.762-1.152c1.974.462,3.99.486,3.954-1.368.036-1.782-1.812-1.836-3.708-1.422a1.564,1.564,0,0,0,.516-.948C322.052,354.479,319.562,354.713,319.286,356.543Z" transform="translate(-317.114 -355.066)" fill="rgba(74,42,8,0.81)"/>
        </g>
      </g>
      <circle id="Ellipse_32" data-name="Ellipse 32" cx="2.449" cy="2.449" r="2.449" transform="translate(341.995 356.432)" fill="rgba(74,42,8,0.81)" opacity="0.59"/>
      <circle id="Ellipse_33" data-name="Ellipse 33" cx="0.636" cy="0.636" r="0.636" transform="translate(338.712 358.246)" fill="rgba(74,42,8,0.81)" opacity="0.59"/>
      <circle id="Ellipse_34" data-name="Ellipse 34" cx="0.636" cy="0.636" r="0.636" transform="translate(349.452 358.246)" fill="rgba(74,42,8,0.81)" opacity="0.59"/>
      <g id="Group_189" data-name="Group 189" transform="translate(358.159 433.772)" opacity="0.59">
        <g id="Group_183" data-name="Group 183" transform="translate(6.425 5.201)">
          <path id="Path_1113" data-name="Path 1113" d="M408,439.223a.249.249,0,0,1-.25.25H349.9a.25.25,0,0,1,0-.5h57.85A.249.249,0,0,1,408,439.223Z" transform="translate(-349.646 -438.973)" fill="rgba(74,42,8,0.81)"/>
        </g>
        <g id="Group_184" data-name="Group 184" transform="translate(11.064)">
          <path id="Path_1114" data-name="Path 1114" d="M360.721,439.221c.211.026.37-.261.187-.369-1.213-.722-2.665-1.084-2.95-2.972-.4-2.613-3.951-2.949-3.655-.147C354.512,437.709,358.1,438.892,360.721,439.221Z" transform="translate(-354.286 -433.772)" fill="rgba(74,42,8,0.81)"/>
        </g>
        <g id="Group_185" data-name="Group 185" transform="translate(11.064 5.451)">
          <path id="Path_1115" data-name="Path 1115" d="M360.721,439.224c.211-.026.37.261.187.369-1.213.722-2.665,1.084-2.95,2.972-.4,2.613-3.951,2.95-3.655.147C354.512,440.737,358.1,439.554,360.721,439.224Z" transform="translate(-354.286 -439.222)" fill="rgba(74,42,8,0.81)"/>
        </g>
        <g id="Group_186" data-name="Group 186" transform="translate(21.678)">
          <path id="Path_1116" data-name="Path 1116" d="M371.335,439.221c.211.026.37-.261.187-.369-1.213-.722-2.665-1.084-2.95-2.972-.4-2.613-3.951-2.949-3.655-.147C365.126,437.709,368.713,438.892,371.335,439.221Z" transform="translate(-364.9 -433.772)" fill="rgba(74,42,8,0.81)"/>
        </g>
        <g id="Group_187" data-name="Group 187" transform="translate(21.678 5.451)">
          <path id="Path_1117" data-name="Path 1117" d="M371.335,439.224c.211-.026.37.261.187.369-1.213.722-2.665,1.084-2.95,2.972-.4,2.613-3.951,2.95-3.655.147C365.126,440.737,368.713,439.554,371.335,439.224Z" transform="translate(-364.9 -439.222)" fill="rgba(74,42,8,0.81)"/>
        </g>
        <g id="Group_188" data-name="Group 188" transform="translate(0 1.635)">
          <path id="Path_1118" data-name="Path 1118" d="M348.976,436.884c.186,1.26,1.121,1.548,1.943,2.01a.257.257,0,0,1,.091.048c.012.006.018.012.03.018a.126.126,0,0,1,.048.066.346.346,0,0,1,.059.192.382.382,0,0,1-.059.2.126.126,0,0,1-.048.066.125.125,0,0,0-.036.024.355.355,0,0,1-.085.042c-.822.462-1.757.75-1.943,2.016-.276,1.824-2.766,2.064-2.562.1a1.725,1.725,0,0,1,.762-1.152c-1.974.462-3.99.486-3.954-1.368-.036-1.782,1.811-1.836,3.708-1.422a1.564,1.564,0,0,1-.516-.948C346.21,434.82,348.7,435.054,348.976,436.884Z" transform="translate(-343.221 -435.407)" fill="rgba(74,42,8,0.81)"/>
        </g>
      </g>
      <g id="Group_196" data-name="Group 196" transform="translate(265.828 433.522)" opacity="0.59">
        <g id="Group_190" data-name="Group 190" transform="translate(0 5.201)">
          <path id="Path_1119" data-name="Path 1119" d="M319.16,438.973a.249.249,0,0,1-.25.25H261.06a.25.25,0,1,1,0-.5h57.85A.249.249,0,0,1,319.16,438.973Z" transform="translate(-260.81 -438.723)" fill="rgba(74,42,8,0.81)"/>
        </g>
        <g id="Group_191" data-name="Group 191" transform="translate(47.009)">
          <path id="Path_1120" data-name="Path 1120" d="M308.086,438.971c-.211.027-.37-.26-.187-.369,1.213-.721,2.665-1.084,2.95-2.971.4-2.614,3.951-2.95,3.655-.148C314.3,437.459,310.708,438.642,308.086,438.971Z" transform="translate(-307.819 -433.522)" fill="rgba(74,42,8,0.81)"/>
        </g>
        <g id="Group_192" data-name="Group 192" transform="translate(47.009 5.451)">
          <path id="Path_1121" data-name="Path 1121" d="M308.086,438.975c-.211-.027-.37.26-.187.369,1.213.721,2.665,1.084,2.95,2.971.4,2.613,3.951,2.95,3.655.148C314.3,440.487,310.708,439.3,308.086,438.975Z" transform="translate(-307.819 -438.973)" fill="rgba(74,42,8,0.81)"/>
        </g>
        <g id="Group_193" data-name="Group 193" transform="translate(36.395)">
          <path id="Path_1122" data-name="Path 1122" d="M297.472,438.971c-.211.027-.37-.26-.187-.369,1.213-.721,2.665-1.084,2.95-2.971.4-2.614,3.951-2.95,3.655-.148C303.681,437.459,300.094,438.642,297.472,438.971Z" transform="translate(-297.205 -433.522)" fill="rgba(74,42,8,0.81)"/>
        </g>
        <g id="Group_194" data-name="Group 194" transform="translate(36.395 5.451)">
          <path id="Path_1123" data-name="Path 1123" d="M297.472,438.975c-.211-.027-.37.26-.187.369,1.213.721,2.665,1.084,2.95,2.971.4,2.613,3.951,2.95,3.655.148C303.681,440.487,300.094,439.3,297.472,438.975Z" transform="translate(-297.205 -438.973)" fill="rgba(74,42,8,0.81)"/>
        </g>
        <g id="Group_195" data-name="Group 195" transform="translate(56.849 1.635)">
          <path id="Path_1124" data-name="Path 1124" d="M319.831,436.634c-.186,1.26-1.122,1.548-1.944,2.01a.261.261,0,0,0-.09.048c-.012.006-.018.012-.03.018a.126.126,0,0,0-.048.066.347.347,0,0,0-.06.192.383.383,0,0,0,.06.2.126.126,0,0,0,.048.066.126.126,0,0,1,.036.024.367.367,0,0,0,.084.042c.822.462,1.758.75,1.944,2.016.276,1.824,2.766,2.064,2.562.1a1.725,1.725,0,0,0-.762-1.152c1.974.462,3.99.486,3.954-1.368.036-1.782-1.812-1.836-3.708-1.422a1.564,1.564,0,0,0,.516-.948C322.6,434.57,320.107,434.8,319.831,436.634Z" transform="translate(-317.659 -435.157)" fill="rgba(74,42,8,0.81)"/>
        </g>
      </g>
      <circle id="Ellipse_35" data-name="Ellipse 35" cx="2.449" cy="2.449" r="2.449" transform="translate(342.588 436.524)" fill="rgba(74,42,8,0.81)" opacity="0.59"/>
      <circle id="Ellipse_36" data-name="Ellipse 36" cx="0.636" cy="0.636" r="0.636" transform="translate(339.305 438.337)" fill="rgba(74,42,8,0.81)" opacity="0.59"/>
      <circle id="Ellipse_37" data-name="Ellipse 37" cx="0.636" cy="0.636" r="0.636" transform="translate(350.045 438.337)" fill="rgba(74,42,8,0.81)" opacity="0.59"/>
      <line id="Line_29" data-name="Line 29" x2="197.998" transform="translate(247.528 371.314)" fill="none" stroke="#7a7459" stroke-linecap="round" stroke-miterlimit="10" stroke-width="0.5"/>
      <line id="Line_30" data-name="Line 30" x2="197.998" transform="translate(247.528 420.32)" fill="none" stroke="#7a7459" stroke-linecap="round" stroke-miterlimit="10" stroke-width="0.5"/>
    </g>
  </g>
</svg>
