<svg id="Layer_1" data-name="Layer 1" xmlns="http://www.w3.org/2000/svg" viewBox="0 0 48.87 23.44"><defs><style>.cls-1{opacity:0.8;}</style></defs><g class="cls-1"><path d="M48,4.9l-4-4A3,3,0,0,0,41.83,0a3,3,0,0,0-2.14.89L35.41,5.17a3,3,0,0,0-.59,3.43l-2.55,2.55L28,13.23l-1.17,8.83,8.83-1.17,2.08-4.29,2.55-2.54a3,3,0,0,0,1.29.29,3,3,0,0,0,2.15-.89L48,9.19A3,3,0,0,0,48,4.9ZM36.9,16,35,20l-6.19.82,5-5-.71-.71-5,5,.82-6.19,4-1.92,2.53-2.54,0,0,4,4v0ZM47.28,8.48,43,12.76a2.05,2.05,0,0,1-2.88,0l-4-4a2,2,0,0,1,0-2.88l4.27-4.28a2.05,2.05,0,0,1,2.88,0l4,4A2,2,0,0,1,47.28,8.48Z"/><path d="M19.77,21.69c-.69.62-1.4.32-2.95-.4-.6-.28-1.29-.6-2.08-.88a1.82,1.82,0,0,0-1.56-.07,1.33,1.33,0,0,0-.53,1.07c-.1.62-.16,1.08-1.57,1a1.49,1.49,0,0,1-1-.26c-.17-.18-.15-.62-.13-1.13a5.27,5.27,0,0,0-.4-2.64c1.77-1.4,3.14-2.77,3.06-3.64a1,1,0,0,0-.7-.85c-1.82-.7-5.35-.64-6.09.75-.43.8.06,1.69,1.43,2.65a4.75,4.75,0,0,1,1,.85C7.05,19,5.66,20,4.14,21a2.38,2.38,0,0,0-.16-2C3,17.43.31,17.7,0,17.74l.12,1c.61-.07,2.5-.09,3,.74.41.65-.09,1.74-.59,2.55a.5.5,0,0,0,.69.69c1.36-.83,3.57-2.23,5.5-3.67A4.4,4.4,0,0,1,9,21a2.38,2.38,0,0,0,.4,1.85,2.3,2.3,0,0,0,1.7.58h.18c2.12,0,2.3-1.22,2.4-1.88,0-.13,0-.33,0-.36s.16-.05.72.15c.75.27,1.41.58,2,.85,1.51.71,2.82,1.32,4,.24a4.07,4.07,0,0,1,4.81-.27l.5-.87A5.1,5.1,0,0,0,19.77,21.69ZM9,17.56A5.6,5.6,0,0,0,7.83,16.5c-1-.69-1.22-1.17-1.12-1.36.22-.41,1.3-.66,2.5-.66a6.7,6.7,0,0,1,2.35.38l.06,0C11.62,15.3,10.62,16.3,9,17.56Z"/></g></svg>