<svg xmlns="http://www.w3.org/2000/svg" viewBox="0 0 94.88 67.73"><g id="Layer_1" data-name="Layer 1"><path d="M75.89,3.45a.57.57,0,0,1,.11.69c-.43.7.09,1,.67,1.18A34.47,34.47,0,0,1,82,7.82a32.85,32.85,0,0,1,6.73,4.68,16.92,16.92,0,0,1,3.69,4.59,9.53,9.53,0,0,1,1.12,6.28c-.47,2.24-.78,4.51-1.22,6.77a14.9,14.9,0,0,1-.82,2.72A2.59,2.59,0,0,1,90,34a2.11,2.11,0,0,0-1.2,1.37c-.51,1.64-1,3.28-1.41,4.94.15,0,.25.1.28.08.86-.62,1.3-.53,1.8.33a11.15,11.15,0,0,0,2.35,2.94,21.8,21.8,0,0,1,1.66,1.67,1,1,0,0,1,.27,1,15.52,15.52,0,0,0-.57,3.38,2,2,0,0,1-1.35,1.83c-2.22.93-4.41,1.89-6.59,2.87-.82.37-1.61.78-2.43,1.14-1,.46-1.54.41-2.27-.42-.49-.56-.88-1.18-1.34-1.76s-.48-.46-1-.11a28.75,28.75,0,0,1-6,3.28A71,71,0,0,1,61.39,60a52.52,52.52,0,0,1-5.62,1,4.43,4.43,0,0,0-1.65.39,1.17,1.17,0,0,1-.89.13c-1.24-.33-2.43.1-3.65.11-.35,0-.46.15-.44.45a2,2,0,0,1-.07.69,1.22,1.22,0,0,1-1.38.86,1.17,1.17,0,0,1-1.15-1,1.9,1.9,0,0,1,0-.4c.06-.58-.28-.76-.88-.77s-1.38-.06-2.07-.12c-.49,0-.74.1-.7.54a6.93,6.93,0,0,1-.2,1.7,1.59,1.59,0,0,1-1.09,1.33c-1.11.44-2.1,1.09-3.25,1.51a34.92,34.92,0,0,1-4,1.21,5.15,5.15,0,0,1-2.91-.2,40.55,40.55,0,0,1-4-1.78c-1-.5-1-.68-.73-1.8a3.35,3.35,0,0,0,0-1.41c-.16-.93-.36-1.85-.5-2.79-.06-.33-.26-.47-.58-.66-1-.59-2.28-.58-3.31-1.11a.88.88,0,0,0-.67,0c-1.47.5-3,.91-4.41,1.48a4.29,4.29,0,0,1-3.12-.06,14.86,14.86,0,0,1-3.22-1.52A1.83,1.83,0,0,1,10,56c.08-.7.15-1.4.21-2.05-.33-.31-.64-.12-.92-.08a19.3,19.3,0,0,1-2.63.22,4.18,4.18,0,0,0-.8.07c-1.12.26-1.08.24-1.86-.54a20.61,20.61,0,0,1-2.43-3.36,1.13,1.13,0,0,1-.06-1.07c.5-1.38,1.18-2.7,1.81-4a2.57,2.57,0,0,0,.32-.75,2.37,2.37,0,0,1,1.43-1.8c.75-.44.67-.44.42-1.22a43.41,43.41,0,0,1-1.18-4.72,17,17,0,0,1-.3-3,1.17,1.17,0,0,0-.71-1.17,4.45,4.45,0,0,1-2.3-3A29.32,29.32,0,0,1,0,19.8a22.25,22.25,0,0,1,.66-5.67A8.94,8.94,0,0,1,4.42,9C5.28,8.42,6.09,7.8,7,7.26A20.06,20.06,0,0,1,12.19,5c2.85-.8,5.64-1.77,8.56-2.39,2.05-.45,4.12-.79,6.2-1.11s4-.52,6-.69c.92-.08,1.85-.11,2.76-.18L42.29,0a3.54,3.54,0,0,1,.92,0,30.46,30.46,0,0,0,4.58.08c1.84,0,3.68,0,5.52.07,1.62,0,3.23.16,4.84.18a27.66,27.66,0,0,1,3.41.45,59.7,59.7,0,0,1,7.88,1.83,33.2,33.2,0,0,1,4.22,1.28,1,1,0,0,0,.86,0A4.75,4.75,0,0,1,75.89,3.45Zm-14,6.16c.17-.39.71-.41,1.16-.73l-.74-.07a1,1,0,0,0-.34,0c-.45.12-.46.33-.05.77a1.39,1.39,0,0,0,.52,1,.42.42,0,0,0,.52,0c.2-.11.41-.22.42-.45s-.2-.27-.38-.31C62.63,9.75,62.25,9.69,61.88,9.61ZM80.11,34.69c.85.11.86.11.72.76,0,.18-.1.34.1.44a.75.75,0,0,0,.55,0,.36.36,0,0,0,.26-.41,4,4,0,0,0-.28-.54c-.41-.91-.41-.91-1.32-.19-.55.15-1.14.25-1.34.86C80.33,35.86,80.33,35.86,80.11,34.69ZM29.2,64.43c-.34.14-.68-.21-1.11,0a.87.87,0,0,0,1.12,0c-.21.29-.31.56.16.73a6,6,0,0,1,.84.3c.53.29,1.23.26,1.72.7l-.26.1c-.1,0-.27,0-.29.09-.06.21.15.3.31.37.85.37,1.53.07,1.61-.75a13.53,13.53,0,0,0-.14-2.91,1.74,1.74,0,0,0-.78-1.19c-.6-.42-1.18-.86-1.79-1.27-.24-.16-.5-.43-.91-.12.59.39.85,1,1.56,1.34a3.62,3.62,0,0,1-2.73,0,.79.79,0,0,1-.27.81c-.44.37-.1.59.16.8s.37.07.53.15C29.32,63.78,29.49,64.05,29.2,64.43ZM31.37,9.21a13.29,13.29,0,0,0,2,.67,3.36,3.36,0,0,0,2.81-.45A2.13,2.13,0,0,1,37.55,9a5.36,5.36,0,0,0,2.31-.49,6.48,6.48,0,0,1,4.69-.26,2.78,2.78,0,0,0,1.35.11A2.8,2.8,0,0,1,48,9.1c-1.26-.07-2.36-.3-3.14.52a.31.31,0,0,0,.3.31,12.21,12.21,0,0,0,1.59.15c.57,0,.71.75,1.39.54.17,0,.45.15.31.29-.64.62.42.53.49.87l-.43.22c-.21.1-.62.09-.42.44a.64.64,0,0,0,.8.23.78.78,0,0,0,.59-.79,2.47,2.47,0,0,0-.46-1.54c-.19-.25-.45-.46-.4-.8.45-.27.78.26,1.19.14a8.4,8.4,0,0,1,3,.11c.61,0,1.17.33,1.81.16a7.73,7.73,0,0,1,2-.29c.48,0,.91-.17.9-.71,0-.09.05-.25.11-.26.78-.19.54-.8.8-1.25-.5-.08-1,0-1-.56A.52.52,0,0,0,57,6.46a34.85,34.85,0,0,0-3.91-.71c-1.2-.09-2.42-.08-3.63-.14-.81,0-1.62-.09-2.42-.05-1.8.08-3.6.16-5.41.17a19,19,0,0,0-5.26.65c.29.18.6.2.72.5-.44,0-.67.7-1,.46-.87-.71-1.69.5-2.49-.06-.25.55-.8-.07-1.05.19s-.84.29-1.26.42c-.25.08-.64,0-.72.36.33.49.92.17,1.39.33-.06.35-.44.42-.56.65C31.28,9.15,31.17,9,31,9a25.52,25.52,0,0,0-3.91,0c-.26,0-.43.34-.23.43.49.19.42.74.8.89s.67,0,1,0l.9,0a3.27,3.27,0,0,0,1.68-.56C31.5,9.56,31.58,9.4,31.37,9.21ZM59.92,21.54a1.54,1.54,0,0,1,.3-.73c1.29-1.47,1.28-2.67,0-4.06a7.11,7.11,0,0,0-.9-.92,4.19,4.19,0,0,1-1.78-4.14c.1-.73.06-.77-.83-.89a26.27,26.27,0,0,0-4.7-.27c-1.68.1-1.68.08-1.61,1.53,0,0,.06.11.12.21a3.23,3.23,0,0,1,3.35,1,3.73,3.73,0,0,1,.75,1.12A3.09,3.09,0,0,0,56.3,16c1.34.65,2.46,1.62,2.49,3.16a7,7,0,0,1,.05.8,1.45,1.45,0,0,0,1.1,1.57,4.31,4.31,0,0,1-.78,3c-.24.31-.51.59-.75.9-.52.7-.13,1.41.83,1.52.21,0,.45-.08.61.21-1.18.54-2.57.1-3.88.56a1.91,1.91,0,0,1,.67,1.68c0,.91.08,1.82.14,2.72,0,.25-.08.54.24.76,1.29-.34,2.65-.29,3.95-.58.8-.18.83-.2.63-.88a11,11,0,0,0-1.11-2.32,1,1,0,0,1-.1-1.06,8.1,8.1,0,0,0,.67-3.84c0-.52.16-.78.78-.92,1.41-.32,2.8-.72,4.2-1.08a5.93,5.93,0,0,0,2.8-1c.21-.2.42-.06.59.09A2.24,2.24,0,0,1,70,22a26.66,26.66,0,0,0,1.79,3.27c.14.2.32.4.2.65-.64,1.37-.71,3-2.34,3.93-.08,0-.08.17-.14.34a40.4,40.4,0,0,0,8.57-2,3.28,3.28,0,0,0,2.3-3.08,9.2,9.2,0,0,0-1-4.09,2.57,2.57,0,0,1-.37-.84c0-.93-.75-1.51-1.34-2.16-.15-.15-.35-.27-.48-.43a9.37,9.37,0,0,0-5.38-3,1,1,0,0,0-1.12.33,6,6,0,0,1-1.72,1.33c-.13.06-.21.19-.09.41,1,0,2.1-.05,3.17,0s2.14-.42,3.25-.29c0,.14,0,.23,0,.26a17.49,17.49,0,0,1-5.08,3.73,12.45,12.45,0,0,1-6,1c-.72-.06-1.42-.25-2.15-.27S60.66,21.52,59.92,21.54ZM45.87,25.67a4.55,4.55,0,0,1,1.57-.13,18.33,18.33,0,0,0,2.84.28.73.73,0,0,0,.62-.23,6,6,0,0,1,1.84-1.41c.53-.27.6-.52.58-1.27,0-.12.12-.24.18-.36l.51-1c-.18-.32-.57,0-.7-.28.19-.3,1-.6-.05-.88-.19-.05,0-.31.2-.35a5.22,5.22,0,0,0,1.31-.39c.16-.07.39-.28.21-.38-.54-.29.05-.89-.5-1.19-.2-.11-.06-.45.24-.57s.69-.09.75.23a1,1,0,0,0,1,.89c.37,0,.44.24.2.65s-.64,1-.16,1.62c.38-.19.56-.51,1-.63a.86.86,0,0,0,.64-1.14A3.61,3.61,0,0,0,56.2,16.6c-.77-.41-1.07-.35-1.65.36a.62.62,0,0,1-.47.23c-.4,0-.2-.26-.22-.43,0-.4-.36-.27-.6-.24s-.72,0-.6.3c.32.73,0,1.54.44,2.22.38.2.78-.27,1.17,0-.84.4-.84.4-2.16.19,0-.75.08-1.51-1-1.9a6.18,6.18,0,0,0-1.32-.16L50.2,17c.15-.1.33-.22.14-.38s-.36,0-.5.08-.09.35,0,.53c-.34,0-.53.41-.93.3-.26-.6-.25-.6.1-1.28a.28.28,0,0,0,0-.18c0-.24-1-.74-1.18-.61a2.7,2.7,0,0,1-1.86.08c.24-.28.67-.33.74-.67,0-.16.12-.2.32-.18a10.74,10.74,0,0,0,3.22-.07c1.38-.37,1.37-.36,2.21.65a.42.42,0,0,1-.08.7c-.14.1-.3.18-.69.42a6,6,0,0,1,1.7-.24.49.49,0,0,0,.53-.29,2.19,2.19,0,0,0-1.24-2.72,4.58,4.58,0,0,0-4,.55,1.38,1.38,0,0,1-1.68.19,2.34,2.34,0,0,0-3.27,1.37,1.52,1.52,0,0,1-.06.2c-.19.47-.42.54-.93.3a3.67,3.67,0,0,0-.6-.29c-1-.27-2.14.56-1.91,1.38.14.52-.15.55-.53.67a2.2,2.2,0,0,0-1.64,2.46A2.27,2.27,0,0,1,38,22c-.47.79-.15,1.84,0,2.78a.56.56,0,0,0,.16.26c.81.84,1.58,1.77,3.11,1.34,0,0,.07,0,0,0,.18.15.09.27.05.4-.18.7-.13.78.56,1.11a2.81,2.81,0,0,0,.75.22,3.32,3.32,0,0,0,2.77-.94c.91-.67.94-.68.39-1.52Zm-17-10.86,0,0c0,.25-.12.3-.34.2a1.42,1.42,0,0,0-1.11,0,15.38,15.38,0,0,1-1.78.43c-.41.11-.91.16-1.06-.08a.83.83,0,0,1,0-1.18c.14-.12.25-.28.06-.42a.5.5,0,0,0-.55,0,9.88,9.88,0,0,1-1.93.62,4.77,4.77,0,0,0-1.46.79,1.31,1.31,0,0,0-.19,2.06c.13.16.32.29.27.52a.49.49,0,0,1-.52.13,1.69,1.69,0,0,0-2.1,1c-.14.23-.39.42-.52.66-.32.53-.78,1.08-.56,1.69a3.19,3.19,0,0,0,1.18,1.81c.43.27.47.57,0,.87-.8.47-.71,1.16-.47,1.82a1.32,1.32,0,0,0,1.47.89c.3,0,.49.06.54.38.12.89,1,1.38,1.56,2A.82.82,0,0,0,22,29c.3,0,.61,0,.92,0,1.18,0,1.59-.27,2-1.29.07-.2.1-.42.4-.39s.25.22.24.39-.09.67.4.71.91.17,1.28-.22.72-.69,1.06-1.06c.14-.16.21-.38.47-.41.87-.09,1.26-.85,2.07-1-.21-.39-.86-.29-.78-.86s.65-.5.64-1,.48-.28.88-.29c-.41.42-.77.75-.79,1.32a2.5,2.5,0,0,0,.73-.07c.71-.36,1.38-.77,2.07-1.15-.18-.31-.62-.07-.78-.34.06-.22.3-.22.46-.23.84-.05,1-.69,1.41-1.16.19-.24,0-.44-.28-.53s-1.28.3-.83-.64c0,0-.11-.07-.16-.12-.66-.53-.66-.53.16-.82.13,0,.32,0,.32-.25-.4-.22-.94,0-1.37-.15.07-.37.34-.4.61-.43s.49-.08.46-.22c-.12-.55.24-.54.66-.52a1,1,0,0,0,.7-.31.73.73,0,0,1,.94,0c.27.2.11.69.06.72-.78.47-.19.76.16,1.06-.06.06-.08.09-.11.1-.25.1-.54.18-.49.48s.35.17.55.24.69-.09,1,.2c-.21.42-.85.1-1,.52.14.36.57.26.86.38s.51-.06.5-.35a10.27,10.27,0,0,1,.37-3.39,1.51,1.51,0,0,0,0-.6A1.31,1.31,0,0,0,36.37,16a1.36,1.36,0,0,1-1.14-.82,1.82,1.82,0,0,0-2.69-.55c-.14.1-.36.2-.31.38a.61.61,0,0,0,.47.4c.3.09.72-.06.93.38a10.69,10.69,0,0,1-2.26.07c0,.53.21.82.84.73a14,14,0,0,0,1.6-.19c.51-.12.89.13,1.33.2a.36.36,0,0,1,.27.4c0,.19-.2.27-.41.3s-.61-.15-.89,0l0,0c.18-.15.47-.23.49-.58a3.63,3.63,0,0,0-1.88,0c-.58.07-1.35,0-1,.88.05.15-.18.3-.39.31S31,17.8,31,17.62a1.55,1.55,0,0,0-.27-.84c-.38-.68-.45-.7-1.29-.54-.44.08-.69.39-1.1.54-.25-.32-.41-.57.13-.8a4.14,4.14,0,0,1,1.9-.65c.28,0,.56-.1.58-.38s.54-.62.65-1a2.56,2.56,0,0,0-1.12-.6,2,2,0,0,0-1.77.16C28,13.94,28.07,14.37,28.84,14.81ZM65.31,56.65l0,0a.61.61,0,0,1,1,.09c.36.45.61.32.81-.08s.25-.58.62-.5a2,2,0,0,0,1.95-.57.38.38,0,0,1,.21-.07,1,1,0,0,0,1-.93c.06-.68.51-.9,1.16-1a3.48,3.48,0,0,0,.56-.12c.18-.07.34-.18.28-.38s-.16-.34-.4-.27c-.56.16-1.12-.08-1.71,0a12.7,12.7,0,0,1-2.26,0,13.13,13.13,0,0,1,3.34-.85,1.23,1.23,0,0,0,.33-.08c.57-.23.84-.7.68-1.13s-.76-.31-1.17-.34a1.18,1.18,0,0,0-.43.13,1,1,0,0,1-1-.06c1.2-.18,2.36-.71,3.8-.26-.4-.49.32-1-.48-1.51.88.13,1.16-.51,1.7-.76s0-.59.1-.89-.25-.23-.43-.32a3.8,3.8,0,0,0-2.14-.28c-.23,0-.55.12-.66-.18.17-.56.91-.19,1.23-.61-.36,0-.79.29-.93-.17s.26-.46.62-.52a8.84,8.84,0,0,1,1.7-.26,2.44,2.44,0,0,0,1.58-.54,2.55,2.55,0,0,0-2.26.07.55.55,0,0,1-.71-.11c-.22-.26,0-.42.17-.61.44-.58,1.06-.38,1.67-.35.25,0,.77.35.67-.28,0-.25.13-.29.31-.33a1.94,1.94,0,0,1,1.24-.09c.13.25-.31.36-.2.62s.27.5.56.37a9.1,9.1,0,0,0,1.5-.5c.12-.08.28-.14.2-.31a.3.3,0,0,0-.38-.15,1.51,1.51,0,0,1-1.11.08c1.23-.86-.54-.59-.49-1.14L79.56,41c-.21-.53-.8,0-1.09-.37.41-.41,1.07-.35,1.61-.8a9.55,9.55,0,0,1-2-.39c.39-.38.92-.22,1.2-.51-.15-.22-.78.14-.66-.44,0-.24-.25-.31-.5-.3a1.93,1.93,0,0,0-1.31.26.77.77,0,0,1-.71.25,2.79,2.79,0,0,0-1.35.21c-1.58.51-3.17,1-4.79,1.39a2,2,0,0,0-1,.48c.15.18.62,0,.54.38-.19.16-.45,0-.66.13-1.74.65-3.69.22-5.46.79A1,1,0,0,1,63,42a22,22,0,0,0-3.89,0c-1.61.12-3.21.27-4.82.42-3.35.3-6.68.88-10.06,1-.26,0-.5,0-.61.32-.22.71-.64-.08-1,.06,0,0,0-.07,0-.08a1.74,1.74,0,0,0,.22,0c.11,0,.16-.12.06-.23-.33-.06-.67.07-1,0s-.93-.4-.64.39c0,.1-.22.24-.34.21-.49-.12-1,.09-1.44,0a15,15,0,0,0-7.1.17,1.83,1.83,0,0,0,1.29.88c-.28.18-.71-.1-.77.33s.59.21.43.57a8.88,8.88,0,0,1-3.68-.53c.11-.41.85-.31.88-.9-.7.14-1.12-.29-1.71-.53.69-.25,1.33.06,2,0,0-.11,0-.22-.05-.23-.51-.16-1-.38-1.5-.53-.27-.07-.94-.31-1,.42,0,.26-.48.39-.86.18s-.43-.38-.85-.28c.24.52.83.71,1.17,1.2-.77,0-1.34-.55-2-.29.44.64,1.49.45,2.09,1.11-.54,0-.94-.1-1.32.17s-.83-.14-1.36,0a6.62,6.62,0,0,0,1.08.9.34.34,0,0,1,.13.45c-.11.18-.31.17-.5.18s-.6-.17-.92.1c.79.87,1.63.35,2.61,0-.13.91.66.87,1.26,1,.22.06.47,0,.67.12s.24.18.19.34-.16.11-.27.14a2.19,2.19,0,0,1-1,0,2.38,2.38,0,0,0-1.58,0c-.64.34-1-.48-1.75-.2,1.38.79,3,.63,4.48,1.39a7.66,7.66,0,0,1-1.9-.24c-.26,0-.47,0-.51.29s.19.28.39.26c.56-.06,1,0,1.05.61,0,.06.14.18.23.18.79,0,1.41.58,2.27.52a5.18,5.18,0,0,1,2,.35,2.76,2.76,0,0,0,1.63.38c.17,0,.37,0,.4.12s-.24.12-.35.21a.2.2,0,0,0,0,.34,1.15,1.15,0,0,1,.49,1c0,.24.21.33.45.4s.8.27,1.1,0-.38-.44-.24-.88c.7.1,1.47-.14,2.21.45a6,6,0,0,0-.9.16c-.32.13-.31.65,0,.63.65,0,.82.29,1.06.67a.72.72,0,0,0,.53.17,14.61,14.61,0,0,1,3.29.36,3.81,3.81,0,0,1,1.73.64h-.85c-.37,0-.45.24-.47.47s.36.41.63.45.38-.24.49-.2c1.07.38,2.31.24,3.33.72a5.67,5.67,0,0,0,1.84.51,8.18,8.18,0,0,1,2.14.63c1,.41.9.54,1.9.14.19-.08.33-.13.49,0,.52.54,1.12.23,1.69.1a3,3,0,0,1,1-.25c.32,0,.54-.07.52-.47s.57-.42.65-.29c.34.67.67.18,1.08.12s.9-.31,1.38-.37c1.7-.22,3.35-.65,5-1C65.87,57.23,65.49,56.92,65.31,56.65ZM45,1.07V1c-1.43,0-2.85,0-4.27.05-2.72.15-5.45.35-8.16.58a36.66,36.66,0,0,0-6.35.9c-1.87.48-3.8.76-5.71,1.14-1.23.25-2.5.43-3.69.78A42.37,42.37,0,0,0,6.9,8.54c-2,1.22-3.85,2.52-4.84,4.56a9.24,9.24,0,0,0-.36,7.37A18.22,18.22,0,0,0,3,23.27a10.85,10.85,0,0,0,2,2.55,22.07,22.07,0,0,0,1.84,1.63c1.25,1,2.69,1.78,3.83,2.86,0,.05.15.05.21.09,1.37.68,2.72,1.38,4.1,2a13.76,13.76,0,0,0,2.19.84c2.67.73,5.27,1.64,8,2.17a21.31,21.31,0,0,1,3.19.81,9.21,9.21,0,0,0,1.92.64c2.31.3,4.61.63,6.92.92a10.62,10.62,0,0,0,2.18.1,7.52,7.52,0,0,1,2.28.18,12.27,12.27,0,0,0,1.6.2A46.64,46.64,0,0,0,50,38.2a56.07,56.07,0,0,0,8.18-1.12c.34-.06.66-.2,1-.25,2.44-.31,4.79-1,7.18-1.47s4.87-1.22,7.32-1.81c1.59-.39,3.23-.65,4.8-1.09a52.21,52.21,0,0,0,9.36-3.31,9.44,9.44,0,0,0,3.68-2.84,6.51,6.51,0,0,0,.94-2.56,7.46,7.46,0,0,0,.07-3.29,12.77,12.77,0,0,0-2.32-5A20.75,20.75,0,0,0,86,11.36,34.53,34.53,0,0,0,78.6,6.84c-.69-.29-1.4-.54-2.08-.85-.89-.43-.83-.44-1,.39-.32,1.17-.34,2.42-1.08,3.49-.23.33,0,.49.33.61.67.27,1.38.41,2,.72A32.48,32.48,0,0,1,84,16.4,7.33,7.33,0,0,1,86.2,19,15.57,15.57,0,0,0,87,21c1.09,1.91-.24,4.18-1.88,5.15a28,28,0,0,1-6.47,2.59c-1.14.33-2.31.54-3.43.88-2.68.81-5.4,1.51-8.15,2.12-2.54.56-5.1,1-7.67,1.4-3.06.5-6.14.87-9.23,1.26a28.51,28.51,0,0,1-5.06.06c-1.34-.07-2.66-.3-4-.38-3.49-.19-7-.56-10.4-1A55.81,55.81,0,0,1,17.9,29.88a16.2,16.2,0,0,1-2.5-1,27.54,27.54,0,0,1-6-4.61C8.1,22.81,7,21.31,7.14,19.36a.65.65,0,0,0,0-.2,3.83,3.83,0,0,1,.39-2.84,11.48,11.48,0,0,1,5.05-5.48,30.18,30.18,0,0,1,9.87-3.25c3-.48,6-1.12,9-1.49,2.17-.27,4.34-.51,6.51-.77s4.37-.25,6.55-.36a85.2,85.2,0,0,1,10.6.12c1.46.1,2.88.38,4.34.5a25.7,25.7,0,0,1,7.35,1.5,2.42,2.42,0,0,0,2.56-.24A15,15,0,0,1,72.53,5c.18-.08.38-.14.38-.33s-.19-.28-.38-.34C71.35,4,70.17,3.6,69,3.25a51.86,51.86,0,0,0-6-1.42,52.79,52.79,0,0,0-6.75-.64C52.48,1.07,48.71,1.1,45,1.07ZM27.64,39.16a9.18,9.18,0,0,1,3.9,1c.47.26,1,0,1.37.33a7.45,7.45,0,0,0,3,1.12,5.67,5.67,0,0,0,3.16.51,2.09,2.09,0,0,1,.68.09,30.83,30.83,0,0,0,8,.16c2.51-.23,5-.67,7.53-.81,2.11-.13,4.21-.27,6.3-.53a20.48,20.48,0,0,0,4.13-.86,14.79,14.79,0,0,1,3-.89A1.46,1.46,0,0,0,70,38.57c.24-.51.58-.56,1.05-.34.26.12.58.2.76,0,.79-.75,2-.73,2.91-1.15a3.51,3.51,0,0,1,2.59-.27,1.16,1.16,0,0,0,.87-.15c.26-.17,0-.48,0-.82-1.06.26-2.13-.11-3.18.2-.19.05-.4,0-.42-.24s.15-.24.31-.22c.52.07.94-.27,1.43-.27s.82,0,.72-.42-.56-.15-.87-.15l-.11,0a9.88,9.88,0,0,1-4,.35,1.37,1.37,0,0,0-.45,0c-2,.37-3.92.65-5.83,1.14-3.14.81-6.38,1.23-9.54,1.94a13.75,13.75,0,0,1-1.68.3,49.84,49.84,0,0,1-8.38.5c-2.4-.17-4.81-.23-7.21-.4-1.42-.1-2.82-.12-4.25-.32a45.7,45.7,0,0,1-4.58-.86,33.06,33.06,0,0,0-3.91-.8,12.08,12.08,0,0,1-2-.37c-.49-.13-.65-.11-.94.26a.2.2,0,0,1-.28.05c-.17-.08-.39-.1-.43-.3-.09-.49-.41-.51-.82-.31a.93.93,0,0,1-.95-.07c.17-.23.58-.07.61-.4s-.26-.4-.5-.47c-.84-.25-1.68-.47-2.52-.7-.11,0-.29-.08-.34,0-.53.52-1,.14-1.57,0-.18-.05-.46-.11-.58.12s.66.25.59.65c-.44.2-.91-.15-1.34.08,0,.33.38.6.17.89s-.22.56.19.71.68.56,1,.34c.61-.39,1,0,1.63,0-.66.48-.67.49-.14.67a8.45,8.45,0,0,1,2.52.86s.29-.05.29-.05c-.18-.79.55-.23.8-.4s1,.07.72-.64c-.08-.2.08-.36.37-.41s.68.07.7.36a1.63,1.63,0,0,0,.32.82c.16.24-.07.36-.35.36A6.9,6.9,0,0,0,22,38.57a2.09,2.09,0,0,0,1.12.82,24,24,0,0,1,2.83.76c1,.27,2.05.27,3,.61a3,3,0,0,0,1.56.16c.05-.83,0-.87-.75-.77A2.18,2.18,0,0,1,27.64,39.16Zm4-28.12a19.79,19.79,0,0,0-3,.16c-1,.21-2.05.26-3.08.42-1.67.27-3.24.82-4.89,1.14a11.42,11.42,0,0,0-3.23,1.31,23.14,23.14,0,0,0-3.61,2.49,39.92,39.92,0,0,0-3.08,2.86c-1.36,1.44-1.49,3.86-.17,5a25,25,0,0,0,7.07,4.66l1,.44a1.07,1.07,0,0,0,1.08-.09c.32-.22.49-.43.06-.71s-.72-.42-.8-.82a1.43,1.43,0,0,0-.81-.93,2.87,2.87,0,0,1-1.58-3,2.21,2.21,0,0,0-.16-1.08,3.71,3.71,0,0,1,1.16-4.69,2.91,2.91,0,0,0,1.14-1.82,2.58,2.58,0,0,1,1.34-1.7A11,11,0,0,1,27,13.05a1.84,1.84,0,0,0,1-.06,3.77,3.77,0,0,1,3.4.1c.33.16.67.32,1,.47a.54.54,0,0,0,.76-.24c.29-.58.57-1.17.83-1.77.13-.32,0-.53-.42-.53ZM8,50.13a3.51,3.51,0,0,0,.55,0,13.85,13.85,0,0,0,3.06-.38A37.2,37.2,0,0,0,15.46,48c.33-.15.45-.36.38-.65a3.88,3.88,0,0,0-.34-1.16,8.3,8.3,0,0,1-1.12-3.24c-.18-1.17-.37-1.26-1.73-1a3.54,3.54,0,0,1-.45.08c-.85,0-1.6.45-2.45.46a9,9,0,0,0-3.87.79c-.8.37-1,.47-.83,1.22.34,1.45.46,2.92.7,4.37S6.13,50.25,8,50.13Zm84.74-4.44a1.8,1.8,0,0,0-.58-.83,16.26,16.26,0,0,1-3-3.51c-.3-.48-.56-.51-1.07-.22a46,46,0,0,0-3.89,2.5,15,15,0,0,1-2.63,1.78,6,6,0,0,0-1.31.81c-.76.58-.77.67-.2,1.42a18,18,0,0,1,1.49,1.78c.7,1.23.83,1.24,2.29.61.24-.11.48-.21.71-.33a22.47,22.47,0,0,1,3.59-1.55c1.27-.46,2.48-1,3.72-1.58A1.44,1.44,0,0,0,92.74,45.69ZM74.66,5.75c0-.72-.13-.8-.79-.52a27.94,27.94,0,0,0-3.79,2.1,11.49,11.49,0,0,0-3,3.09,28.78,28.78,0,0,0-2.5,4.28c-.59,1.2-1.12,2.42-1.68,3.64-.05.12-.12.25,0,.36a.36.36,0,0,0,.42,0,9.27,9.27,0,0,0,.89-.45c1.27-.76,2.65-1.35,3.9-2.14a20.43,20.43,0,0,0,4.13-4C73.9,10.21,74.23,7.92,74.66,5.75ZM41.06,31.38a.42.42,0,0,0,.43.25,11.14,11.14,0,0,1,2.92.53c1.56.46,3.25.42,4.82.88a.45.45,0,0,0,.23,0,2.25,2.25,0,0,1,1.62.36.59.59,0,0,0,.94-.19,11.36,11.36,0,0,1,2.31-2.6,5.94,5.94,0,0,0,1.29-1.41c.26-.45.14-.68-.42-.81a6.85,6.85,0,0,0-.79-.13,40.21,40.21,0,0,1-6.74-1.14,1.6,1.6,0,0,0-1.46.39c-1.21.88-2.45,1.73-3.67,2.59A7.19,7.19,0,0,0,41.06,31.38ZM19.83,46.22a2.9,2.9,0,0,0-1.37.59A8.09,8.09,0,0,1,16,48.2a26.51,26.51,0,0,0-3.45,1.74,3.48,3.48,0,0,0-.61.46c-.48.44-.45.69.12,1a3.5,3.5,0,0,1,.75.46,11.49,11.49,0,0,0,2.44,1.65,1.8,1.8,0,0,0,1.81.1c1.71-.75,3.47-1.4,5.09-2.3a6.5,6.5,0,0,0,1.49-.92c.55-.55.61-.82.12-1.4a11.29,11.29,0,0,0-3.4-2.65A3,3,0,0,0,19.83,46.22Zm7.89,11.85a1.65,1.65,0,0,0,.28.27,26,26,0,0,1,4.84,3.15l.1.06a1.41,1.41,0,0,0,1.67.17,1.87,1.87,0,0,1,1.09-.25,12.13,12.13,0,0,0,5-1.2c1.18-.44,1.18-.74.39-1.66a15.6,15.6,0,0,0-2.58-2.27,3,3,0,0,0-2.95-.53,19.6,19.6,0,0,1-3.5.93,3,3,0,0,0-1.28.38,4.82,4.82,0,0,1-1.94.59A3,3,0,0,0,27.72,58.07Zm10.52-32a4.09,4.09,0,0,1-2.54,2.42,3.56,3.56,0,0,0-.92.6c-.17.17-.26.39,0,.5.63.24.61,1,1.53,1.14-1.3.46-2.34.87-3.52.41a2.15,2.15,0,0,0-.68-.09,32,32,0,0,1-5.61-1,19.22,19.22,0,0,0-2.7-.36,3.52,3.52,0,0,0-2.08.52.61.61,0,0,0,.43.44A66.07,66.07,0,0,0,30,32.22c1.43.25,2.89.34,4.33.53s3,.44,4.43.61c1,.12,1.24-.09,1.05-.91a1.39,1.39,0,0,1,.84-1.7,8,8,0,0,0,2-1.78c-1.81-.54-3.26.49-4.86.63A4.16,4.16,0,0,1,39,28.4a1.94,1.94,0,0,0,.83-1.21c.13-.47-.62-.57-1-.79ZM23.66,51.24a10.52,10.52,0,0,0-1.81.78,25.81,25.81,0,0,1-4.47,2,1,1,0,0,0-.82,1q-.09.9-.21,1.8c-.05.4-.32.74-.3,1.17,0,.87.12,1,1.05.71A23.77,23.77,0,0,0,21.61,57,2.49,2.49,0,0,0,23,55.64,14.53,14.53,0,0,0,23.66,51.24Zm18,9.47a1,1,0,0,0-.7.12,26.72,26.72,0,0,1-5.41,1.32c-1.27.21-1.48.48-1.47,1.64a16.08,16.08,0,0,1,.15,2.59c-.05.32.18.44.5.38A19.24,19.24,0,0,0,41.49,64a.75.75,0,0,0,.38-.6A4.85,4.85,0,0,0,41.63,60.71Zm2.27-49a5.41,5.41,0,0,1-1.11-.83c-.25-.32-1.06-.31-.83-.81s.86-.33,1.32-.46a1,1,0,0,1,.45,0c.2,0,.39.05.5-.13s-.06-.38-.2-.53a1.53,1.53,0,0,0-.92-.38,4.46,4.46,0,0,0-2.34.34c-1.05.46-1.17.63-.91,1.65a.29.29,0,0,1-.11.37c-.35,0-.76,0-.94-.37a1,1,0,0,0-1.17-.75,2,2,0,0,0-1.63,1c.31.19.48-.1.72-.16a.7.7,0,0,1,.72.18c.23.24,0,.33-.19.47-.3.3-.15.49.24.57.19,0,.4,0,.45.24-.7.67-.83.89-.74,1.24a1.56,1.56,0,0,0,2,1.06c.91-.25,1.86-.34,2.78-.52.29-.06.26.4.61.09A4.68,4.68,0,0,1,45,12.58c.48-.08.41-.62.88-.74.16,0,0-.19-.09-.3-.41-.6-1.23-.61-1.74-1C43.66,10.86,44.08,11.18,43.9,11.66Zm19,1.89a4,4,0,0,0-.07-.7A7.17,7.17,0,0,0,59.76,9c-.31-.21-.5,0-.59.23-.23.63-.38,1.3-.67,1.91-.74,1.58,0,2.91,1,4.12.57.69,1.4,1.22,1.92,2,.19.27.49.25.6-.06A9.45,9.45,0,0,0,62.91,13.55Zm2.41,7.36c.61-.14,1.26-.13,1.89-.3a19.29,19.29,0,0,0,6.12-3.09c.14-.09.34-.19.24-.4a.48.48,0,0,0-.49-.19c-1.07.09-2.14.19-3.21.27a13.29,13.29,0,0,0-6.31,2.19c-.34.22-.67.45-1,.69-.14.11-.3.24-.25.43s.37.25.57.24A11,11,0,0,1,65.32,20.91Zm-2.94,9.17c-.3-.43-.44-.84.06-1.11a15.24,15.24,0,0,1,2.42-1.12.47.47,0,0,1,.51.13c.19.19,0,.29-.16.4s-.7.28-.74.71c0,.17-.18.05-.32,0-.56-.12-1.16.34-1,.4.64.28-.21.5.07.77.56-.33,1.09.06,1.73,0-.2.47-.87.25-1,.78.6-.11,1.09-.29,1.6-.39s.72-.25.69-.77.4-.61,1.06-.47a4.08,4.08,0,0,0,1.35.07c.6-.06,1.44-.76,1.31-1.09-.45-1.1-.58-2.3-1.47-3.25A.53.53,0,0,0,67.7,25a11.64,11.64,0,0,1-1.52.7,1.19,1.19,0,0,0-.91,1c0,.61-.45.83-1,1A15.43,15.43,0,0,0,62,28.78c-.34.17-.41.37-.26.66S61.88,30,62.38,30.08ZM89.6,51.45a1.53,1.53,0,0,1,1-.36,1.61,1.61,0,0,0,1.84-1.44A8.65,8.65,0,0,0,92.54,48c0-.75-.15-.83-1-.53-1.45.53-2.88,1.11-4.32,1.68-.2.08-.44.15-.41.4s.49.06.57.32a2.81,2.81,0,0,1-1.26.48c-.31.06-.64.13-.73.41-.22.71-1,1.1-1.31,1.83,1.22-.22,2.41-.32,3.2-1.31a1.44,1.44,0,0,1,1-.65A1.28,1.28,0,0,1,89.6,51.45Zm-7.5,2.66c0-.57-.23-1.12-.17-1.7.17-1.79-1.16-3-2.17-4.4a.55.55,0,0,0-.58-.24c-.24.07-.28.31-.29.51a14.94,14.94,0,0,1-.48,2.88.71.71,0,0,0,.26.73,30.1,30.1,0,0,1,2.43,2.77c.2.23.4.48.72.38s.27-.39.26-.63S82.09,54.21,82.1,54.11ZM29.69,29.16c.18.35.57.4.92.49.95.26,1.07.29,1.45-.46A2.25,2.25,0,0,1,34.22,28a4.54,4.54,0,0,0,2.12-.72,2.05,2.05,0,0,0,1.16-2.07,18.73,18.73,0,0,1-.44-2.88.29.29,0,0,0-.33-.33c-.22,0-.38.13-.35.32a2.88,2.88,0,0,1-.21,1.16c-.06.29-.45.49-.38,1,.05.27-.43.71-1,.77-.2,0-.46.13-.47.38s.2.29.38.33.41.16.36.47-.27.33-.55.37a16.53,16.53,0,0,0-2.21.3c.13.38.64.17.72.53-.27.23-1.13,0-.85.72,0,.08-.25.1-.4.12s-.39,0-.39.13c0,.67-.58.43-1,.47C30.17,29,29.87,28.91,29.69,29.16ZM12.66,53c-.12.51.8.34.58.9-.67-.08-1.11-.67-1.84-.65.06.32.09.58.16.83.12.46.84.4,1,.79s-.16.82.36,1.15a1.72,1.72,0,0,1,.63.82.22.22,0,0,1,0,.27c-.27.17-.61-.15-.92.18.68.75,1.81.66,2.59,1.2a3.16,3.16,0,0,0,.16-.31c.37-1.07.1-2.21.45-3.28a.32.32,0,0,0-.11-.37A8.52,8.52,0,0,0,12.66,53Zm-1.83-2.56a6.32,6.32,0,0,0-2.57.25c-.64.23-1.53-.26-1.92.31a5.29,5.29,0,0,0-.51,1.84c-.16.64,0,.75.72.75a19.52,19.52,0,0,0,2.94-.45c.81-.11,1-.3.88-1A1.87,1.87,0,0,1,10.83,50.44ZM61.77,26.59a.7.7,0,0,0,.76.07l5.12-2.26a1.84,1.84,0,0,0,1.08-1.56c.09-.54-.11-.7-.71-.48a29.85,29.85,0,0,1-3.76.91c-.24.05-.56,0-.62.11.13.76.25,1.42,1.14,1.63C63.91,25.79,62.54,25.75,61.77,26.59Zm-6.88-3.74A3.44,3.44,0,0,0,57,22.77a.59.59,0,0,1,.75.32c.1.25,0,.41-.28.58a1.72,1.72,0,0,1-.92.36c-.16,0-.4.11-.35.2.3.55-.39.73-.5,1.12-.05.18-.2.4.26.51,0-.67.62-.74,1.2-.83a3.56,3.56,0,0,0,.57-.09A1.63,1.63,0,0,0,59,23.64a3.79,3.79,0,0,0-.49-2.24,1.3,1.3,0,0,0-1.6-.27,1.33,1.33,0,0,0-.46.54c-.15.33.57.22.43.6A5.5,5.5,0,0,0,54.89,22.85Zm14.79,0a4.27,4.27,0,0,0,.53,4.31.27.27,0,0,0,.38.07c.4-.24.87-1.32.65-1.72C70.75,24.66,70.21,23.79,69.68,22.89ZM73.92,13c.55.66.85,1.39,1.85,1.25.15-.41.22-.77-.44-.92a.53.53,0,0,1-.41-.64c0-.16.13-.42-.06-.46-.68-.12-.64-.83-1.15-1.1-.44.5-.47,1.1-.92,1.54s-.24.63.21.89S73.69,13.51,73.92,13ZM33.33,53.19c-.53-.26-.79-1.07-1.64-.36a.36.36,0,0,1-.56-.29c0-.13.23-.34-.11-.37a.41.41,0,0,0-.46.23c-.16.49-.21.28-.31,0s-.33-.25-.57-.17-.26.26-.18.48A2.68,2.68,0,0,0,31,53.9,2.84,2.84,0,0,0,33.33,53.19ZM2.92,49.55c-.23.23-.14.45,0,.65.49.67,1,1.33,1.5,2a.45.45,0,0,0,.47.22c.27,0,.33-.25.39-.44.35-1.21,0-2-1.26-2.94-.16.48.11.85.31,1.23.07.12.13.26,0,.37a.39.39,0,0,1-.51-.07C3.48,50.25,3.39,49.78,2.92,49.55ZM32.39,42.6a10.29,10.29,0,0,0,4.87.6c-1.46-.41-3-.3-4.5-.8A.3.3,0,0,0,32.39,42.6Zm23-10c.78-.68.21-1.57.78-2.4a2.57,2.57,0,0,0-1.66,1.39C55.11,31.7,55.54,31.93,55.4,32.61ZM29.9,8.32c-3.43-.07-4,0-4.44.6C27,8.86,28.44,8.44,29.9,8.32Zm33.81,5.36c.48-.39.44-.86.66-1.23.1-.18.15-.39-.05-.54a.77.77,0,0,0-.74-.06c-.26.08-.28.29-.27.49A3,3,0,0,0,63.71,13.68ZM24.09,44.74c-.85-.33-1.63-1-2.9-.42A6.29,6.29,0,0,0,24.09,44.74Zm22.37,14.7a5.92,5.92,0,0,0,2.53.35c.16,0,.3-.08.29-.25a.24.24,0,0,0-.29-.23C48.15,59.46,47.3,59.34,46.46,59.44ZM42.55,32.61c.79.83,1.66.46,2.41.58A3.8,3.8,0,0,0,42.55,32.61ZM21,43.11c.58.37,1.14.38,1.56.66a.55.55,0,0,0,.62-.09c.09-.06.14-.16.05-.25s-.27-.47-.6-.33C22.09,43.31,21.63,43,21,43.11Zm40-36a1.78,1.78,0,0,0-1.3-.35c-.37,0-.42.26-.38.5s.26.3.51.23ZM84.79,53.78l-1.71.69c-.09,0-.21.1-.14.23a.3.3,0,0,0,.37.14A2.92,2.92,0,0,0,84.79,53.78Zm-29-27.5c-.27-.08-.41.06-.59.11s-.43.27-.38.53a.32.32,0,0,0,.21.21c.28.09.39-.14.55-.27A.48.48,0,0,0,55.8,26.28Zm-23.31,19c-.56-.18-.71-.67-1.21-.41a.28.28,0,0,0-.06.44C31.52,45.65,31.86,45.54,32.49,45.31Zm-7-31.73a.85.85,0,0,0,1.11.35.33.33,0,0,0,.17-.23c0-.17-.14-.2-.3-.19S25.84,13.55,25.44,13.58ZM80.57,38.79c.36,0,.77,0,1-.36,0,0,0-.14-.09-.16-.34-.17-.65,0-1,.07-.14,0-.29.1-.26.27S80.42,38.77,80.57,38.79Zm-40,18c.58.32.94.6,1.45.14A2,2,0,0,0,40.6,56.77ZM33,41.51c-.74-.35-.74-.35-1.27-.18A1.75,1.75,0,0,0,33,41.51Zm-19.6-6.89c.09.22.41.11.54.29s.33.25.44,0-.11-.32-.32-.33A1.24,1.24,0,0,0,13.36,34.62Zm18.35,9.2c-.16,0-.42.06-.44.24s.21.24.4.26.39-.08.39-.27S31.9,43.84,31.71,43.82ZM29,51.88c-.05-.14-.07-.33-.31-.32s-.1.14-.11.23a.22.22,0,0,0,.22.26C28.89,52.05,29,52,29,51.88Zm-6.59-6.61c-.13,0-.21.08-.18.2a.37.37,0,0,0,.45.32c.11,0,.24-.06.2-.18S22.59,45.31,22.37,45.27ZM47.16,33.34a.5.5,0,0,0,.33.35c.18.07.4.12.48-.07s-.13-.29-.31-.32A2.52,2.52,0,0,0,47.16,33.34Zm-12.1-21c-.14,0-.37,0-.35.26a.21.21,0,0,0,.23.17.38.38,0,0,0,.4-.29C35.35,12.43,35.2,12.41,35.06,12.39ZM13,32.63a.71.71,0,0,0-.79-.37C12.38,32.61,12.73,32.58,13,32.63Zm20,22c-.11,0-.27,0-.27.14s.19.18.33.15.26-.09.26-.14S33.16,54.68,33,54.65ZM24.77,9.2c.13,0,.2-.09.18-.19a.18.18,0,0,0-.15-.11.2.2,0,0,0-.23.15C24.54,9.17,24.65,9.2,24.77,9.2ZM73.69,50.74a.22.22,0,0,0-.08.27.12.12,0,0,0,.18.06.14.14,0,0,0,.06-.24S73.74,50.77,73.69,50.74Z"/><path d="M92.11,58.83c-1,0-1.32-.39-1.13-1.21a1.75,1.75,0,0,1,1.33-1.25,1.35,1.35,0,0,1,1.59.48,2.4,2.4,0,0,0,.43.32c.62.51.6.82-.18,1.06A6.69,6.69,0,0,1,92.11,58.83Zm1.26-1.24c-.09-.25-.17-.46-.45-.44s-.68.11-.74.48c0,.14,0,.27.22.26C92.76,57.87,93.15,57.89,93.37,57.59Z"/><path d="M22.2,60.78a1,1,0,0,1,1,.37,1.35,1.35,0,0,1-.48,1.46,3.11,3.11,0,0,1-2,.4c-.78-.13-1-.37-1-1s.23-1,1-1.07l.91-.12Zm-.85,1.68c.62,0,1.11-.29,1-.58s-.39-.35-.71-.33c-.53,0-.9.3-.83.62S21.1,62.48,21.35,62.46Z"/><path d="M13.26,63.3l-.32,0c-.89-.13-1.55-.52-1.49-.88a2.51,2.51,0,0,1,1.73-1.58A1.8,1.8,0,0,1,14.84,62C15,62.63,14.17,63.3,13.26,63.3Zm-.1-.65c.3,0,.66,0,.64-.31s-.55-.31-.84-.45-.36.17-.37.36C12.57,62.63,12.91,62.62,13.16,62.65Z"/><path d="M3.74,58.65a1.65,1.65,0,0,1,1.31-1.19A2.08,2.08,0,0,1,6.5,59c0,.29-1,.93-1.5.92A1.19,1.19,0,0,1,3.74,58.65Zm1.77.16c-.06-.11-.09-.3-.37-.33s-.39,0-.42.2A.33.33,0,0,0,5,59.1.39.39,0,0,0,5.51,58.81Z"/><path d="M89,55.63a1.25,1.25,0,0,1,1.33-1.23,1.36,1.36,0,0,1,1.09,1.13A1.41,1.41,0,0,1,90,56.74,1,1,0,0,1,89,55.63Z"/><path d="M79.63,59c0-.59.52-1,1.27-1,.6,0,1,.27,1,.74A1.38,1.38,0,0,1,80.51,60,.83.83,0,0,1,79.63,59Z"/><path d="M75.8,56.36c.84,0,1.32.27,1.3.8s-.77,1-1.5,1a.7.7,0,0,1-.77-.7A1,1,0,0,1,75.8,56.36Z"/><path d="M5.64,62a.71.71,0,0,1,.74-.82,1.22,1.22,0,0,1,1.25.95.9.9,0,0,1-1,.82A.91.91,0,0,1,5.64,62Z"/><path d="M50.5,64.27a.92.92,0,0,1-1.08-.82c0-.25.09-.59.41-.42.71.38.39-.63,1-.47.4.11.75.3.79.74A1,1,0,0,1,50.5,64.27Z"/><path d="M86.19,57.94a.75.75,0,0,1,.85.65c0,.42-.47.77-1,.74s-1-.43-1-.75S85.58,57.93,86.19,57.94Z"/><path d="M21.42,65.78a.74.74,0,0,1-.79.72,1.46,1.46,0,0,1-1.09-.5c-.1-.1-.14-.31,0-.35.49-.15.86-.54,1.33-.6S21.35,65.47,21.42,65.78Z"/><path d="M92.91,55.46l-.35,0A.56.56,0,0,1,92,55c-.09-.34.24-.37.46-.46a1.65,1.65,0,0,1,.44-.1c.55-.07,1.12.16,1.15.45S93.58,55.46,92.91,55.46Z"/><path d="M55.57,63.08c0,.39-.38.46-.74.47s-.82-.27-.78-.66.32-.51.7-.51S55.59,62.78,55.57,63.08Z"/><path d="M12.33,65.55a.62.62,0,0,1-.74.58c-.41,0-.76-.15-.74-.59,0-.25,0-.54.43-.55C11.93,65,12.32,65.17,12.33,65.55Z"/><path d="M15.77,65.53c.4,0,.54.25.77.35s.48.1.47.37-.26.28-.48.34a.56.56,0,0,1-.68-.2A.7.7,0,0,1,15.77,65.53Z"/><path d="M79.77,57.25c-.07.26-.18.44-.45.46a.53.53,0,0,1-.63-.46c0-.22,0-.52.35-.53S79.54,57.07,79.77,57.25Z"/><path d="M10.48,60c0,.31-.24.31-.47.31s-.53,0-.55-.26.3-.34.56-.37S10.45,59.77,10.48,60Z"/><path d="M94.71,53.38c-.4,0-.42-.24-.48-.42a.21.21,0,0,1,.19-.3.37.37,0,0,1,.46.33C94.92,53.18,94.78,53.28,94.71,53.38Z"/><path d="M88.35,56.13c0,.27-.23.39-.54.39s-.41-.06-.4-.25.4-.33.67-.39A.25.25,0,0,1,88.35,56.13Z"/><path d="M87.25,57a.37.37,0,0,1-.48.31.3.3,0,0,1-.25-.3.39.39,0,0,1,.44-.37A.29.29,0,0,1,87.25,57Z"/><path d="M69.93,54.89a4.8,4.8,0,0,1-3.36.62C67.61,54.82,68.84,55.12,69.93,54.89Z"/><path d="M41.12,55.19c-1.45.27-1.45.27-2.15,0C39.75,54,40.41,55.08,41.12,55.19Z"/><path d="M75.21,41.93a.81.81,0,0,1-1,.41.38.38,0,0,1-.06-.61C74.53,41.4,74.83,41.76,75.21,41.93Z"/><path d="M71.65,42.22a7.25,7.25,0,0,1,1-.4c.24,0,.64-.34.72,0s-.39.32-.68.34S72.19,42.22,71.65,42.22Z"/><path d="M65.31,56.65a1.62,1.62,0,0,1-.86.58.28.28,0,0,1-.34-.19c0-.12,0-.19.14-.24a2.5,2.5,0,0,1,1.09-.12Z"/><path d="M71.89,44.16c-.53.05-1,.38-1.66.25A2.23,2.23,0,0,1,71.89,44.16Z"/><path d="M31.18,49.83c0,.15,0,.36-.28.34s-.37-.13-.37-.32a.38.38,0,0,1,.35-.35C31.1,49.47,31.19,49.63,31.18,49.83Z"/><path d="M46.12,57.06a.84.84,0,0,1-1-.19A.87.87,0,0,1,46.12,57.06Z"/><path d="M49.24,58.38a.44.44,0,0,1-.37-.43c0-.11.11-.17.23-.16a.43.43,0,0,1,.46.35C49.58,58.28,49.42,58.36,49.24,58.38Z"/><path d="M68.37,54.47a.9.9,0,0,1-1.17.28A2.3,2.3,0,0,1,68.37,54.47Z"/><path d="M75.85,41l-.89.24C75.37,40.9,75.37,40.9,75.85,41Z"/><path d="M31.65,50.89c0,.17-.13.22-.28.23S31,51.1,31,51s.14-.2.28-.23A.34.34,0,0,1,31.65,50.89Z"/><path d="M36.18,53.74c-.09.07-.16.16-.24.17s-.23-.11-.2-.24.12-.19.23-.14S36.1,53.65,36.18,53.74Z"/><path d="M55.79,59s-.21-.11-.2-.15.22-.12.35-.12.23,0,.17.16S56,59.07,55.79,59Z"/><path d="M75.45,40.13a.72.72,0,0,1-.17.22c-.09,0-.23,0-.2-.09s.11-.15.2-.21S75.42,40,75.45,40.13Z"/><path d="M46.91,57.29l-.2-.17a1.09,1.09,0,0,1,.26,0c.06,0,.17,0,.17.06S47.07,57.29,46.91,57.29Z"/><path d="M69.71,54.28a.22.22,0,0,1-.21.21.19.19,0,0,1-.25-.1c0-.13.08-.16.18-.16A.92.92,0,0,1,69.71,54.28Z"/><path d="M20.29,35.73c.06.14-.07.18-.17.2s-.29,0-.33-.15a.17.17,0,0,1,.15-.22A.29.29,0,0,1,20.29,35.73Z"/><path d="M26.09,37.44a.29.29,0,0,1-.31,0c-.09,0-.13-.09-.09-.16a.19.19,0,0,1,.29,0A.38.38,0,0,1,26.09,37.44Z"/><path d="M21.56,26c-1.86-.23-2.93-1.77-2.31-3.12a1,1,0,0,1,.84-.6.48.48,0,0,1,.4.16c.12.13,0,.23-.09.34-1.07,1.19-.9,2,.54,2.79C21.13,25.67,21.38,25.7,21.56,26Z"/><path d="M25.16,19.61c-.18-.85-.63-1.14-1.41-1-.61.09-.81.27-.75.8a3,3,0,0,0,.16.48.22.22,0,0,1-.17.31.38.38,0,0,1-.42-.08,1.12,1.12,0,0,1,.53-1.89,2.76,2.76,0,0,1,1.88.16C25.4,18.61,25.63,18.92,25.16,19.61Z"/><path d="M28.47,21.18a1.75,1.75,0,0,1,1.83.22c.17.21.24.45-.05.62s-.39,0-.45-.24C29.65,21.19,29,21.49,28.47,21.18Z"/><path d="M28.84,14.81c.77-.52.79-.52,1.34-.06a1.24,1.24,0,0,1-1.36,0Z"/><path d="M34.1,17.33a1.19,1.19,0,0,1-1.28.2c.37-.46.88-.15,1.31-.19Z"/><path d="M28.66,25.72c-.36.11-.69.27-1,0a.29.29,0,0,1,0-.44c.14-.13.27,0,.38.05S28.41,25.55,28.66,25.72Z"/><path d="M27.73,17.79a.46.46,0,0,1-.05.1c-.21.14-.41.33-.7.17,0,0-.06-.13,0-.17C27.16,17.57,27.44,17.65,27.73,17.79Z"/><path d="M23.5,26.12c-.05.05-.07.09-.1.1-.23.11-.46.28-.71,0-.06-.06,0-.12,0-.17A.54.54,0,0,1,23.5,26.12Z"/><path d="M23.1,23.72c.18,0,.28.09.28.23a.28.28,0,0,1-.28.25.21.21,0,0,1-.21-.19A.23.23,0,0,1,23.1,23.72Z"/><path d="M32.61,18.53c-.11.17-.26.14-.4.15s-.29.07-.4-.07c.07-.14.21-.14.35-.13Z"/><path d="M45.6,18.1c-1.41-.21-2.2.25-2.51,1.5-.06.26-.1.44-.45.46s-1-.38-1.38.14A2.06,2.06,0,0,0,41,21.5c-.6-.57-.61-.65-.33-1.27.2-.44.43-.81,1.07-.7s.85-.14,1.06-.64A1.87,1.87,0,0,1,45.6,18.1Z"/><path d="M41.74,24c-.5-1.5.74-2.52,2.52-2.16C42.76,22,41.89,22.63,41.74,24Z"/><path d="M49.15,24a2.42,2.42,0,0,1,1,.09c-.11.25-.15.56-.56.53S49.12,24.34,49.15,24Z"/><path d="M46.27,14.61,45,15a1.4,1.4,0,0,1,1.19-.59Z"/><path d="M44.32,16.05c.22-.26.5-.23.88-.33C44.91,16.1,44.57,16,44.32,16.05Z"/><path d="M45.89,25.65a1.07,1.07,0,0,1-1.08-.52,2.56,2.56,0,0,1,1.06.55Z"/><path d="M49,21.45c-.05.1-.15.16-.25.09a.36.36,0,0,1-.11-.25c0-.09,0-.22.18-.17S49,21.31,49,21.45Z"/><path d="M42,11.83a2.29,2.29,0,0,0-1.45.65c-.42.51-1.13.19-1.71.21-.1,0-.18-.1-.17-.22s.12-.16.22-.19a.77.77,0,0,1,.56,0c.41.16.6,0,.82-.32C40.77,11.39,40.8,11.4,42,11.83Z"/><path d="M65.73,28.88l-.32.05c-.12,0-.15-.06-.07-.11a.78.78,0,0,1,.22,0C65.67,28.77,65.72,28.8,65.73,28.88Z"/><path d="M28.44,9.44c0,.11-.13.12-.24.09s-.17-.11-.12-.2a.2.2,0,0,1,.17-.08A.2.2,0,0,1,28.44,9.44Z"/></g></svg>